<svg width="25" height="24" viewBox="0 0 25 24" fill="none" xmlns="http://www.w3.org/2000/svg">
<g style="mix-blend-mode:multiply" opacity="0.1">
<path d="M7.46436 10H18.7144C19.4047 10 19.9644 10.5596 19.9644 11.25V13.5H10.4644C9.63593 13.5 8.96436 14.1716 8.96436 15V20.5C8.96436 21.3284 8.29278 22 7.46436 22C6.63593 22 5.96436 21.3284 5.96436 20.5V11.5C5.96436 10.6716 6.63593 10 7.46436 10Z" fill="#D9DDE4"/>
<path d="M7.46436 10H18.7144C19.4047 10 19.9644 10.5596 19.9644 11.25V13.5H10.4644C9.63593 13.5 8.96436 14.1716 8.96436 15V20.5C8.96436 21.3284 8.29278 22 7.46436 22C6.63593 22 5.96436 21.3284 5.96436 20.5V11.5C5.96436 10.6716 6.63593 10 7.46436 10Z" fill="url(#paint0_linear_20714_17389)"/>
</g>
<g style="mix-blend-mode:multiply" opacity="0.5">
<path d="M20.0913 10.625H18.5635V7.66346C18.5635 4.77596 16.1955 2.48077 13.2163 2.48077C10.2371 2.48077 7.86909 4.77596 7.86909 7.66346V10.625H6.34131V7.66346C6.34131 3.96154 9.39686 1 13.2163 1C17.0358 1 20.0913 3.96154 20.0913 7.66346V10.625Z" fill="url(#paint1_linear_20714_17389)"/>
</g>
<g style="mix-blend-mode:multiply" opacity="0.5">
<path d="M19.2158 23H7.21582C5.94082 23 4.96582 22.0069 4.96582 20.7083V11.5417C4.96582 10.2431 5.94082 9.25 7.21582 9.25H19.2158C20.4908 9.25 21.4658 10.2431 21.4658 11.5417V20.7083C21.4658 22.0069 20.4908 23 19.2158 23ZM7.21582 10.7778C6.76582 10.7778 6.46582 11.0833 6.46582 11.5417V20.7083C6.46582 21.1667 6.76582 21.4722 7.21582 21.4722H19.2158C19.6658 21.4722 19.9658 21.1667 19.9658 20.7083V11.5417C19.9658 11.0833 19.6658 10.7778 19.2158 10.7778H7.21582Z" fill="#7585A0"/>
<path d="M19.2158 23H7.21582C5.94082 23 4.96582 22.0069 4.96582 20.7083V11.5417C4.96582 10.2431 5.94082 9.25 7.21582 9.25H19.2158C20.4908 9.25 21.4658 10.2431 21.4658 11.5417V20.7083C21.4658 22.0069 20.4908 23 19.2158 23ZM7.21582 10.7778C6.76582 10.7778 6.46582 11.0833 6.46582 11.5417V20.7083C6.46582 21.1667 6.76582 21.4722 7.21582 21.4722H19.2158C19.6658 21.4722 19.9658 21.1667 19.9658 20.7083V11.5417C19.9658 11.0833 19.6658 10.7778 19.2158 10.7778H7.21582Z" fill="url(#paint2_linear_20714_17389)"/>
</g>
<g style="mix-blend-mode:multiply" opacity="0.5">
<rect x="11.9644" y="13" width="3" height="6" rx="1.5" fill="#E50C00"/>
<rect x="11.9644" y="13" width="3" height="6" rx="1.5" fill="url(#paint3_linear_20714_17389)"/>
</g>
<defs>
<linearGradient id="paint0_linear_20714_17389" x1="19.8337" y1="10.2273" x2="7.40307" y2="20.4174" gradientUnits="userSpaceOnUse">
<stop stop-color="#1E2EED"/>
<stop offset="1" stop-color="#C21B1B"/>
</linearGradient>
<linearGradient id="paint1_linear_20714_17389" x1="19.963" y1="1.18231" x2="9.79509" y2="11.3887" gradientUnits="userSpaceOnUse">
<stop stop-color="#1E2EED"/>
<stop offset="1" stop-color="#C21B1B"/>
</linearGradient>
<linearGradient id="paint2_linear_20714_17389" x1="21.3119" y1="9.51044" x2="6.99496" y2="21.5821" gradientUnits="userSpaceOnUse">
<stop stop-color="#1E2EED"/>
<stop offset="1" stop-color="#C21B1B"/>
</linearGradient>
<linearGradient id="paint3_linear_20714_17389" x1="14.9364" y1="13.1136" x2="10.972" y2="14.5064" gradientUnits="userSpaceOnUse">
<stop stop-color="#1E2EED"/>
<stop offset="1" stop-color="#C21B1B"/>
</linearGradient>
</defs>
</svg>
