<svg width="24" height="24" viewBox="0 0 24 24" fill="none" xmlns="http://www.w3.org/2000/svg">
<g style="mix-blend-mode:multiply" opacity="0.1">
<path d="M15.8794 14.0047C9.68139 14.4509 7.51141 17.584 7.29974 20.2162C7.17948 20.5738 7.20192 20.9168 7.32702 21.216H4.39841C1.80413 21.216 1.80417 21.216 2.76222 19.2031C4.2224 15.8593 7.15223 13.9521 14.2564 13.9521C14.8104 13.9521 15.3516 13.9701 15.8794 14.0047Z" fill="url(#paint0_linear_20516_9517)"/>
</g>
<g style="mix-blend-mode:multiply" opacity="0.1">
<path d="M14.7746 12.8178C10.6457 12.2989 9.58608 9.8014 9.5862 7.72603C9.58633 5.65066 10.6457 3.15318 14.7746 2.63424C14.2694 2.57073 13.7492 2.5376 13.2181 2.5376C8.34677 2.5376 6.47314 4.28744 6.47314 7.72603C6.47314 11.1646 8.34677 12.9145 13.2181 12.9145C13.7492 12.9145 14.2694 12.8813 14.7746 12.8178Z" fill="url(#paint1_linear_20516_9517)"/>
</g>
<g style="mix-blend-mode:multiply" opacity="0.5">
<path fill-rule="evenodd" clip-rule="evenodd" d="M3.06044 20.586C3.0613 20.587 3.06222 20.588 3.06321 20.5891C3.10275 20.632 3.20642 20.6972 3.3603 20.6972H19.9633C20.1172 20.6972 20.2208 20.632 20.2604 20.5891C20.2614 20.588 20.2623 20.587 20.2631 20.586C19.4372 17.4248 16.3092 14.4711 11.6618 14.4711C7.01438 14.4711 3.88642 17.4248 3.06044 20.586ZM1.55219 20.2012C2.5534 16.3529 6.30077 12.9146 11.6618 12.9146C17.0228 12.9146 20.7702 16.3529 21.7714 20.2012C22.06 21.3105 21.1095 22.2537 19.9633 22.2537H3.3603C2.2141 22.2537 1.2636 21.3105 1.55219 20.2012Z" fill="#6D7D8F"/>
<path fill-rule="evenodd" clip-rule="evenodd" d="M3.06044 20.586C3.0613 20.587 3.06222 20.588 3.06321 20.5891C3.10275 20.632 3.20642 20.6972 3.3603 20.6972H19.9633C20.1172 20.6972 20.2208 20.632 20.2604 20.5891C20.2614 20.588 20.2623 20.587 20.2631 20.586C19.4372 17.4248 16.3092 14.4711 11.6618 14.4711C7.01438 14.4711 3.88642 17.4248 3.06044 20.586ZM1.55219 20.2012C2.5534 16.3529 6.30077 12.9146 11.6618 12.9146C17.0228 12.9146 20.7702 16.3529 21.7714 20.2012C22.06 21.3105 21.1095 22.2537 19.9633 22.2537H3.3603C2.2141 22.2537 1.2636 21.3105 1.55219 20.2012Z" fill="url(#paint2_linear_20516_9517)"/>
</g>
<g style="mix-blend-mode:multiply" opacity="0.5">
<path fill-rule="evenodd" clip-rule="evenodd" d="M11.6622 12.3957C14.2411 12.3957 16.3317 10.3051 16.3317 7.72612C16.3317 5.14717 14.2411 3.05653 11.6622 3.05653C9.08321 3.05653 6.99256 5.14717 6.99256 7.72612C6.99256 10.3051 9.08321 12.3957 11.6622 12.3957ZM11.6622 13.9522C15.1007 13.9522 17.8883 11.1647 17.8883 7.72612C17.8883 4.28753 15.1007 1.5 11.6622 1.5C8.22356 1.5 5.43604 4.28753 5.43604 7.72612C5.43604 11.1647 8.22356 13.9522 11.6622 13.9522Z" fill="url(#paint3_linear_20516_9517)"/>
</g>
<g style="mix-blend-mode:multiply" opacity="0.5">
<path d="M8.4197 8.52803C8.03638 8.42532 7.80886 8.03124 7.91157 7.64793C8.18869 6.6137 8.76891 5.70281 9.58862 5.01535C10.3886 4.34438 11.3587 3.93162 12.3931 3.82258C12.7879 3.78097 13.1415 4.06722 13.1831 4.46187C13.1926 4.55157 13.185 4.63993 13.1627 4.72313C13.0881 5.00162 12.8487 5.21969 12.5439 5.25185C11.0042 5.41415 9.69962 6.52775 9.2998 8.0199C9.19709 8.40322 8.80301 8.63074 8.4197 8.52803Z" fill="url(#paint4_linear_20516_9517)"/>
<path d="M8.4197 8.52803C8.03638 8.42532 7.80886 8.03124 7.91157 7.64793C8.18869 6.6137 8.76891 5.70281 9.58862 5.01535C10.3886 4.34438 11.3587 3.93162 12.3931 3.82258C12.7879 3.78097 13.1415 4.06722 13.1831 4.46187C13.1926 4.55157 13.185 4.63993 13.1627 4.72313C13.0881 5.00162 12.8487 5.21969 12.5439 5.25185C11.0042 5.41415 9.69962 6.52775 9.2998 8.0199C9.19709 8.40322 8.80301 8.63074 8.4197 8.52803Z" fill="url(#paint5_linear_20516_9517)"/>
</g>
<defs>
<linearGradient id="paint0_linear_20516_9517" x1="15.7515" y1="14.0897" x2="8.37307" y2="23.8711" gradientUnits="userSpaceOnUse">
<stop stop-color="#1E2EED"/>
<stop offset="1" stop-color="#C21B1B"/>
</linearGradient>
<linearGradient id="paint1_linear_20516_9517" x1="14.6972" y1="2.73415" x2="5.33214" y2="7.99839" gradientUnits="userSpaceOnUse">
<stop stop-color="#1E2EED"/>
<stop offset="1" stop-color="#C21B1B"/>
</linearGradient>
<linearGradient id="paint2_linear_20516_9517" x1="21.6339" y1="13.0914" x2="12.5952" y2="26.9123" gradientUnits="userSpaceOnUse">
<stop stop-color="#1E2EED"/>
<stop offset="1" stop-color="#C21B1B"/>
</linearGradient>
<linearGradient id="paint3_linear_20516_9517" x1="17.7721" y1="1.73586" x2="5.39604" y2="10.4318" gradientUnits="userSpaceOnUse">
<stop stop-color="#1E2EED"/>
<stop offset="1" stop-color="#C21B1B"/>
</linearGradient>
<linearGradient id="paint4_linear_20516_9517" x1="7.73544" y1="8.30527" x2="11.3956" y2="2.71429" gradientUnits="userSpaceOnUse">
<stop stop-color="#AA0707"/>
<stop offset="0.791667" stop-color="#F44238"/>
</linearGradient>
<linearGradient id="paint5_linear_20516_9517" x1="9.24592" y1="2.98389" x2="12.0855" y2="8.44586" gradientUnits="userSpaceOnUse">
<stop stop-color="#1E2EED"/>
<stop offset="1" stop-color="#C21B1B"/>
</linearGradient>
</defs>
</svg>
