<svg width="16" height="16" viewBox="0 0 16 16" fill="none" xmlns="http://www.w3.org/2000/svg">
<path d="M7 7.98322C7 7.37579 7.44771 6.88338 8 6.88338C8.55228 6.88338 9 7.37579 9 7.98322V11.2828C9 11.8902 8.55228 12.3826 8 12.3826C7.44771 12.3826 7 11.8902 7 11.2828V7.98322Z" fill="#546B8F"/>
<path d="M8 5.74084C7.44771 5.74084 7 5.29313 7 4.74084C7 4.18856 7.44771 3.74084 8 3.74084C8.55228 3.74084 9 4.18856 9 4.74084C9 5.29313 8.55228 5.74084 8 5.74084Z" fill="#546B8F"/>
<path fill-rule="evenodd" clip-rule="evenodd" d="M8 0C6.41775 0 4.87103 0.469192 3.55544 1.34824C2.23985 2.22729 1.21447 3.47672 0.608967 4.93853C0.00346625 6.40034 -0.15496 8.00887 0.153721 9.56072C0.462403 11.1126 1.22433 12.538 2.34315 13.6569C3.46197 14.7757 4.88743 15.5376 6.43928 15.8463C7.99113 16.155 9.59966 15.9965 11.0615 15.391C12.5233 14.7855 13.7727 13.7602 14.6518 12.4446C15.5308 11.129 16 9.58225 16 8C16 5.87827 15.1571 3.84344 13.6569 2.34315C12.1566 0.842855 10.1217 0 8 0ZM8 14.5185C6.70971 14.5185 5.44845 14.1109 4.37595 13.3935C3.30346 12.6762 2.46799 11.6566 1.97535 10.4641C1.48271 9.27156 1.35508 7.95964 1.6086 6.6945C1.86213 5.42936 2.48541 4.26792 3.39952 3.35728C4.31362 2.44664 5.47742 1.82777 6.74351 1.57904C8.0096 1.33032 9.32102 1.46294 10.5117 1.9601C11.7024 2.45726 12.7187 3.29659 13.432 4.3718C14.1453 5.44701 14.5234 6.70972 14.5185 8C14.5185 9.72882 13.8317 11.3868 12.6093 12.6093C11.3868 13.8317 9.72882 14.5185 8 14.5185Z" fill="#546B8F"/>
</svg>
