<svg width="16" height="14" viewBox="0 0 16 14" fill="none" xmlns="http://www.w3.org/2000/svg">
<path d="M1.74302 7.00971C1.25595 6.52243 0.915811 5.90613 0.758079 5.2251C0.600348 4.54407 0.630805 3.82327 0.846272 3.13788C1.06174 2.45249 1.45432 1.82763 1.98307 1.32849C2.51181 0.829348 3.15735 0.474209 3.85233 0.300122C4.54731 0.126034 5.26627 0.139377 5.93422 0.338758C6.60216 0.538139 7.19462 0.916252 7.64977 1.43365C8.10493 1.95106 8.40611 2.58879 8.5219 3.28033C8.63768 3.97186 8.56384 4.69186 8.30806 5.36522L14.015 11.0721L13.9503 13.4703L11.5521 13.535L11.5953 11.9362L9.99647 11.9794L10.0396 10.3806L8.44081 10.4237L8.48394 8.82491L6.88516 8.86803L5.8452 7.82808C5.133 8.09861 4.36945 8.16532 3.64329 8.02045C2.91713 7.87559 2.25818 7.52509 1.74302 7.00971ZM3.01757 4.1795C3.22386 4.38579 3.5082 4.49714 3.80803 4.48905C4.10786 4.48097 4.39862 4.3541 4.61635 4.13637C4.83408 3.91864 4.96095 3.62788 4.96903 3.32805C4.97712 3.02822 4.86577 2.74388 4.65948 2.53759C4.45318 2.3313 4.16885 2.21995 3.86902 2.22803C3.56919 2.23612 3.27843 2.36298 3.0607 2.58071C2.84296 2.79844 2.7161 3.08921 2.70801 3.38904C2.69993 3.68887 2.81128 3.9732 3.01757 4.1795Z" fill="#005BFB"/>
<path d="M9.72781 1.20008C9.72781 0.868712 9.99644 0.600082 10.3278 0.600082H14.6387C14.9701 0.600082 15.2387 0.868712 15.2387 1.20008C15.2387 1.53145 14.9701 1.80008 14.6387 1.80008H10.3278C9.99644 1.80008 9.72781 1.53145 9.72781 1.20008Z" fill="#005BFB"/>
<path d="M9.72781 3.45536C9.72781 3.12399 9.99644 2.85536 10.3278 2.85536H14.6387C14.9701 2.85536 15.2387 3.12399 15.2387 3.45536C15.2387 3.78673 14.9701 4.05536 14.6387 4.05536H10.3278C9.99644 4.05536 9.72781 3.78673 9.72781 3.45536Z" fill="#005BFB"/>
<path d="M11.7981 5.71053C11.7981 5.37916 12.0668 5.11053 12.3981 5.11053H14.6387C14.9701 5.11053 15.2387 5.37916 15.2387 5.71053C15.2387 6.0419 14.9701 6.31053 14.6387 6.31053H12.3981C12.0668 6.31053 11.7981 6.0419 11.7981 5.71053Z" fill="#005BFB"/>
</svg>
