<svg width="52" height="52" viewBox="0 0 52 52" fill="none" xmlns="http://www.w3.org/2000/svg">
<rect x="0.464355" y="0.464355" width="51.0714" height="51.0714" rx="6" fill="#F44238"/>
<path d="M31.5029 14.3931H37.201C37.4257 14.3931 37.6073 14.5762 37.6073 14.8027V20.3065C37.6095 20.533 37.4301 20.7184 37.2054 20.7206H37.201H35.589C35.3644 20.7206 35.1827 20.5374 35.1827 20.311V18.6114L18.0035 35.1629H21.5369C21.7616 35.1629 21.9432 35.3461 21.9432 35.5725V37.1977C21.9432 37.4242 21.7616 37.6074 21.5369 37.6074H14.7994C14.5747 37.6074 14.3931 37.4242 14.3931 37.1977V35.1707L33.4342 16.8353H31.5029C31.2783 16.8353 31.0966 16.6521 31.0966 16.4256V14.8027C31.0966 14.5762 31.2783 14.3931 31.5029 14.3931ZM16.8155 16.7731H27.6403C27.8649 16.7731 28.0466 16.5899 28.0466 16.3635V14.8027C28.0466 14.5773 27.866 14.3942 27.6425 14.3931H14.7994C14.5747 14.3931 14.3931 14.5762 14.3931 14.8027V20.3731C14.3931 20.5996 14.5747 20.7828 14.7994 20.7828H16.4114C16.6349 20.7817 16.8155 20.5985 16.8155 20.3731V16.7731ZM35.1827 35.1629H25.3907C25.1661 35.1629 24.9844 35.3461 24.9844 35.5725V37.1977C24.9844 37.4242 25.1661 37.6074 25.3907 37.6074H37.201C37.4257 37.6074 37.6073 37.4242 37.6073 37.1977V31.453C37.6062 31.2265 37.4257 31.0445 37.201 31.0434H35.589C35.3644 31.0434 35.1827 31.2265 35.1827 31.453V35.1629Z" fill="white"/>
</svg>
