<svg width="126" height="25" viewBox="0 0 126 25" fill="none" xmlns="http://www.w3.org/2000/svg">
<path d="M0.928467 23.745V20.8616L11.6434 10.8129H4.12815V12.788H1.10182V8.06104H15.6755V10.9444L5.04905 20.9355H12.8243V18.9261H15.8507V23.745H0.928467ZM25.2421 24.064C24.1469 24.0684 23.0624 23.8495 22.055 23.4206C20.089 22.6004 18.5261 21.0399 17.7051 19.0775C17.2821 18.0705 17.0642 16.9895 17.0642 15.8976C17.0642 14.8057 17.2821 13.7247 17.7051 12.7177C18.5268 10.7562 20.0896 9.19651 22.055 8.37641C23.0643 7.95412 24.1477 7.73664 25.2421 7.73664C26.3364 7.73664 27.4199 7.95412 28.4291 8.37641C30.3946 9.19651 31.9573 10.7562 32.779 12.7177C33.2009 13.725 33.4182 14.8059 33.4182 15.8976C33.4182 16.9893 33.2009 18.0702 32.779 19.0775C31.958 21.0399 30.3951 22.6004 28.4291 23.4206C27.4217 23.8493 26.3372 24.0683 25.2421 24.064ZM25.2421 21.0436C25.9036 21.0467 26.5587 20.9143 27.1668 20.6545C27.7749 20.3947 28.3232 20.0132 28.7776 19.5334C29.2208 19.0594 29.5755 18.5101 29.8249 17.9115C30.3498 16.6269 30.3498 15.1882 29.8249 13.9035C29.5736 13.3025 29.2137 12.7527 28.7632 12.2816C28.3124 11.8096 27.7732 11.4306 27.176 11.1661C26.5639 10.8975 25.9026 10.7588 25.2339 10.7588C24.5653 10.7588 23.904 10.8975 23.2919 11.1661C22.0954 11.7 21.1557 12.6799 20.6737 13.8963C20.1681 15.1847 20.1681 16.6159 20.6737 17.9043C21.1572 19.1197 22.0964 20.0992 23.2919 20.6345C23.9052 20.9086 24.5702 21.0481 25.2421 21.0436ZM42.8764 24.064C41.7813 24.0684 40.6967 23.8495 39.6894 23.4206C37.7234 22.6004 36.1605 21.0399 35.3395 19.0775C34.9164 18.0705 34.6985 16.9895 34.6985 15.8976C34.6985 14.8057 34.9164 13.7247 35.3395 12.7177C36.1612 10.7562 37.7239 9.19651 39.6894 8.37641C40.6987 7.95412 41.7821 7.73664 42.8764 7.73664C43.9708 7.73664 45.0542 7.95412 46.0635 8.37641C48.0289 9.19651 49.5917 10.7562 50.4134 12.7177C50.8353 13.725 51.0525 14.8059 51.0525 15.8976C51.0525 16.9893 50.8353 18.0702 50.4134 19.0775C49.5924 21.0399 48.0295 22.6004 46.0635 23.4206C45.0561 23.8493 43.9716 24.0683 42.8764 24.064ZM42.8764 21.0436C43.538 21.0472 44.1933 20.915 44.8015 20.6552C45.4097 20.3955 45.9579 20.0136 46.412 19.5334C46.8552 19.0594 47.2099 18.5101 47.4593 17.9115C47.9841 16.6269 47.9841 15.1882 47.4593 13.9035C47.208 13.3025 46.8481 12.7527 46.3975 12.2816C45.9468 11.8096 45.4075 11.4306 44.8103 11.1661C44.1975 10.8967 43.5352 10.7576 42.8656 10.7576C42.196 10.7576 41.5337 10.8967 40.9209 11.1661C39.7244 11.7 38.7846 12.6799 38.3026 13.8963C37.797 15.1847 37.797 16.6159 38.3026 17.9043C38.7853 19.1211 39.7247 20.1019 40.9209 20.6381C41.536 20.9117 42.203 21.05 42.8764 21.0436ZM52.9161 8.06825H56.0291V9.87038C56.5085 9.21539 57.1366 8.68305 57.8618 8.31694C58.6765 7.9187 59.575 7.72155 60.4819 7.74206C61.7423 7.74206 62.7848 7.98235 63.6094 8.46291C64.4249 8.93788 65.079 9.64596 65.4873 10.4957C65.9924 9.66209 66.7037 8.97202 67.553 8.49175C68.4865 7.97533 69.5411 7.71656 70.6082 7.74206C71.5602 7.72224 72.5076 7.87993 73.4016 8.20701C74.1603 8.48889 74.8411 8.94658 75.3879 9.54239C75.9245 10.1466 76.322 10.8608 76.5525 11.6347C76.8142 12.5208 76.9414 13.4411 76.9299 14.3649V23.745H73.6923V14.5379C73.6923 13.3185 73.4112 12.3405 72.8491 11.604C72.2869 10.8676 71.384 10.4999 70.1405 10.5011C69.015 10.5011 68.1176 10.8615 67.4482 11.5824C66.7789 12.3033 66.4443 13.3845 66.4443 14.8262V23.745H63.2753V14.3343C63.2753 13.1328 62.999 12.1939 62.4465 11.5175C61.894 10.8411 61.0158 10.5023 59.812 10.5011C58.6467 10.5011 57.73 10.8742 57.0619 11.6202C56.3938 12.3663 56.0592 13.4842 56.058 14.974V23.745H52.9161V8.06825ZM78.8674 3.36469C78.8588 3.07004 78.9096 2.77667 79.017 2.50205C79.1243 2.22743 79.2859 1.97718 79.4922 1.7662C79.6978 1.55612 79.9449 1.39095 80.2178 1.28113C80.4907 1.17132 80.7835 1.11926 81.0776 1.12825C81.378 1.11625 81.6776 1.16677 81.9574 1.2766C82.2372 1.38643 82.491 1.55316 82.7027 1.7662C82.909 1.97718 83.0706 2.22743 83.1779 2.50205C83.2853 2.77667 83.3361 3.07004 83.3275 3.36469C83.3362 3.65908 83.2853 3.95219 83.178 4.22653C83.0707 4.50087 82.909 4.75079 82.7027 4.96138C82.4911 5.17474 82.2374 5.34181 81.9576 5.45195C81.6778 5.5621 81.3781 5.6129 81.0776 5.60113C80.7808 5.61293 80.4849 5.56204 80.2092 5.4518C79.9335 5.34155 79.6842 5.17443 79.4777 4.96138C79.2744 4.74786 79.1157 4.49607 79.0109 4.2207C78.9062 3.94532 78.8574 3.65188 78.8674 3.35748V3.36469ZM79.5066 8.06825H82.6792V23.7468H79.5066V8.06825ZM85.4112 8.06825H88.4953V10.2398C89.061 9.44629 89.8132 8.80354 90.686 8.36803C91.5587 7.93251 92.5253 7.71756 93.5007 7.74206C94.4205 7.72972 95.3342 7.89241 96.193 8.22143C96.9652 8.51931 97.661 8.98537 98.2298 9.58564C98.8045 10.2146 99.2406 10.9568 99.5101 11.7644C99.8201 12.6938 99.9721 13.6684 99.9597 14.6478V23.745H96.7889V14.8875C96.7889 13.5503 96.4494 12.4853 95.7705 11.6923C95.0915 10.8994 94.0924 10.5023 92.773 10.5011C92.1994 10.4958 91.6305 10.6043 91.0992 10.8201C90.5939 11.0285 90.1381 11.3404 89.7611 11.7356C89.3691 12.1541 89.0674 12.6485 88.8746 13.1881C88.6535 13.7973 88.5446 14.4414 88.5531 15.0893V23.7396H85.4112V8.06825ZM100.37 8.06825H103.105V7.16718C103.084 6.147 103.186 5.12797 103.41 4.1324C103.57 3.40885 103.922 2.74152 104.429 2.20051C104.96 1.68398 105.624 1.32518 106.348 1.16429C107.346 0.94052 108.368 0.838255 109.391 0.85973H110.147V3.76296H109.622C109.014 3.75296 108.406 3.79213 107.804 3.8801C107.414 3.92508 107.05 4.09889 106.771 4.37388C106.517 4.67 106.356 5.03307 106.305 5.41912C106.218 6.00544 106.179 6.59795 106.189 7.19061V8.06104H109.882V10.8796H106.189V23.745H103.105V10.8796H100.37V8.06825ZM117.704 24.0712C116.605 24.0755 115.517 23.854 114.508 23.4206C112.556 22.5944 111.002 21.0435 110.174 19.0955C109.751 18.086 109.534 17.0027 109.534 15.9084C109.534 14.8142 109.751 13.7308 110.174 12.7213C110.996 10.7651 112.551 9.20704 114.508 8.38002C115.52 7.95772 116.606 7.74025 117.702 7.74025C118.799 7.74025 119.885 7.95772 120.897 8.38002C122.862 9.20054 124.425 10.7609 125.247 12.7231C125.668 13.7327 125.885 14.8156 125.885 15.9093C125.885 17.0031 125.668 18.086 125.247 19.0955C124.418 21.0488 122.857 22.6012 120.897 23.4206C119.889 23.8493 118.805 24.0683 117.71 24.064L117.704 24.0712ZM117.704 21.1373C118.388 21.1436 119.064 21.0054 119.69 20.7318C120.292 20.4677 120.836 20.0874 121.29 19.6127C121.752 19.1337 122.119 18.5725 122.374 17.9583C122.765 16.9971 122.871 15.9438 122.679 14.9241C122.487 13.9044 122.005 12.9615 121.29 12.2077C120.832 11.7318 120.283 11.352 119.676 11.0904C119.048 10.8217 118.373 10.6831 117.69 10.6831C117.007 10.6831 116.331 10.8217 115.703 11.0904C115.102 11.3541 114.558 11.7338 114.104 12.2077C113.648 12.6877 113.291 13.2522 113.053 13.8693C112.55 15.1829 112.55 16.6357 113.053 17.9493C113.296 18.5644 113.658 19.1263 114.116 19.6037C114.57 20.0788 115.114 20.4592 115.716 20.7228C116.344 20.9983 117.024 21.1371 117.71 21.1301L117.704 21.1373Z" fill="white"/>
</svg>
