<svg width="16" height="17" viewBox="0 0 16 17" fill="none" xmlns="http://www.w3.org/2000/svg">
<path d="M3.54593 10.169L2.989 12.2481L0.953406 12.2912C0.345062 11.1628 0 9.87186 0 8.49998C0 7.17339 0.322625 5.92239 0.894499 4.82086H0.894937L2.70719 5.15311L3.50106 6.95449C3.3349 7.43889 3.24434 7.95889 3.24434 8.49998C3.2444 9.08723 3.35078 9.64989 3.54593 10.169Z" fill="#FBBB00"/>
<path d="M15.8602 7.00549C15.9521 7.48943 16 7.98921 16 8.49999C16 9.07274 15.9398 9.63143 15.8251 10.1703C15.4356 12.0042 14.4181 13.6055 13.0084 14.7387L13.008 14.7382L10.7253 14.6218L10.4023 12.6051C11.3377 12.0565 12.0687 11.198 12.4537 10.1703H8.1759V7.00549H12.5161H15.8602Z" fill="#518EF8"/>
<path d="M13.0079 14.7382L13.0083 14.7387C11.6373 15.8406 9.89577 16.5 7.99996 16.5C4.95337 16.5 2.30459 14.7971 0.953369 12.2912L3.5459 10.169C4.22149 11.9721 5.96083 13.2556 7.99996 13.2556C8.87643 13.2556 9.69755 13.0187 10.4021 12.605L13.0079 14.7382Z" fill="#28B446"/>
<path d="M13.1114 2.34175L10.5197 4.4635C9.79053 4.00768 8.92853 3.74437 8.00503 3.74437C5.91975 3.74437 4.14788 5.08678 3.50613 6.9545L0.899974 4.82087H0.899536C2.23097 2.25384 4.91316 0.5 8.00503 0.5C9.94612 0.5 11.7259 1.19144 13.1114 2.34175Z" fill="#F14336"/>
</svg>
