<svg viewBox="0 0 1000 1000" xmlns="http://www.w3.org/2000/svg"><path d="m485.813 82.1-79.901-30.374a84.184 84.184 0 0 0-63.206 1.368l-18.494 7.963 128.702 109.328z" fill="#ffce07" class="fill-edbc64"></path><path d="m486.917 78.097-17.083-6.494-34.289-13.035-26.015-9.89a106.982 106.982 0 0 0-11.892-3.907 89.731 89.731 0 0 0-34.899-1.66 96.615 96.615 0 0 0-24.323 7.343l-15.075 6.49-1.225.528c-2.365 1.018-2.715 4.927-.84 6.52l12.806 10.878 30.75 26.121 37.196 31.597 32.144 27.306c5.197 4.414 10.36 8.874 15.593 13.245l.213.18a4.218 4.218 0 0 0 6.939-1.831l3.272-8.781 7.858-21.087 9.507-25.51 8.217-22.05c1.322-3.548 2.85-7.083 3.986-10.696.017-.054.04-.107.059-.16a4.172 4.172 0 0 0-2.9-5.107 4.264 4.264 0 0 0-5.107 2.9l-3.272 8.781-7.858 21.087-9.507 25.51-8.217 22.05c-1.322 3.549-2.846 7.084-3.986 10.697-.017.053-.04.106-.06.159l6.94-1.832-12.805-10.878-30.75-26.121-37.197-31.597-32.144-27.305-10.584-8.991c-1.663-1.413-3.284-2.915-5.009-4.255-.073-.057-.142-.12-.212-.18l-.84 6.52 12.722-5.478 5.593-2.408c.53-.228-.655.264.428-.181q2.07-.851 4.183-1.594a83.931 83.931 0 0 1 8.107-2.394 72.81 72.81 0 0 1 15.952-2.16q4.191-.135 8.381.148 1.985.134 3.96.362.44.05.879.105c.868.109.402.055.212.028q1.315.187 2.625.415a91.507 91.507 0 0 1 16.806 4.757l23.632 8.984L464.2 78.308c6.713 2.552 13.385 5.366 20.187 7.674.108.036.214.081.32.122a4.17 4.17 0 0 0 5.108-2.9 4.267 4.267 0 0 0-2.9-5.107zM461.608 906.663H563.45V955.5H461.608z" fill="#000000" class="fill-000000"></path><path d="M563.45 951.348h-89.333c-4.088 0-8.245-.222-12.329 0-.06.003-.12 0-.18 0l4.152 4.152v-48.837l-4.152 4.151h89.334c4.088 0 8.245.222 12.329 0 .06-.003.12 0 .18 0l-4.152-4.151V955.5a4.152 4.152 0 0 0 8.303 0v-48.837a4.212 4.212 0 0 0-4.151-4.152h-89.334c-4.103 0-8.228-.126-12.329 0-.06.002-.12 0-.18 0a4.212 4.212 0 0 0-4.152 4.152V955.5a4.212 4.212 0 0 0 4.152 4.152h89.334c4.103 0 8.227.126 12.329 0 .06-.002.12 0 .18 0a4.152 4.152 0 1 0 0-8.304z" fill="#000000" class="fill-000000"></path><path d="M318.075 906.663h101.843v60.152H318.074z" fill="#ffffff" class="fill-ffffff"></path><path d="M419.918 962.664h-89.334c-4.088 0-8.246-.222-12.329 0-.06.003-.12 0-.18 0l4.152 4.152v-60.153l-4.152 4.151h89.334c4.087 0 8.245.222 12.328 0 .06-.003.121 0 .18 0l-4.151-4.151v60.153a4.152 4.152 0 0 0 8.303 0v-60.153a4.212 4.212 0 0 0-4.152-4.152h-89.333c-4.103 0-8.228-.126-12.329 0-.06.002-.12 0-.18 0a4.212 4.212 0 0 0-4.152 4.152v60.153a4.212 4.212 0 0 0 4.152 4.151h89.334c4.102 0 8.227.126 12.328 0 .06-.002.12 0 .18 0a4.152 4.152 0 1 0 0-8.303z" fill="#000000" class="fill-000000"></path><path d="M525.93 906.663h101.843v60.152H525.93z" fill="#ffffff" class="fill-ffffff"></path><path d="M627.773 962.664h-89.334c-4.088 0-8.245-.222-12.329 0-.06.003-.12 0-.18 0l4.151 4.152v-60.153l-4.151 4.151h89.333c4.088 0 8.246.222 12.33 0 .06-.003.12 0 .18 0l-4.152-4.151v60.153a4.152 4.152 0 0 0 8.303 0v-60.153a4.212 4.212 0 0 0-4.151-4.152h-89.334c-4.103 0-8.228-.126-12.329 0-.06.002-.12 0-.18 0a4.212 4.212 0 0 0-4.152 4.152v60.153a4.212 4.212 0 0 0 4.152 4.151h89.333c4.103 0 8.228.126 12.33 0 .06-.002.12 0 .18 0a4.152 4.152 0 1 0 0-8.303zM653.978 906.663H755.82V955.5H653.978z" fill="#000000" class="fill-000000"></path><path d="M755.821 951.348h-89.334c-4.087 0-8.245-.222-12.328 0-.06.003-.121 0-.181 0l4.152 4.152v-48.837l-4.152 4.151h89.334c4.088 0 8.245.222 12.329 0 .06-.003.12 0 .18 0l-4.151-4.151V955.5a4.152 4.152 0 0 0 8.303 0v-48.837a4.212 4.212 0 0 0-4.152-4.152h-89.334c-4.102 0-8.227-.126-12.328 0-.06.002-.12 0-.181 0a4.212 4.212 0 0 0-4.152 4.152V955.5a4.212 4.212 0 0 0 4.152 4.152h89.334c4.102 0 8.227.126 12.328 0 .06-.002.12 0 .181 0a4.152 4.152 0 1 0 0-8.304z" fill="#000000" class="fill-000000"></path><path d="m771.306 725.013-90.803-139.216H497.916l-91.293 145.841v129.91h365.13z" fill="#ffce07" class="fill-edbc64"></path><path d="m774.89 722.917-8.74-13.4-21.093-32.34-25.858-39.644-22.71-34.82-11.972-18.353c-.953-1.46-2.084-2.607-4.015-2.715-.36-.02-.728 0-1.088 0H501.389c-2.6 0-5.344-.442-7.058 2.056-2.92 4.257-5.503 8.791-8.241 13.166l-20.079 32.075-24.946 39.85-22.844 36.494-13.774 22.005c-.933 1.489-1.884 2.696-1.976 4.54-.12 2.393 0 4.825 0 7.22v122.497a4.212 4.212 0 0 0 4.152 4.152H756.93c4.731 0 9.47.08 14.2 0 .207-.004.415 0 .622 0a4.21 4.21 0 0 0 4.151-4.152l-.044-13.575-.107-32.6-.129-39.445-.111-34.103c-.019-5.513.167-11.07-.055-16.579-.003-.077 0-.155 0-.233-.018-5.342-8.321-5.353-8.304 0l.045 13.574.106 32.601.13 39.445.11 34.103.037 11.202c.006 1.771-.13 3.61.018 5.376.007.077 0 .157 0 .234l4.153-4.152H421.444c-4.722 0-9.48-.17-14.2 0-.207.008-.415 0-.621 0l4.151 4.152V736.943c0-1.67.14-3.411 0-5.078-.006-.075 0-.152 0-.227l-.567 2.095 9.077-14.5 21.8-34.824 26.374-42.133 22.803-36.427 7.516-12.007c1.18-1.885 2.514-3.74 3.568-5.7.046-.086.104-.167.156-.25l-3.585 2.057H673.11c2.34 0 4.747.163 7.083 0 .102-.007.207 0 .31 0l-3.585-2.056 9.052 13.877 21.729 33.314 26.173 40.128 22.634 34.701c3.683 5.647 7.255 11.388 11.059 16.955.054.079.104.16.156.24 2.908 4.459 10.1.303 7.17-4.19z" fill="#000000" class="fill-000000"></path><path d="m653.872 731.638-91.293-145.841H379.992l-91.293 145.841v129.91h365.13z" fill="#ffce07" class="fill-edbc64"></path><path d="m657.457 729.542-8.417-13.447-20.355-32.516-25.257-40.349-22.817-36.45-13.361-21.344c-1.216-1.942-2.206-3.695-4.931-3.79-1.95-.069-3.915 0-5.866 0H396.552c-5.477 0-11.04-.285-16.512 0-2.86.148-3.901 2.486-5.204 4.566l-5.535 8.843-19.599 31.308-25.122 40.133-23.381 37.352-14.4 23.003c-.954 1.523-2.157 2.99-2.252 4.853-.11 2.172 0 4.379 0 6.553v123.29a4.212 4.212 0 0 0 4.152 4.153h350.308c4.732 0 9.47.08 14.201 0 .207-.004.414 0 .621 0a4.212 4.212 0 0 0 4.152-4.152l.004-12.863.01-31.086.012-37.449.011-32.536c.002-5.236.201-10.515.006-15.749-.003-.075 0-.151 0-.227.001-5.343-8.302-5.352-8.304 0l-.004 12.863-.01 31.086-.013 37.45-.01 32.535-.004 10.67c0 1.674-.132 3.409-.002 5.08.006.074 0 .151 0 .226l4.152-4.151H303.521c-4.723 0-9.481-.17-14.201 0-.207.007-.414 0-.621 0l4.152 4.151V736.943c0-1.67.14-3.411 0-5.078-.007-.075 0-.152 0-.227l-.567 2.095 9.077-14.5 21.799-34.824 26.374-42.133 22.803-36.427 7.516-12.007c1.18-1.885 2.515-3.74 3.568-5.7.046-.086.105-.167.156-.25l-3.585 2.057h175.194c2.34 0 4.747.163 7.083 0 .103-.007.208 0 .31 0l-3.584-2.056 9.076 14.5 21.799 34.824 26.375 42.133 22.802 36.427c3.691 5.896 7.249 11.904 11.085 17.707.053.082.104.166.155.249 2.83 4.52 10.017.356 7.17-4.19z" fill="#000000" class="fill-000000"></path><circle cx="471.137" cy="729.182" fill="#ffffff" r="106.012" class="fill-ffffff"></circle><path d="M572.997 729.182q-.007 4.205-.328 8.4-.162 2.07-.405 4.134c-.04.342-.084.684-.126 1.026-.14 1.153.134-.887-.035.26-.1.679-.198 1.358-.307 2.035a105.39 105.39 0 0 1-3.804 15.785q-1.237 3.812-2.761 7.523c-.062.149-.5 1.182-.095.235l-.395.916q-.399.912-.815 1.817-.83 1.806-1.727 3.58a106.032 106.032 0 0 1-8.167 13.525q-1.14 1.605-2.34 3.168c.617-.807-.398.502-.563.71q-.716.897-1.45 1.778-2.518 3.02-5.253 5.85-2.732 2.826-5.667 5.446-1.467 1.309-2.982 2.563-.631.523-1.27 1.036-.384.308-.77.612l-.517.405q.612-.472.061-.049a110.355 110.355 0 0 1-13.218 8.61q-3.48 1.914-7.095 3.563-.907.413-1.82.809c-.148.064-1.183.497-.232.102l-.615.255q-2.004.824-4.042 1.564a105.287 105.287 0 0 1-15.569 4.34q-1.842.363-3.697.662c-.677.108-1.356.207-2.034.306-1.148.17.893-.105-.26.035-.457.056-.913.114-1.37.166q-4.145.475-8.32.624a107.356 107.356 0 0 1-16.748-.705c-.285-.034-.57-.072-.855-.107-.692-.084 1.017.15-.089-.013-.678-.1-1.357-.198-2.035-.306q-2.19-.352-4.364-.796-3.978-.813-7.886-1.93-3.867-1.107-7.642-2.506-1.72-.637-3.415-1.334c-.149-.062-1.183-.5-.236-.095l-.915-.395q-.989-.432-1.968-.884a105.866 105.866 0 0 1-13.698-7.601q-3.296-2.162-6.424-4.564c.807.617-.07-.058-.195-.156q-.387-.305-.77-.612-.768-.616-1.523-1.246-1.51-1.259-2.974-2.572a106.685 106.685 0 0 1-10.885-11.33q-.627-.757-1.24-1.526c-.205-.256-.407-.515-.61-.772-.688-.868.513.686-.154-.198a126.384 126.384 0 0 1-2.33-3.175q-2.276-3.225-4.308-6.612-2.038-3.398-3.818-6.94-.892-1.777-1.717-3.586-.344-.755-.676-1.516-.2-.456-.395-.915c.418.976-.15-.369-.22-.544a105.264 105.264 0 0 1-4.912-15.321q-.946-3.976-1.582-8.017a114.58 114.58 0 0 1-.3-2.037c.147 1.056-.01-.096-.03-.26q-.054-.429-.104-.857-.25-2.15-.412-4.31a107.54 107.54 0 0 1 .055-16.8q.155-1.896.377-3.787c.04-.342.085-.684.126-1.026.14-1.153-.134.887.035-.26.116-.792.232-1.583.362-2.373q.66-4.029 1.632-7.998a109.37 109.37 0 0 1 5.004-15.28c.424-1.04-.35.794.099-.234l.33-.761q.367-.836.749-1.666.899-1.956 1.877-3.874 1.8-3.528 3.86-6.914 2.05-3.371 4.347-6.584 1.05-1.468 2.15-2.9c-.617.807.058-.07.156-.195q.304-.387.612-.77.718-.895 1.456-1.774a106.692 106.692 0 0 1 10.954-11.262q1.349-1.196 2.737-2.346.757-.627 1.526-1.24c.257-.205.515-.407.773-.61.648-.514-.527.39.328-.253a114.355 114.355 0 0 1 6.309-4.445 105.853 105.853 0 0 1 13.874-7.629q.906-.413 1.82-.809c.148-.064 1.182-.498.232-.102q.46-.192.922-.381 1.854-.755 3.734-1.439 3.783-1.375 7.664-2.458 3.915-1.093 7.905-1.88 2.01-.398 4.035-.717a114.58 114.58 0 0 1 2.037-.3c-.147.02-.877.111-.08.013.456-.056.912-.114 1.369-.166a107.411 107.411 0 0 1 16.763-.597q4.164.177 8.306.678c.342.041.683.085 1.025.129-1.056-.136.093.015.258.04q1.018.146 2.033.312 2.02.332 4.026.742a105.286 105.286 0 0 1 15.529 4.435c1.198.444 2.385.917 3.569 1.398.212.086.92.39.081.031q.459.196.916.395 1.064.465 2.118.954 3.601 1.669 7.07 3.605 3.451 1.927 6.752 4.107 1.508.996 2.982 2.043.803.57 1.595 1.156.396.292.79.588c.148.112 1.287.992.461.348a108.105 108.105 0 0 1 11.66 10.534q2.716 2.843 5.217 5.882.573.696 1.134 1.402l.508.644c.687.867-.513-.686.153.198a125.224 125.224 0 0 1 2.52 3.444 106.008 106.008 0 0 1 8.085 13.58q.812 1.63 1.568 3.29.413.906.81 1.82c.063.148.497 1.182.102.231q.255.615.506 1.232 1.5 3.719 2.715 7.545a105.52 105.52 0 0 1 3.68 15.653q.145.933.274 1.868c-.147-1.055.01.096.03.261q.064.514.123 1.027.226 1.979.379 3.965c.21 2.738.31 5.482.314 8.227a4.152 4.152 0 1 0 8.304 0 110.28 110.28 0 0 0-20.29-63.694 110.146 110.146 0 0 0-120.187-42.246 110.175 110.175 0 0 0-15.406 206.175 111.53 111.53 0 0 0 68.146 7.635 110.176 110.176 0 0 0 86.346-90.484 115.29 115.29 0 0 0 1.39-17.386 4.152 4.152 0 0 0-8.302 0z" fill="#000000" class="fill-000000"></path><circle cx="471.137" cy="729.182" r="31.565" fill="#000000" class="fill-000000"></circle><path d="M498.55 729.182c-.004.76-.027 1.518-.08 2.276-.03.404-.07.806-.11 1.209-.008.082-.074.661-.01.132.074-.605-.055.35-.075.467a31.443 31.443 0 0 1-1.122 4.598c-.224.69-.511 1.355-.744 2.04-.151.445.078-.183.097-.226-.092.201-.179.405-.271.606q-.243.526-.505 1.043a31.479 31.479 0 0 1-2.377 3.948q-.331.47-.68.926c.436-.575.052-.076-.166.187q-.785.945-1.641 1.828-.74.764-1.532 1.478-.425.384-.865.752c-.238.2-.965.766-.312.272a32.353 32.353 0 0 1-3.852 2.515q-.94.52-1.915.976c-.3.14-1.14.482-.377.182-.413.163-.825.33-1.244.48a31.43 31.43 0 0 1-4.54 1.265q-.503.1-1.008.183c-.225.038-.451.07-.677.105.045-.007.738-.079.25-.039-.81.067-1.613.155-2.426.186a40.462 40.462 0 0 1-4.887-.186c-.49-.04.205.032.25.039-.226-.035-.452-.067-.678-.105q-.505-.083-1.007-.183-1.245-.247-2.467-.596-1.048-.298-2.074-.669c-.314-.113-.624-.235-.935-.355-.723-.28-.062-.025.07.034-.202-.09-.404-.178-.605-.27a31.527 31.527 0 0 1-4.04-2.236c-.597-.39-1.166-.815-1.747-1.227-.488-.347.508.447.064.045-.12-.11-.255-.207-.38-.31q-.505-.42-.992-.858a31.778 31.778 0 0 1-3.067-3.18c-.208-.25-.762-.96-.273-.313a35.131 35.131 0 0 1-.679-.926q-.664-.94-1.258-1.927-.554-.918-1.044-1.873-.264-.516-.51-1.04c-.07-.15-.137-.303-.207-.453-.448-.966.17.502-.037-.079a43.683 43.683 0 0 1-1.389-4.305q-.282-1.157-.477-2.332c-.058-.357-.117-1.005-.046-.256-.044-.46-.1-.918-.136-1.378a31.955 31.955 0 0 1 0-4.9c.031-.404.083-.805.116-1.207.04-.489-.031.205-.038.25.026-.17.05-.339.077-.508q.202-1.26.504-2.502a43.701 43.701 0 0 1 1.39-4.305c.204-.572-.302.616-.03.073.073-.148.135-.304.204-.454q.242-.526.505-1.043.521-1.03 1.118-2.02.551-.917 1.164-1.794c.22-.314.453-.617.675-.93.27-.38-.12.16-.148.192.176-.208.343-.425.519-.634a31.832 31.832 0 0 1 3.067-3.18q.426-.384.866-.752c.238-.2.968-.772.311-.273q.915-.696 1.878-1.326a31.527 31.527 0 0 1 4.04-2.234c.15-.07.306-.13.454-.205.542-.271-.646.235-.073.03.313-.112.62-.245.933-.36q1.18-.434 2.392-.772 1.06-.296 2.139-.516.584-.12 1.173-.218c.17-.028.34-.05.508-.079.618-.105-.707.065-.08.013a40.299 40.299 0 0 1 4.888-.186 40.92 40.92 0 0 1 2.254.166c.192.019.813.118-.079-.018.17.026.34.05.509.077q.674.108 1.342.245a31.337 31.337 0 0 1 4.375 1.23c.365.133.723.288 1.09.418.445.159-.185-.078-.225-.097.2.092.404.179.605.272q1.052.484 2.065 1.045a32.394 32.394 0 0 1 3.853 2.515c-.576-.435-.077-.05.186.168q.441.366.869.748.916.817 1.768 1.704.737.769 1.421 1.585c.144.172.847 1.072.273.312.23.306.458.614.679.927a31.494 31.494 0 0 1 2.376 3.947q.262.518.505 1.044c.146.315.38.905.112.226.307.778.603 1.556.858 2.353a31.365 31.365 0 0 1 1.07 4.44c.038.225.07.45.105.677-.007-.046-.078-.74-.038-.25.033.402.085.803.116 1.206.062.815.09 1.632.094 2.45a4.152 4.152 0 1 0 8.303 0 35.712 35.712 0 0 0-71.326-2.624 35.528 35.528 0 0 0 4.965 20.981 35.708 35.708 0 0 0 65.842-12.404 40.423 40.423 0 0 0 .519-5.953 4.152 4.152 0 0 0-8.303 0z" fill="#000000" class="fill-000000"></path><circle cx="471.137" cy="656.522" r="13.103" fill="#000000" class="fill-000000"></circle><path d="M480.088 656.522c-.005.347-.033.693-.04 1.04-.028 1.102.217-.815-.03.248-.127.545-.237 1.088-.409 1.623-.005.018-.348 1.052-.134.435.21-.602-.177.371-.194.404a17.908 17.908 0 0 1-1.003 1.68c-.568.885.578-.572-.15.186-.15.155-.286.324-.436.48q-.335.353-.696.68c-.13.119-.982.768-.164.175a14.204 14.204 0 0 1-1.367.886c-.238.134-.483.252-.725.379-.93.487.398-.066-.377.15-.538.15-1.06.333-1.607.45-.198.042-1.274.136-.237.063-.23.016-.457.041-.687.053a15.551 15.551 0 0 1-2.078-.053c.156.012.86.168.094.002-.438-.095-.874-.184-1.305-.31-.212-.063-.42-.145-.633-.204-1.026-.285.716.4-.229-.08-.488-.248-.97-.493-1.434-.785-.276-.174-.538-.364-.806-.552.698.49.223.178.08.041-.494-.472-.96-1.069-1.48-1.5-.45-.373.488.77-.046-.06-.176-.274-.364-.54-.532-.82a12.884 12.884 0 0 1-.75-1.455c.41.941-.163-.61-.236-.884-.088-.326-.146-.656-.222-.984-.215-.932-.006.64-.028-.248-.016-.64-.054-1.268-.012-1.908.017-.249.143-1.018-.017-.087.057-.333.118-.664.197-.993.13-.542.31-1.062.488-1.59-.32.948.02-.035.11-.213q.219-.44.47-.86c.168-.282.352-.549.532-.82.417-.63.038-.05-.059.063a15.79 15.79 0 0 1 1.342-1.41c.16-.145.327-.282.491-.423-.758.653.05-.022.205-.125a16.529 16.529 0 0 1 1.707-.962c.876-.444-.499.047.074-.023a5.535 5.535 0 0 0 .788-.26 14.395 14.395 0 0 1 1.64-.368c-1.046.178.072.015.258.006q.522-.028 1.045-.014c.23.006.46.026.691.036q.727.075-.086-.028.334.053.665.123c.658.139 1.275.38 1.918.562-.761-.216-.3-.144-.082-.034.39.198.78.39 1.156.614.234.14.456.295.686.44.878.553-.251-.305.319.242.472.452.923.904 1.376 1.376.726.758-.42-.7.15.184.176.275.364.54.532.82s.324.568.47.86c.107.215.36 1.099.11.215.182.643.423 1.26.562 1.917.04.192.148 1.28.063.237.038.462.066.92.072 1.383a4.152 4.152 0 0 0 8.303 0 17.543 17.543 0 0 0-11.51-16.26 17.25 17.25 0 0 0-18.816 5.021 17.236 17.236 0 0 0 16.568 28.127c7.991-1.474 13.654-8.933 13.758-16.888a4.152 4.152 0 0 0-8.303 0z" fill="#000000" class="fill-000000"></path><circle cx="471.137" cy="801.842" r="13.103" fill="#000000" class="fill-000000"></circle><path d="M480.088 801.842c-.005.347-.033.693-.04 1.04-.028 1.102.217-.815-.03.248-.127.545-.237 1.088-.409 1.623-.005.017-.348 1.051-.134.435.21-.602-.177.371-.194.404a17.895 17.895 0 0 1-1.003 1.68c-.568.885.578-.572-.15.185-.15.156-.286.325-.436.481q-.335.353-.696.68c-.13.119-.982.768-.164.175a14.184 14.184 0 0 1-1.367.886c-.238.134-.483.252-.725.378-.93.488.398-.065-.377.152-.538.15-1.06.332-1.607.448-.198.042-1.274.137-.237.063-.23.017-.457.042-.687.054a15.551 15.551 0 0 1-2.078-.054c.156.013.86.168.094.003-.438-.095-.874-.184-1.305-.311-.212-.062-.42-.145-.633-.203-1.026-.285.716.4-.229-.08-.488-.248-.97-.493-1.434-.785-.276-.174-.538-.364-.806-.552.698.49.223.178.08.041-.494-.472-.96-1.07-1.48-1.5-.45-.373.488.77-.046-.06-.176-.275-.364-.54-.532-.82a12.876 12.876 0 0 1-.75-1.456c.41.942-.163-.61-.236-.883-.088-.326-.146-.656-.222-.984-.215-.932-.006.64-.028-.248-.016-.64-.054-1.268-.012-1.909.017-.248.143-1.017-.017-.086.057-.333.118-.664.197-.993.13-.542.31-1.062.488-1.59-.32.948.02-.035.11-.213q.219-.44.47-.861c.168-.28.352-.548.532-.82.417-.628.038-.049-.059.064a15.777 15.777 0 0 1 1.342-1.41c.16-.145.327-.282.491-.423-.758.653.05-.022.205-.125a16.528 16.528 0 0 1 1.707-.962c.876-.444-.499.047.074-.023a5.522 5.522 0 0 0 .788-.26 14.395 14.395 0 0 1 1.64-.368c-1.046.178.072.015.258.006q.522-.028 1.045-.014c.23.006.46.026.691.036q.727.075-.086-.028.334.053.665.122c.658.14 1.275.38 1.918.563-.761-.216-.3-.144-.082-.034.39.198.78.39 1.156.614.234.14.456.295.686.44.878.553-.251-.305.319.242.472.452.923.903 1.376 1.375.726.758-.42-.7.15.185.176.275.364.539.532.82s.324.568.47.86c.107.215.36 1.099.11.214.182.644.423 1.26.562 1.918.04.192.148 1.28.063.237.038.462.066.919.072 1.382a4.152 4.152 0 0 0 8.303 0 17.543 17.543 0 0 0-11.51-16.26 17.25 17.25 0 0 0-18.816 5.022 17.236 17.236 0 0 0 16.568 28.127c7.991-1.474 13.654-8.933 13.758-16.888a4.152 4.152 0 0 0-8.303 0z" fill="#000000" class="fill-000000"></path><circle cx="398.477" cy="729.182" r="13.103" fill="#000000" class="fill-000000"></circle><path d="M398.477 720.23c.348.005.693.033 1.04.042 1.102.026-.815-.219.248.028.546.127 1.088.237 1.623.41.018.005 1.052.348.435.133-.602-.209.371.178.404.194a17.928 17.928 0 0 1 1.681 1.003c.884.569-.573-.577.185.15.155.15.324.287.48.436q.353.336.68.697c.119.13.769.982.175.164a14.204 14.204 0 0 1 .886 1.366c.135.238.252.484.379.726.487.93-.066-.399.15.377.15.538.333 1.059.45 1.606.042.198.136 1.275.063.238.016.229.042.457.054.686a15.551 15.551 0 0 1-.054 2.078c.012-.156.168-.86.002-.094-.095.439-.184.874-.31 1.305-.063.212-.145.42-.204.633-.285 1.026.4-.716-.08.23-.248.487-.492.97-.785 1.433-.174.276-.364.539-.551.806.488-.698.178-.222.04-.08-.472.494-1.069.96-1.5 1.48-.373.45.77-.488-.06.046-.274.177-.539.365-.82.532a12.876 12.876 0 0 1-1.455.75c.941-.41-.61.164-.884.237-.326.087-.656.146-.984.221-.932.216.64.007-.248.03-.64.015-1.267.053-1.908.01-.249-.016-1.018-.142-.087.018a15.434 15.434 0 0 1-.992-.197c-.543-.13-1.062-.31-1.59-.488.948.32-.036-.02-.214-.11q-.439-.219-.86-.47c-.281-.168-.549-.352-.82-.532-.629-.417-.05-.038.063.059a15.804 15.804 0 0 1-1.41-1.342c-.145-.16-.282-.327-.423-.491.653.758-.022-.05-.125-.205a16.528 16.528 0 0 1-.962-1.708c-.444-.875.047.5-.023-.073a5.535 5.535 0 0 0-.26-.788 14.395 14.395 0 0 1-.368-1.64c.179 1.046.016-.072.006-.258q-.027-.522-.014-1.045c.006-.23.026-.46.037-.691q.074-.727-.029.086.053-.334.123-.665c.139-.658.38-1.275.562-1.918-.216.761-.144.3-.034.082.198-.39.39-.78.614-1.156.14-.234.296-.456.44-.686.553-.878-.305.251.242-.319.453-.472.904-.923 1.376-1.376.758-.726-.7.42.184-.15.275-.176.54-.364.82-.531s.568-.325.861-.471c.214-.107 1.098-.36.214-.11.643-.182 1.26-.423 1.917-.562.193-.04 1.28-.148.237-.063.462-.037.92-.066 1.383-.072a4.152 4.152 0 0 0 0-8.303 17.543 17.543 0 0 0-16.26 11.51 17.249 17.249 0 0 0 5.021 18.816 17.236 17.236 0 0 0 28.127-16.568c-1.474-7.991-8.933-13.654-16.888-13.758a4.152 4.152 0 0 0 0 8.303z" fill="#000000" class="fill-000000"></path><circle cx="543.797" cy="729.182" r="13.103" fill="#000000" class="fill-000000"></circle><path d="M543.797 720.23c.347.005.693.033 1.04.042 1.102.026-.815-.219.248.028.545.127 1.088.237 1.623.41.018.005 1.052.348.435.133-.602-.209.371.178.404.194a17.914 17.914 0 0 1 1.68 1.003c.885.569-.572-.577.186.15.155.15.324.287.48.436q.353.336.68.697c.119.13.768.982.175.164a14.203 14.203 0 0 1 .886 1.366c.134.238.252.484.379.726.487.93-.066-.399.15.377.15.538.333 1.059.45 1.606.042.198.136 1.275.063.238.016.229.041.457.053.686a15.551 15.551 0 0 1-.053 2.078c.012-.156.168-.86.002-.094-.095.439-.184.874-.31 1.305-.063.212-.145.42-.204.633-.285 1.026.4-.716-.08.23-.248.487-.493.97-.785 1.433-.174.276-.364.539-.551.806.488-.698.177-.222.04-.08-.472.494-1.07.96-1.5 1.48-.373.45.77-.488-.06.046-.274.177-.54.365-.82.532a12.876 12.876 0 0 1-1.455.75c.941-.41-.61.164-.884.237-.326.087-.656.146-.984.221-.932.216.64.007-.248.03-.64.015-1.268.053-1.908.01-.249-.016-1.018-.142-.087.018a15.434 15.434 0 0 1-.993-.197c-.542-.13-1.062-.31-1.59-.488.948.32-.035-.02-.213-.11q-.44-.219-.861-.47c-.28-.168-.548-.352-.82-.532-.628-.417-.049-.038.064.059a15.777 15.777 0 0 1-1.41-1.342c-.145-.16-.282-.327-.423-.491.653.758-.022-.05-.125-.205a16.528 16.528 0 0 1-.962-1.708c-.444-.875.047.5-.023-.073a5.522 5.522 0 0 0-.26-.788 14.416 14.416 0 0 1-.368-1.64c.178 1.046.015-.072.006-.258q-.028-.522-.014-1.045c.006-.23.026-.46.036-.691q.075-.727-.028.086.053-.334.123-.665c.139-.658.38-1.275.562-1.918-.216.761-.144.3-.034.082.198-.39.39-.78.614-1.156.14-.234.295-.456.44-.686.553-.878-.305.251.242-.319.452-.472.904-.923 1.376-1.376.758-.726-.7.42.184-.15.275-.176.539-.364.82-.531s.568-.325.86-.471c.215-.107 1.099-.36.215-.11.643-.182 1.26-.423 1.917-.562.192-.04 1.28-.148.237-.063.462-.037.92-.066 1.383-.072a4.152 4.152 0 0 0 0-8.303 17.543 17.543 0 0 0-16.26 11.51 17.25 17.25 0 0 0 5.021 18.816 17.236 17.236 0 0 0 28.127-16.568c-1.474-7.991-8.933-13.654-16.888-13.758a4.152 4.152 0 0 0 0 8.303z" fill="#000000" class="fill-000000"></path><circle cx="419.759" cy="677.803" r="13.103" fill="#000000" class="fill-000000"></circle><path d="M426.088 671.474c.222.227.44.458.65.699.612.708-.31-.489.098.107a15.168 15.168 0 0 1 1.023 1.685c.073.143.429.943.172.329-.27-.646.105.312.157.469a13.04 13.04 0 0 1 .47 1.862c.165.939-.043-.714.002.034.018.297.04.592.047.89s.002.594-.013.89c-.017.357-.239 1.388.026.165-.118.543-.195 1.088-.345 1.626q-.12.433-.27.857c-.043.122-.094.241-.136.363-.166.483.398-.829.062-.159a15.722 15.722 0 0 1-.895 1.599c-.143.218-.333.425-.458.652.412-.749.354-.44.148-.21-.12.135-.237.273-.36.406a15.683 15.683 0 0 0-1.386 1.305c.052-.075.79-.563.203-.162-.11.075-.218.152-.328.226q-.437.294-.897.551c-.266.149-.54.278-.811.418-.674.349.75-.265.038-.015a15.364 15.364 0 0 1-1.846.544c-.29.062-.591.091-.88.16.08-.019 1.05-.1.344-.06-.127.007-.254.02-.381.027a18.75 18.75 0 0 1-1.909-.027c-.74-.032.986.177-.034-.002q-.44-.077-.875-.184c-.58-.144-1.136-.421-1.713-.551.089.02.906.423.28.108-.117-.058-.235-.113-.35-.172q-.409-.207-.802-.443-.397-.238-.776-.504a3.055 3.055 0 0 0-.323-.234c.348.178.578.466.108.06a13.305 13.305 0 0 1-1.26-1.247c.026.03-.358-.396-.349-.411.012-.019.493.686.241.31-.197-.294-.405-.578-.59-.88q-.24-.39-.453-.797c-.09-.172-.485-1.052-.23-.445.268.64-.114-.337-.158-.47q-.162-.486-.285-.985-.092-.372-.162-.75a3.117 3.117 0 0 0-.084-.504c-.004-.01.088.922.072.471-.023-.64-.077-1.266-.047-1.908.01-.203.123-1.16.017-.463-.106.7.05-.262.09-.456a13.157 13.157 0 0 1 .527-1.85 3.161 3.161 0 0 0 .138-.362c.002-.008-.37.795-.163.397.14-.27.263-.548.409-.815a12.678 12.678 0 0 1 .688-1.121c.04-.058.561-.772.15-.224-.371.496.24-.26.372-.404q.325-.352.674-.68a5.431 5.431 0 0 0 .713-.625c-.002.003-.68.488-.31.24.184-.122.36-.256.545-.378.58-.382 1.266-.62 1.834-1.003.008-.006-.82.311-.394.17.162-.055.321-.122.484-.178q.486-.167.983-.295.496-.127 1-.216c.992-.175-.817.064.162-.012a13.174 13.174 0 0 1 2.035 0c1.003.078-.806-.158.161.012q.504.089 1 .216.498.128.984.295c.162.056.321.123.484.178.504.168-.75-.364-.277-.116a18.962 18.962 0 0 1 1.827 1.023c.11.074.218.151.327.226.735.502-.478-.432-.099-.076.298.28.613.538.905.824a4.152 4.152 0 1 0 5.871-5.871 17.535 17.535 0 0 0-19.761-3.296 17.218 17.218 0 0 0-9.62 16.895 17.237 17.237 0 0 0 31.58 8.098c4.591-6.704 3.39-15.993-2.199-21.697a4.152 4.152 0 0 0-5.871 5.87z" fill="#000000" class="fill-000000"></path><circle cx="522.515" cy="780.56" r="13.103" fill="#000000" class="fill-000000"></circle><path d="M528.845 774.23c.222.228.44.459.649.7.613.708-.309-.49.098.106a15.168 15.168 0 0 1 1.024 1.686c.072.143.429.943.172.329-.27-.647.105.312.157.469a13.026 13.026 0 0 1 .47 1.861c.165.94-.044-.714.002.034.018.297.04.593.046.89s.002.595-.012.891c-.017.357-.24 1.388.025.165-.117.543-.194 1.088-.344 1.625q-.12.433-.27.858c-.043.121-.093.24-.135.362-.167.484.397-.828.062-.158a15.722 15.722 0 0 1-.896 1.598c-.143.218-.332.425-.457.653.411-.75.353-.44.147-.21-.12.134-.236.273-.359.406a15.683 15.683 0 0 0-1.387 1.304c.052-.075.79-.563.203-.162-.11.075-.217.152-.328.226q-.437.294-.897.551c-.266.15-.54.279-.811.419-.674.348.75-.266.038-.016a15.345 15.345 0 0 1-1.846.544c-.29.063-.59.092-.88.16.08-.019 1.05-.1.344-.06-.127.007-.254.02-.38.027a18.75 18.75 0 0 1-1.91-.027c-.74-.032.986.178-.033-.002q-.441-.077-.876-.184c-.58-.144-1.136-.421-1.712-.551.088.02.905.424.279.108-.117-.058-.235-.113-.35-.172q-.409-.207-.802-.443-.396-.238-.775-.504a3.04 3.04 0 0 0-.324-.233c.349.178.578.465.108.058a13.294 13.294 0 0 1-1.26-1.245c.026.029-.359-.397-.349-.412.012-.018.493.686.24.31-.196-.294-.404-.577-.59-.88q-.24-.39-.452-.797c-.09-.172-.485-1.052-.23-.445.268.64-.114-.337-.158-.469q-.162-.487-.285-.986-.092-.372-.163-.75a3.125 3.125 0 0 0-.083-.503c-.004-.01.088.92.072.47-.023-.64-.077-1.266-.047-1.908.01-.202.123-1.16.017-.463-.107.701.05-.262.09-.456a13.147 13.147 0 0 1 .527-1.85 3.18 3.18 0 0 0 .138-.362c.002-.008-.37.795-.163.397.14-.27.263-.548.408-.815a12.707 12.707 0 0 1 .69-1.12c.04-.06.56-.773.15-.224-.373.496.238-.262.37-.405q.325-.352.675-.68a5.431 5.431 0 0 0 .713-.625c-.002.003-.68.489-.31.241.183-.123.36-.257.544-.379.582-.381 1.267-.62 1.835-1.003.008-.005-.82.312-.395.17.163-.055.322-.122.485-.177q.486-.167.983-.295.496-.128 1-.217c.992-.175-.817.064.161-.012a13.2 13.2 0 0 1 2.036 0c1.002.078-.807-.158.16.012q.505.089 1 .217.499.128.985.295c.162.055.321.122.484.177.504.168-.75-.363-.277-.116a18.962 18.962 0 0 1 1.827 1.023c.11.074.218.151.327.226.734.502-.478-.432-.099-.076.297.28.612.538.905.824a4.152 4.152 0 1 0 5.87-5.871 17.535 17.535 0 0 0-19.76-3.296 17.218 17.218 0 0 0-9.62 16.895 17.237 17.237 0 0 0 31.58 8.099c4.591-6.704 3.39-15.993-2.2-21.698a4.152 4.152 0 0 0-5.87 5.871z" fill="#000000" class="fill-000000"></path><circle cx="419.759" cy="780.56" r="13.103" fill="#000000" class="fill-000000"></circle><path d="M413.43 774.23c.226-.222.457-.44.698-.648.708-.613-.489.308.107-.1a15.178 15.178 0 0 1 1.685-1.022c.143-.073.943-.429.329-.172-.646.27.312-.105.469-.157a13.04 13.04 0 0 1 1.861-.47c.94-.166-.713.043.034-.002.297-.018.593-.04.89-.047s.595-.002.892.013c.356.017 1.387.239.164-.026.543.118 1.088.195 1.625.345q.434.12.858.27c.122.043.24.093.363.135.483.167-.829-.397-.159-.061a15.722 15.722 0 0 1 1.599.895c.218.143.424.332.652.457-.749-.41-.44-.353-.21-.147.134.12.273.237.406.36a15.683 15.683 0 0 0 1.304 1.386c-.075-.052-.563-.79-.162-.203.075.11.153.218.227.328q.293.437.55.897c.15.266.279.54.419.811.348.674-.266-.75-.016-.038a15.345 15.345 0 0 1 .544 1.846c.063.29.092.591.16.88-.019-.08-.1-1.05-.06-.344.007.127.02.254.027.381a18.75 18.75 0 0 1-.027 1.909c-.032.74.178-.986-.002.034q-.077.44-.184.875c-.144.58-.42 1.136-.551 1.713.02-.089.424-.906.109-.28-.059.117-.114.235-.173.35q-.207.409-.442.802-.239.397-.505.775a3.04 3.04 0 0 0-.233.324c.178-.349.465-.578.059-.108a13.305 13.305 0 0 1-1.246 1.26c.03-.026-.397.358-.412.349-.018-.012.686-.493.31-.241-.294.197-.577.405-.879.59q-.39.24-.798.452c-.172.09-1.052.486-.445.231.64-.268-.337.114-.469.158q-.487.161-.986.285-.372.092-.75.162a3.125 3.125 0 0 0-.503.084c-.01.004.921-.088.47-.072-.64.022-1.266.077-1.908.047-.202-.01-1.16-.123-.463-.017.701.106-.262-.05-.456-.09a13.16 13.16 0 0 1-1.85-.527 3.161 3.161 0 0 0-.362-.138c-.008-.002.795.37.397.163-.269-.141-.548-.263-.815-.409a12.707 12.707 0 0 1-1.12-.689c-.059-.04-.773-.56-.224-.15.496.372-.261-.239-.405-.371q-.352-.325-.68-.674a5.431 5.431 0 0 0-.625-.713c.003.002.489.68.241.31-.123-.184-.257-.36-.379-.545-.381-.58-.62-1.266-1.003-1.834-.005-.008.312.82.17.394-.054-.162-.121-.322-.177-.484q-.167-.486-.295-.984-.128-.495-.217-1c-.174-.991.064.818-.011-.16a13.2 13.2 0 0 1 0-2.036c.077-1.003-.16.806.011-.161q.089-.504.217-1 .128-.498.295-.984c.056-.162.122-.321.177-.484.168-.504-.363.75-.116.276a18.983 18.983 0 0 1 1.023-1.826c.074-.11.151-.218.226-.327.502-.735-.432.478-.076.099.28-.298.538-.613.824-.905a4.152 4.152 0 1 0-5.871-5.871 17.535 17.535 0 0 0-3.296 19.761 17.218 17.218 0 0 0 16.895 9.62 17.237 17.237 0 0 0 8.099-31.58c-6.704-4.591-15.993-3.39-21.698 2.199a4.152 4.152 0 0 0 5.871 5.871z" fill="#000000" class="fill-000000"></path><circle cx="522.515" cy="677.803" r="13.103" fill="#000000" class="fill-000000"></circle><path d="M516.186 671.474c.227-.223.458-.44.699-.65.708-.612-.49.31.106-.098a15.178 15.178 0 0 1 1.686-1.023c.143-.073.943-.429.329-.172-.646.27.312-.105.469-.157a13.026 13.026 0 0 1 1.861-.47c.94-.166-.713.043.034-.002.297-.018.593-.04.89-.047s.595-.002.891.013c.357.017 1.388.239.165-.026.543.118 1.088.195 1.625.345q.433.12.858.27c.121.043.24.093.363.135.483.167-.829-.398-.16-.062a15.722 15.722 0 0 1 1.6.895c.217.144.424.333.652.458-.75-.411-.44-.354-.21-.148.134.121.273.237.406.36a15.683 15.683 0 0 0 1.304 1.387c-.075-.053-.563-.79-.162-.203.075.11.152.217.226.327q.294.438.551.897c.15.266.279.541.419.812.348.674-.266-.751-.016-.039a15.345 15.345 0 0 1 .544 1.846c.063.29.091.591.16.88-.019-.079-.1-1.05-.06-.344.007.127.02.254.027.381a18.75 18.75 0 0 1-.027 1.91c-.032.74.178-.987-.002.033q-.077.441-.184.876c-.144.58-.421 1.136-.551 1.712.02-.088.424-.905.108-.279-.058.116-.113.234-.172.35q-.207.408-.442.802-.239.396-.505.775a3.04 3.04 0 0 0-.233.324c.178-.349.465-.579.058-.109a13.282 13.282 0 0 1-1.245 1.26c.029-.025-.397.36-.412.35-.018-.012.686-.493.31-.241-.294.197-.577.405-.88.59q-.39.24-.797.452c-.172.09-1.052.486-.445.231.64-.268-.337.114-.469.158q-.487.161-.986.285-.372.092-.75.162a3.125 3.125 0 0 0-.504.084c-.01.004.922-.088.471-.072-.64.022-1.266.077-1.908.046-.202-.01-1.16-.122-.463-.016.7.106-.262-.05-.456-.091a13.147 13.147 0 0 1-1.85-.526 3.174 3.174 0 0 0-.362-.138c-.008-.002.795.37.397.163-.27-.141-.548-.263-.815-.409a12.736 12.736 0 0 1-1.12-.689c-.06-.04-.773-.56-.225-.15.497.372-.26-.239-.404-.371q-.352-.325-.68-.674a5.431 5.431 0 0 0-.625-.713c.003.002.489.68.24.31-.122-.184-.256-.36-.378-.545-.381-.581-.62-1.266-1.003-1.834-.006-.008.312.82.17.394-.055-.162-.122-.322-.177-.484q-.167-.486-.296-.984-.127-.495-.216-1c-.175-.991.064.818-.012-.16a13.2 13.2 0 0 1 0-2.036c.078-1.003-.158.806.012-.161q.089-.504.216-1 .129-.498.296-.984c.055-.162.122-.321.177-.484.168-.504-.363.75-.116.276a18.983 18.983 0 0 1 1.023-1.826c.074-.11.151-.218.226-.327.502-.735-.432.478-.076.099.28-.298.538-.613.824-.905a4.152 4.152 0 0 0-5.871-5.871 17.535 17.535 0 0 0-3.296 19.761 17.218 17.218 0 0 0 16.895 9.62 17.237 17.237 0 0 0 8.099-31.58c-6.705-4.591-15.993-3.39-21.698 2.199a4.152 4.152 0 1 0 5.871 5.871z" fill="#000000" class="fill-000000"></path><path d="M406.815 861.4H771.9v68.49H406.815z" fill="#ffffff" class="fill-ffffff"></path><path d="M771.902 925.738H421.635c-4.722 0-9.48-.17-14.2 0-.206.008-.413 0-.62 0l4.152 4.152V861.4l-4.152 4.15h350.267c4.721 0 9.48.17 14.199 0 .206-.007.414 0 .62 0l-4.151-4.15v68.49c0 5.343 8.303 5.352 8.303 0V861.4a4.212 4.212 0 0 0-4.151-4.153H421.635c-4.73 0-9.47-.08-14.2 0-.206.004-.413 0-.62 0a4.212 4.212 0 0 0-4.152 4.152v68.491a4.212 4.212 0 0 0 4.152 4.152h350.267c4.73 0 9.469.08 14.199 0 .207-.004.414 0 .62 0 5.343 0 5.352-8.304 0-8.304z" fill="#000000" class="fill-000000"></path><path d="M288.891 861.4h365.087v68.49H288.89z" fill="#ffffff" class="fill-ffffff"></path><path d="M653.978 925.738H303.71c-4.722 0-9.48-.17-14.199 0-.206.008-.414 0-.62 0l4.151 4.152V861.4l-4.152 4.15h350.267c4.722 0 9.48.17 14.2 0 .205-.007.413 0 .62 0l-4.152-4.15v68.49c0 5.343 8.304 5.352 8.304 0V861.4a4.212 4.212 0 0 0-4.152-4.153H303.71c-4.73 0-9.469-.08-14.199 0-.207.004-.414 0-.62 0a4.212 4.212 0 0 0-4.152 4.152v68.491a4.212 4.212 0 0 0 4.151 4.152h350.267c4.73 0 9.469.08 14.2 0 .206-.004.413 0 .62 0 5.343 0 5.352-8.304 0-8.304zM672.44 729.164h86.647c4.008 0 8.038.121 12.045 0h.174a4.152 4.152 0 1 0 0-8.303H684.66c-4.008 0-8.038-.12-12.045 0-.058.002-.116 0-.174 0a4.152 4.152 0 1 0 0 8.303z" fill="#000000" class="fill-000000"></path><path d="m406.881 585.649 15.483-63.727h30.967l15.483 63.727z" fill="#ffce07" class="fill-edbc64"></path><path d="m410.884 586.752 5.247-21.596 8.325-34.264 1.911-7.866-4.003 3.048h30.967l-4.004-3.048 5.247 21.596 8.325 34.264 1.912 7.866 4.003-5.255H406.88a4.152 4.152 0 1 0 0 8.303h61.933a4.2 4.2 0 0 0 4.003-5.255l-5.247-21.597-8.325-34.263-1.911-7.866a4.213 4.213 0 0 0-4.003-3.048h-30.967a4.219 4.219 0 0 0-4.003 3.048l-5.248 21.596-8.325 34.264-1.91 7.866a4.153 4.153 0 1 0 8.006 2.207z" fill="#000000" class="fill-000000"></path><path d="m589.126 585.649 15.483-63.727h30.967l15.483 63.727z" fill="#ffce07" class="fill-edbc64"></path><path d="m593.13 586.752 5.247-21.596 8.325-34.264 1.911-7.866-4.003 3.048h30.967l-4.004-3.048 5.247 21.596 8.325 34.264 1.911 7.866 4.004-5.255h-61.934a4.152 4.152 0 0 0 0 8.303h61.933a4.2 4.2 0 0 0 4.004-5.255l-5.247-21.597-8.325-34.263-1.912-7.866a4.213 4.213 0 0 0-4.003-3.048H604.61a4.219 4.219 0 0 0-4.003 3.048l-5.247 21.596-8.325 34.264-1.911 7.866a4.153 4.153 0 1 0 8.006 2.207z" fill="#000000" class="fill-000000"></path><path d="m259.781 198.766 109.407 40.121 16.607-181.29-73.532-20.035a84.761 84.761 0 0 0-107.116 53.261l-.004-.001-50.357 150.97L99.393 407.86l.004.002c-.037.11-.077.217-.113.327a84.763 84.763 0 0 0 53.587 107.229l85.003 28.353 53.642-160.817-83.776-27.943 23.402-66.596z" fill="#ffce07" class="fill-edbc64"></path><path d="m258.678 202.77 36.97 13.557 58.92 21.607 13.517 4.957c2.75 1.008 5.03-1.552 5.255-4.004l1.654-18.055 3.971-43.351 4.78-52.18 4.154-45.345c.666-7.278 1.888-14.735 2.02-22.049.002-.102.019-.207.028-.31a4.176 4.176 0 0 0-3.048-4.003l-60.736-16.548c-9.62-2.622-19.312-5.906-29.194-7.219a88.853 88.853 0 0 0-95.825 59.893l5.107-2.9-.004-.001c-2.21-.737-4.428.862-5.107 2.9l-18.528 55.547-27.518 82.499-10.615 31.822-28.136 84.352-20.609 61.785-.344 1.033c-.737 2.209.862 4.427 2.9 5.107l.004.001-2.9-5.107c-14.223 40.904 5.41 88.016 43.876 107.452 8.871 4.482 18.596 7.245 28 10.382l41.363 13.797 28.138 9.385c2.209.737 4.427-.862 5.107-2.9l18.239-54.68 28.828-86.427 6.574-19.71c.737-2.208-.863-4.427-2.9-5.106l-28.205-9.408-45.236-15.089-10.334-3.447 2.9 5.107 22.862-65.059c2.073-5.9 3.854-11.912 5.757-17.869l14.016-43.873 9.406-29.444c1.63-5.102-6.385-7.286-8.007-2.207l-21.889 68.52c-5.735 17.95-11.868 35.693-18.117 53.476l-12.035 34.249c-.772 2.196.89 4.437 2.9 5.107l28.206 9.408 45.235 15.088 10.334 3.447-2.9-5.107-18.239 54.681-28.828 86.427-6.574 19.709 5.107-2.9-63.249-21.097c-7.365-2.457-14.745-4.874-22.097-7.372a80.622 80.622 0 0 1-50.231-102.333c.764-2.2-.885-4.435-2.9-5.107l-.005-.001 2.9 5.107L120.83 356.7l29.033-87.041 11.306-33.893 25.834-77.451 21.767-65.258.377-1.132-5.107 2.9.005.002c2.221.74 4.41-.87 5.107-2.9a80.698 80.698 0 0 1 84.506-54.188c9.603.944 18.97 4.227 28.269 6.76l36.6 9.973 26.165 7.128-3.048-4.003-1.654 18.056-3.97 43.35-4.78 52.18-4.154 45.345-1.365 14.897a69.386 69.386 0 0 0-.655 7.152 3.035 3.035 0 0 1-.028.31l5.255-4.003-36.97-13.558-58.92-21.607-13.517-4.957c-5.025-1.842-7.191 6.18-2.207 8.007z" fill="#000000" class="fill-000000"></path><ellipse cx="264.695" cy="463.363" rx="84.763" ry="50.512" transform="rotate(-71.554 264.695 463.363)" fill="#000000" class="fill-000000"></ellipse><path d="M308.609 478.242q-1.027 3.062-2.18 6.08-.553 1.439-1.137 2.866-.155.378-.312.755c-.005.013-.266.63-.107.256.178-.419-.152.353-.19.439q-.2.465-.404.928-2.475 5.622-5.452 11.004-2.846 5.133-6.166 9.984a122.126 122.126 0 0 1-3.203 4.433c-.477.632-.105.14-.007.014q-.219.282-.44.563-.385.489-.775.973-.883 1.095-1.796 2.167a93.223 93.223 0 0 1-7.23 7.605q-1.826 1.71-3.752 3.306-.487.403-.98.798c-.127.101-1.006.788-.565.448.404-.31-.407.306-.568.427q-.555.413-1.117.815a61.45 61.45 0 0 1-7.799 4.77q-.943.481-1.905.925c-.295.136-.593.267-.89.4-.143.063-.719.283-.141.063.643-.245-.206.08-.268.106a45.38 45.38 0 0 1-3.822 1.342 40.527 40.527 0 0 1-4.069 1.002c-.58.11-1.204.143-1.772.295 1.198-.32.199-.03-.16.008q-.502.054-1.007.093a33.534 33.534 0 0 1-3.876.077q-.93-.036-1.856-.126a5.98 5.98 0 0 1-.985-.111c-.048-.014.955.155.491.063-.202-.04-.408-.063-.611-.098a30.736 30.736 0 0 1-3.745-.88q-.933-.282-1.847-.622c-.292-.109-.579-.237-.872-.34-.52-.185.751.345.254.106-.2-.097-.406-.18-.607-.274a31.26 31.26 0 0 1-3.612-1.982q-.844-.538-1.653-1.128c-.109-.079-.216-.16-.324-.239-.202-.148-.394-.506-.112-.082.288.433.074.057-.107-.094-.172-.144-.347-.284-.52-.43a35.955 35.955 0 0 1-2.967-2.817q-.763-.81-1.478-1.663c-.21-.251-.416-.507-.623-.762-.09-.11-.175-.222-.263-.332.708.879.08.097-.04-.065a48.429 48.429 0 0 1-4.625-7.725 75.097 75.097 0 0 1-.967-2.11c-.082-.184-.294-.733.05.127-.077-.195-.16-.389-.238-.583q-.238-.59-.463-1.184-.895-2.358-1.606-4.78a79.402 79.402 0 0 1-2.301-10.407c-.064-.413-.12-.826-.183-1.239.146.97-.06-.498-.084-.688q-.174-1.455-.303-2.915-.248-2.803-.339-5.617a113.48 113.48 0 0 1 .265-12.152q.235-3.159.632-6.302c.013-.1.123-.95.06-.477s.054-.38.068-.479q.103-.724.214-1.448.257-1.668.556-3.33 1.192-6.62 3.03-13.103 1.817-6.436 4.228-12.685.518-1.342 1.063-2.673c.049-.119.65-1.553.368-.89q.358-.84.727-1.674 1.254-2.837 2.635-5.615a130.048 130.048 0 0 1 12.213-19.763c.379-.51-.384.485.007-.012l.33-.422q.44-.559.887-1.111.884-1.094 1.797-2.162 1.73-2.025 3.568-3.953a85.003 85.003 0 0 1 7.424-6.927q.426-.351.857-.696c.21-.168 1.203-.924.392-.315.657-.493 1.313-.988 1.983-1.464q1.835-1.306 3.756-2.485 1.916-1.172 3.918-2.197.944-.48 1.905-.925c.338-.155.678-.304 1.018-.455.109-.048.56-.216.013-.008-.623.238.136-.052.269-.105a42.826 42.826 0 0 1 7.89-2.344q.505-.097 1.013-.18c.17-.028 1.205-.173.46-.076-.703.092.262-.028.458-.048q.566-.06 1.133-.102a33.437 33.437 0 0 1 3.875-.063q.93.04 1.856.133c.104.01.862.088.86.099-.001.021-1.111-.177-.368-.045.204.037.408.065.611.1a30.782 30.782 0 0 1 3.743.895q.872.267 1.727.586a6.627 6.627 0 0 0 .996.392c-.031.022-.954-.427-.256-.104.16.075.324.146.485.22a31.24 31.24 0 0 1 3.724 2.054q.786.505 1.542 1.056c.144.105.286.213.43.319.496.364-.124-.18-.203-.157.116-.035.74.604.834.683a35.939 35.939 0 0 1 3.062 2.917q.713.763 1.384 1.563c.24.287.475.58.711.872.069.085.362.48.024.027-.387-.518.11.152.19.26a45.65 45.65 0 0 1 2.489 3.75q1.196 2.004 2.203 4.113c.336.699.64 1.41.962 2.115.196.428-.103-.246-.112-.27.078.195.16.388.238.583q.268.664.52 1.333a70.97 70.97 0 0 1 2.854 9.701q.606 2.738 1.024 5.513c.028.184.195 1.34.13.868-.072-.506.011.093.02.163l.089.72q.174 1.455.303 2.915a105.777 105.777 0 0 1 .367 11.806c-.098 4.173-.444 8.328-.95 12.47-.014.115-.109.814-.016.132q-.042.31-.086.619-.118.828-.247 1.655-.26 1.67-.561 3.332-.595 3.276-1.35 6.52a144.45 144.45 0 0 1-3.616 12.787 4.183 4.183 0 0 0 2.9 5.107 4.248 4.248 0 0 0 5.107-2.9c5.59-16.846 8.444-35.076 6.634-52.811-1.436-14.072-5.672-28.785-15.719-39.215a36.725 36.725 0 0 0-15.864-9.774 37.615 37.615 0 0 0-17.564-.69c-12.897 2.375-24.33 10.693-33.225 19.982-11.524 12.034-19.97 26.765-25.922 42.254-6.452 16.793-10.023 35.104-9.232 53.13.644 14.671 4.136 29.913 13.313 41.694 7.477 9.599 19.106 15.336 31.359 14.39 13.174-1.017 24.954-8.185 34.446-17.007 11.702-10.876 20.607-24.794 26.931-39.388a157.404 157.404 0 0 0 4.843-12.566 4.182 4.182 0 0 0-2.9-5.107 4.25 4.25 0 0 0-5.106 2.902zM123.953 501.712a103.86 103.86 0 0 0-51.005 47.908c-10.476 20.485-16.627 49.243-1.063 68.881a31.105 31.105 0 0 0 26.132 11.385c9.2-.513 18.765-4.926 22.663-13.744 5.137-11.621-.577-24.418-10.25-31.64-11.13-8.311-26.632-7.292-39.013-2.623-20.705 7.808-36.222 24.906-44.43 45.186-7.994 19.75-8.395 42.555.372 62.104 8.476 18.9 26.89 33.147 46.79 38.222 19.604 5 44.45.564 55.406-18.206 2.741-4.697 4.618-10.37 4.095-15.863a18.343 18.343 0 0 0-9.353-14.556c-10.918-6.036-25.544-3.06-36.204 2.057a60.547 60.547 0 0 0-26.076 24.751c-6.731 11.989-9.511 25.95-9.178 39.618.598 24.47 10.46 50.055 29.135 66.397 8.693 7.607 19.224 13.217 30.715 14.985a59.78 59.78 0 0 0 32.623-3.88c9.793-4.177 18.903-11.684 23.427-21.502 4.89-10.61 4.96-25.083-6.223-31.78-10.397-6.228-23.128-.423-31.385 6.69-8.31 7.157-13.774 17.7-17.09 28.011-6.514 20.25-4.734 43.691 6.13 62.143a59.593 59.593 0 0 0 21.935 21.905 60.957 60.957 0 0 0 28.093 7.39c19.02.463 38.96-7.31 50.782-22.58 6.125-7.913 9.992-17.659 9.59-27.77-.39-9.778-4.549-20.754-14.07-24.988-11.618-5.168-24.915 1.556-30.359 12.49-6.286 12.627-2.634 27.578 3.622 39.454a50.75 50.75 0 0 0 21.037 21.47c10.463 5.5 22.587 7.513 34.275 8.164 12.927.72 27.282-2.099 35.902-12.607a4.272 4.272 0 0 0 0-5.872c-1.466-1.466-4.442-1.742-5.871 0-7.773 9.476-20.405 10.934-31.9 10.052-9.811-.752-20.143-2.558-28.636-7.13a42.649 42.649 0 0 1-17.637-18.268c-4.98-9.44-8.695-22.379-2.954-32.316a18.22 18.22 0 0 1 10.58-8.522 12.298 12.298 0 0 1 8.563.63q.693.348 1.35.759c.164.101 1.104.753.77.496a17.48 17.48 0 0 1 5.914 9.379 29.618 29.618 0 0 1 .857 12.709c-1.083 7.484-5.378 14.964-10.78 20.486a51.645 51.645 0 0 1-20.127 12.449c-15.625 5.306-33.395 4.36-47.4-4.591-15.098-9.65-23.698-27.912-24.945-45.592a72.184 72.184 0 0 1 3.365-27.782c2.833-8.703 7.46-17.539 14.448-23.727a29.552 29.552 0 0 1 12.528-6.83c3.697-.873 7.69-.556 10.655 2.101 7.024 6.295 3.666 17.605-1.154 24.485-10.61 15.148-32.008 19.815-49.139 15.345-20.002-5.22-34.82-22.8-42.098-41.56-8.279-21.34-9.456-47.497 2.705-67.642a52.736 52.736 0 0 1 23.002-20.621 41.068 41.068 0 0 1 14.386-3.675c4.838-.303 10.617-.066 14.506 3.233 3.108 2.637 3.932 6.514 3.287 10.21a24.59 24.59 0 0 1-6.07 12.03c-5.878 6.521-14.24 9.958-22.746 11.255-8.069 1.23-16.929.002-25.058-2.777a65.525 65.525 0 0 1-22.627-13.47c-13.732-12.57-20.194-30.238-19.553-48.648a77.425 77.425 0 0 1 20.716-49.744 64.102 64.102 0 0 1 22.755-15.78c10.393-4.115 23.525-6.025 33.117 1.082a21.73 21.73 0 0 1 7.896 11.043 15.711 15.711 0 0 1 .613 6.368 12.307 12.307 0 0 1-1.838 5.26 13.6 13.6 0 0 1-3.381 3.767c-.37.296-.044.028.027-.024-.166.121-.334.243-.506.355-.406.262-.807.528-1.224.772q-.54.314-1.098.597c-.146.074-1.451.659-.926.445a22.567 22.567 0 0 1-11.104 1.632 24.529 24.529 0 0 1-10.343-3.247 17.742 17.742 0 0 1-4.472-3.706 28.914 28.914 0 0 1-4.133-5.878c-4.83-8.92-5.26-19.948-3.623-29.771 3.462-20.77 15.016-39.91 30.656-53.808a94.676 94.676 0 0 1 25.813-16.262c2.064-.878 2.52-3.92 1.49-5.68-1.25-2.135-3.61-2.371-5.68-1.49z" fill="#000000" class="fill-000000"></path><path d="M288.757 872.056h-13.673v40.788h13.838" fill="#000000" class="fill-000000"></path><path d="M288.757 867.904h-13.673a4.212 4.212 0 0 0-4.152 4.152v40.788a4.212 4.212 0 0 0 4.152 4.151h13.838a4.152 4.152 0 0 0 0-8.303h-13.838l4.151 4.152v-40.788l-4.151 4.151h13.673a4.152 4.152 0 0 0 0-8.303zM232.143 192.856q15.782 6.475 32.11 11.477a4.192 4.192 0 0 0 5.107-2.9 4.239 4.239 0 0 0-2.9-5.107q-16.31-4.996-32.11-11.477c-2.014-.827-4.65.894-5.107 2.9-.55 2.415.742 4.221 2.9 5.107z" fill="#000000" class="fill-000000"></path><path d="M290.14 119.25s64.029-45.76 175.91 1.384c75.347 37.855 81.875 63.143 81.875 63.143s-49.187 47.921-142.257 31.178-119.034-84.403-115.528-95.705z" stroke="#000000" stroke-miterlimit="10" stroke-width="2.768" fill="#000000" class="fill-000000 stroke-000000"></path><path d="m290.14 119.25 255.317 54.612s-50.71-65.765-146.684-70.874S290.14 119.25 290.14 119.25z" fill="#ffffff" stroke="#000000" stroke-miterlimit="10" stroke-width="2.768" class="fill-ffffff stroke-000000"></path><path d="m359.808 109.147-4.514 21.759-.643 3.1a4.233 4.233 0 0 0 2.9 5.107c2.077.473 4.635-.626 5.107-2.9l4.514-21.759.643-3.1a4.233 4.233 0 0 0-2.9-5.107c-2.077-.473-4.636.626-5.107 2.9z" fill="#000000" class="fill-000000"></path><path d="m397.434 116.953-4.514 21.758-.643 3.1a4.233 4.233 0 0 0 2.9 5.107c2.077.473 4.635-.625 5.107-2.9l4.514-21.758.643-3.1a4.233 4.233 0 0 0-2.9-5.107c-2.077-.473-4.635.626-5.107 2.9z" fill="#000000" class="fill-000000"></path><path d="m435.06 124.759-4.514 21.758-.643 3.1a4.233 4.233 0 0 0 2.9 5.107c2.077.473 4.635-.626 5.107-2.9l4.514-21.758.643-3.1a4.233 4.233 0 0 0-2.9-5.107c-2.077-.474-4.635.625-5.107 2.9z" fill="#000000" class="fill-000000"></path><path d="m472.686 132.564-4.513 21.759-.644 3.1a4.233 4.233 0 0 0 2.9 5.107c2.077.473 4.636-.626 5.108-2.9l4.513-21.759.643-3.1a4.233 4.233 0 0 0-2.9-5.107c-2.076-.473-4.635.626-5.107 2.9z" fill="#000000" class="fill-000000"></path><path d="M283.402 119.498s94.385-127.441 147.71-18.934c73.779-57.35 102.853 24.756 116.813 83.213 0 0-89.325-87.768-264.523-64.279z" fill="#ffffff" class="fill-ffffff"></path><path d="M286.987 121.594c.217-.293.44-.581.66-.872.51-.668-.787 1.012-.283.367l.487-.624q.53-.676 1.067-1.347 3.458-4.321 7.13-8.468a231.13 231.13 0 0 1 25.059-24.59q1.909-1.595 3.86-3.139c.335-.265.672-.528 1.009-.791.223-.175.708-.583-.194.148.181-.147.371-.286.557-.427q1.025-.784 2.062-1.552a146.12 146.12 0 0 1 8.45-5.818 118.702 118.702 0 0 1 8.85-5.129q2.27-1.183 4.598-2.252c.701-.321 1.409-.626 2.114-.937.788-.347-.941.382-.143.06.142-.057.283-.117.425-.175q.69-.283 1.385-.553a74.52 74.52 0 0 1 9.379-2.981q2.378-.58 4.795-.977c.364-.06.73-.109 1.093-.167.838-.135-1.071.126-.228.029.146-.017.291-.037.437-.055q1.257-.15 2.519-.245a50.501 50.501 0 0 1 9.532.175 2.69 2.69 0 0 0 .656.08c-.018.015-1.128-.168-.448-.059.4.065.801.121 1.201.19q1.26.214 2.507.498a46.368 46.368 0 0 1 4.773 1.36q1.088.373 2.157.8a4.695 4.695 0 0 1 .645.263c-.04-.023-.971-.427-.347-.144.428.194.86.38 1.286.58a50.27 50.27 0 0 1 4.68 2.51 57.791 57.791 0 0 1 4.616 3.133c.113.084.79.449.203.154-.581-.293.086.07.203.164.346.278.692.558 1.034.843q1.26 1.05 2.464 2.166 2.216 2.05 4.248 4.286 1.12 1.229 2.19 2.505.499.594.986 1.199.297.367.59.737c.138.176.735.954.133.165a110.655 110.655 0 0 1 8.347 12.74 145.602 145.602 0 0 1 3.798 7.215c1.31 2.655 4.582 2.343 6.52.84-.39.303.189-.143.218-.166l.702-.532q.608-.46 1.221-.912 1.284-.948 2.59-1.868 2.491-1.753 5.065-3.387a98.762 98.762 0 0 1 9.843-5.505q1.08-.522 2.174-1.012c.357-.16.718-.312 1.075-.471-.918.41.481-.196.683-.277q2.206-.884 4.47-1.617a56.45 56.45 0 0 1 8.526-2.055c.2-.031 1.299-.328.68-.103-.572.208.278-.03.534-.057q1.068-.116 2.142-.184 1.955-.122 3.916-.073c1.267.033 2.528.131 3.787.27a3.67 3.67 0 0 1 .495.06c.012.025-.93-.143-.487-.063.284.05.571.085.856.133q.97.161 1.933.37 1.784.387 3.528.933a15.688 15.688 0 0 1 3.407 1.235c-1.034-.635-.202-.085.117.057q.386.172.769.352.82.386 1.625.805 1.617.844 3.164 1.814 1.615 1.012 3.15 2.147a4.243 4.243 0 0 1 .694.521c-.04-.047-.795-.63-.25-.191.097.078.196.154.294.232q.785.626 1.547 1.28a64.458 64.458 0 0 1 5.53 5.367q1.344 1.463 2.609 2.997.643.777 1.266 1.57c.084.107.165.215.25.32.346.431-.478-.643-.152-.195.24.33.495.652.739.981a102.353 102.353 0 0 1 4.699 6.927 141.989 141.989 0 0 1 8.291 15.538q.954 2.066 1.857 4.156.242.561.48 1.123c.297.694-.29-.7.117.278q.44 1.064.874 2.131 1.769 4.376 3.356 8.822a361.892 361.892 0 0 1 10.46 35.389q.524 2.118 1.03 4.24l6.94-4.039c-.828-.812-1.7-1.58-2.572-2.342-2.716-2.376-5.54-4.621-8.401-6.819q-6.2-4.762-12.742-9.057-8.693-5.739-17.834-10.758-11.137-6.141-22.788-11.283-14.055-6.223-28.646-11.117a335.18 335.18 0 0 0-32.921-9.145 369.102 369.102 0 0 0-38.482-6.447 389.363 389.363 0 0 0-42.86-2.517 432.33 432.33 0 0 0-47.835 2.498q-6.2.664-12.38 1.493c-2.143.286-4.26 1.704-4.15 4.152.09 2.002 1.845 4.46 4.15 4.151a447.246 447.246 0 0 1 48.828-3.883 398.829 398.829 0 0 1 43.712 1.347q5.089.441 10.164 1.02 2.485.284 4.967.6l1.275.166.545.072c-.058-.007-.687-.093-.198-.026q1.262.172 2.523.35 9.51 1.356 18.94 3.218a340.488 340.488 0 0 1 33.827 8.494q14.746 4.526 29.015 10.445l.73.306c.89.371-.567-.243.099.04q.84.357 1.678.717 1.593.686 3.177 1.39 3.077 1.367 6.122 2.802 5.717 2.694 11.314 5.633 9.696 5.095 18.969 10.95 7.102 4.501 13.876 9.496 1.352 1.002 2.687 2.027c.848.65-.473-.369-.15-.117.207.163.415.323.623.486q.572.448 1.141.9 1.929 1.535 3.81 3.13c1.282 1.089 2.51 2.232 3.762 3.352.053.047.102.098.152.147 3.014 2.96 7.895-.043 6.94-4.039-2.922-12.22-6.22-24.366-10.305-36.254-4.124-12-9-23.878-15.443-34.836-5.818-9.896-13.048-19.16-22.461-25.867a46.505 46.505 0 0 0-30.549-8.608c-14.317 1.143-27.558 7.906-39.1 16.109-2 1.422-3.954 2.907-5.895 4.411l6.52.84c-8.02-16.267-19.477-32.772-36.363-40.744-13.03-6.152-27.558-6.3-41.2-2.077-13.732 4.25-26.058 12.032-37.306 20.827a219.81 219.81 0 0 0-27.099 25.453q-4.297 4.729-8.35 9.673c-1.487 1.82-3.063 3.642-4.394 5.58-.053.076-.112.148-.167.223-1.298 1.751-.346 4.71 1.49 5.68a4.272 4.272 0 0 0 5.679-1.488z" fill="#000000" class="fill-000000"></path><path d="M334.01 174.446s80.074-55.19 167.975 34.846c-65.335 25.766-160.572-21.344-167.974-34.846z" fill="#ffffff" stroke="#000000" stroke-miterlimit="10" stroke-width="2.768" class="fill-ffffff stroke-000000"></path><path d="M547.925 183.777s-145.587 77.5-264.523-64.279c0 0 2.01 112.385 123.16 128.978 109.142 14.949 141.363-64.7 141.363-64.7z" fill="#ffffff" class="fill-ffffff"></path><path d="M545.83 180.192c-1.296.689-2.63 1.309-3.963 1.921q-1.08.497-2.168.975-.624.275-1.25.544l-.666.285c-.862.37 1.076-.45.198-.083q-3.234 1.347-6.511 2.588-8.7 3.279-17.66 5.803a231.98 231.98 0 0 1-23.05 5.28q-3.299.58-6.613 1.064-.773.113-1.547.22c-.172.024-1.173.159-.407.057l-.533.07q-1.707.221-3.417.416-7.114.813-14.27 1.169a211.876 211.876 0 0 1-31.034-.725q-2.041-.2-4.078-.44-.953-.112-1.906-.234l-1.03-.134c-.48-.06.365.05.367.05-.245-.036-.492-.068-.738-.103q-4.183-.586-8.34-1.346-8.606-1.576-17.053-3.895-8.847-2.433-17.448-5.667-2.215-.833-4.41-1.718-1.029-.414-2.053-.84l-.632-.264c.046.019.639.274.201.085-.421-.183-.845-.36-1.266-.543q-4.494-1.944-8.892-4.1a221.047 221.047 0 0 1-35.81-22.115 152.963 152.963 0 0 1-3.952-3.065q-2.254-1.792-4.465-3.637-4.541-3.787-8.903-7.783-9.218-8.437-17.64-17.69-4.38-4.796-8.554-9.775c-2.356-2.804-7.15-.478-7.087 2.936a85.368 85.368 0 0 0 .866 9.62 156.023 156.023 0 0 0 5.335 24.833 149.334 149.334 0 0 0 13.933 32.105 130.523 130.523 0 0 0 26.246 32.007 137.853 137.853 0 0 0 43.458 25.535c19.715 7.28 41.102 10.673 62.078 10.89 18.52.19 37.276-2.512 54.614-9.178a125.14 125.14 0 0 0 36.915-21.986 120.848 120.848 0 0 0 20.895-23.473 85.568 85.568 0 0 0 7.65-13.354c.238-.535.468-1.074.688-1.617.818-2.018-.888-4.648-2.9-5.107a4.277 4.277 0 0 0-5.107 2.9c-.219.54.536-1.235.338-.799-.08.175-.153.352-.231.528a54.47 54.47 0 0 1-.906 1.917 88.2 88.2 0 0 1-3.826 6.892c-2.05 3.352-4.305 6.558-6.673 9.692-.425.56.683-.87.244-.317-.07.087-.136.176-.205.263-.174.22-.347.442-.522.662q-.59.742-1.19 1.474-1.195 1.456-2.437 2.873-2.604 2.971-5.402 5.763-3.037 3.03-6.288 5.832-1.758 1.516-3.576 2.961c-.295.235-.592.466-.888.7-.64.505.655-.498.21-.162-.152.115-.303.232-.454.348q-1.012.77-2.041 1.519a118.508 118.508 0 0 1-17.468 10.528q-2.54 1.247-5.136 2.375c-.227.099-1.697.712-.527.23-.428.176-.855.354-1.284.528q-1.433.58-2.88 1.126-5.626 2.119-11.436 3.699-6.214 1.696-12.57 2.794-1.62.282-3.243.526c-.55.083-1.099.16-1.648.239-1.125.16.905-.112-.228.03l-1.005.127q-3.601.442-7.221.713a179.077 179.077 0 0 1-31.308-.511q-2.086-.21-4.167-.461-1.057-.128-2.113-.266c-1.383-.18.723.106-.56-.077-.386-.054-.771-.108-1.157-.164q-3.958-.573-7.891-1.31-7.27-1.363-14.41-3.326-6.657-1.842-13.138-4.256-1.516-.567-3.018-1.167-.743-.297-1.483-.602c-.294-.12-.587-.244-.88-.366.982.41-.025-.013-.174-.077q-2.996-1.29-5.93-2.718a130.137 130.137 0 0 1-20.453-12.367q-.497-.368-.991-.74c-.311-.236-1.3-1.007-.462-.35a155.117 155.117 0 0 1-2.33-1.854q-2.166-1.767-4.25-3.631-3.941-3.524-7.57-7.377-3.525-3.742-6.733-7.765-.34-.427-.676-.856c-.149-.19-.302-.378-.445-.572.662.893.356.465.208.268-.527-.701-1.059-1.399-1.577-2.106q-1.463-1.996-2.849-4.046a135.132 135.132 0 0 1-9.25-15.968q-.958-1.945-1.856-3.92-.43-.944-.846-1.895-.206-.471-.409-.944c-.067-.157-.132-.315-.2-.47-.125-.28.436 1.049.062.146a156.108 156.108 0 0 1-2.913-7.549 152.487 152.487 0 0 1-6.712-25.924q-.207-1.24-.392-2.485-.084-.57-.164-1.14l-.076-.55c-.044-.313.182 1.404.048.354a136.636 136.636 0 0 1-.442-3.866 83.146 83.146 0 0 1-.348-4.731c-.008-.2-.016-.398-.02-.597l-7.087 2.935a281.289 281.289 0 0 0 35.575 35.647 234.543 234.543 0 0 0 36.659 25.159 211.325 211.325 0 0 0 36.416 15.793 201 201 0 0 0 34.379 7.912 215.833 215.833 0 0 0 32.874 2.102 230.217 230.217 0 0 0 29.63-2.418 231.317 231.317 0 0 0 24.53-4.913q9.805-2.52 19.363-5.902 7.075-2.512 13.955-5.536c1.987-.874 4.028-1.731 5.928-2.787.08-.045.165-.085.246-.128a4.187 4.187 0 0 0 1.49-5.68 4.243 4.243 0 0 0-5.681-1.49z" fill="#000000" class="fill-000000"></path><path d="m410.102 158.046-4.514 21.758-.643 3.1a4.233 4.233 0 0 0 2.9 5.107c2.077.473 4.635-.625 5.107-2.9l4.514-21.758.643-3.1a4.233 4.233 0 0 0-2.9-5.107c-2.077-.473-4.636.626-5.107 2.9z" fill="#000000" class="fill-000000"></path><g fill="#ffffff" class="fill-ffffff"><circle cx="289.269" cy="413.604" r="7.265"></circle><circle cx="244.292" cy="451.661" r="7.265"></circle><circle cx="299.648" cy="467.576" r="7.265"></circle><circle cx="271.97" cy="463.424" r="7.265"></circle><circle cx="264.358" cy="430.211" r="7.265"></circle><circle cx="247.06" cy="485.567" r="7.265"></circle><circle cx="301.032" cy="437.822" r="7.265"></circle><circle cx="254.671" cy="512.552" r="7.265"></circle><circle cx="279.581" cy="495.254" r="7.265"></circle></g><path d="M589.227 186.991s71.963 19.375 127.319-29.061 301.577-58.013 251.868 125.242c-46.36 170.91-355.66-11.071-379.186-96.18z" fill="#e2e2e2" class="fill-e2e2e2"></path><path d="M588.124 190.995c10.446 2.803 21.673 3.71 32.437 3.938 23.828.502 47.82-4.019 69.343-14.407a128.06 128.06 0 0 0 18.434-10.88c4.579-3.248 8.772-6.922 13.132-10.44.196-.158.404-.304.596-.467-1.074.917-.282.216-.002.01.498-.367.995-.735 1.5-1.092q1.485-1.05 3.02-2.025a92.589 92.589 0 0 1 6.705-3.868q3.695-1.94 7.526-3.605c.368-.162.737-.32 1.106-.479.948-.408-.397.158.129-.054.723-.293 1.442-.595 2.167-.883q2.107-.84 4.239-1.616a189.555 189.555 0 0 1 18.664-5.687 237.581 237.581 0 0 1 20.598-4.202q2.696-.43 5.4-.803c1.254-.175-.444.054.562-.076.457-.059.913-.119 1.37-.176q1.374-.174 2.751-.333 5.652-.653 11.33-1.067a261.142 261.142 0 0 1 46.168.631c1.917.2 3.83.43 5.74.672 1.23.156-.37-.057.645.085.476.067.952.132 1.427.2q1.425.206 2.847.43 5.738.901 11.422 2.112a182.826 182.826 0 0 1 21.837 6.058q2.61.909 5.19 1.906 1.21.469 2.413.958c.423.172.844.349 1.267.522.192.078.73.312-.151-.065l.837.358q4.973 2.148 9.772 4.672 4.717 2.49 9.212 5.372 2.219 1.428 4.372 2.956 1.07.76 2.123 1.547c.311.232.619.47.93.702.776.58-.524-.411-.034-.027l.686.539a98.093 98.093 0 0 1 14.963 14.636q.367.448.728.9c.13.163.934 1.187.571.72-.353-.456.453.598.554.733q.435.581.861 1.17 1.54 2.127 2.954 4.341a89.73 89.73 0 0 1 5.187 9.302q.588 1.22 1.14 2.457c.165.368.322.74.486 1.108.305.685-.016-.04-.063-.153.117.282.234.563.349.845q1.045 2.567 1.935 5.193a98.61 98.61 0 0 1 3.034 11.043q.64 2.994 1.106 6.021c.077.5.147 1 .221 1.501.029.193.105.815-.011-.095.028.225.06.45.086.676.13 1.081.254 2.163.358 3.248a125.249 125.249 0 0 1 .549 13.081c-.042 4.627-.321 9.25-.8 13.853-.291 2.8-.472 4.18-.837 6.596q-.573 3.787-1.306 7.547a158.39 158.39 0 0 1-7.765 27.906q-.284.721-.578 1.438-.162.396-.328.79c.058-.137.33-.768.02-.052-.425.977-.857 1.95-1.308 2.916q-1.25 2.679-2.653 5.28a91.647 91.647 0 0 1-5.977 9.615c-.502.705-1.023 1.394-1.537 2.09-.594.805.395-.5.003 0-.124.158-.247.318-.373.475-.344.432-.688.862-1.038 1.288q-1.7 2.067-3.532 4.02a80.48 80.48 0 0 1-7.65 7.161q-.446.366-.896.725c-.188.15-.378.296-.565.446-.444.354.61-.462.157-.122-.727.547-1.453 1.093-2.194 1.62q-2.1 1.497-4.293 2.86a85.438 85.438 0 0 1-9.092 4.904c-.786.366-1.581.709-2.373 1.061-.673.3.09-.037.192-.079-.179.074-.357.15-.536.223-.448.182-.896.364-1.347.541q-2.515.99-5.083 1.834a105.186 105.186 0 0 1-10.32 2.817q-2.741.603-5.51 1.073-1.209.206-2.422.387c-.508.076-1.017.147-1.526.22 1.083-.154-.417.05-.74.09-3.76.46-7.54.757-11.325.912a175.076 175.076 0 0 1-23.827-.73q-3.086-.296-6.163-.684l-.861-.11c-.134-.016-.871-.113-.311-.04.449.06-.92-.127-1.178-.163q-1.652-.234-3.3-.492-6.356-.993-12.654-2.318c-8.769-1.836-17.445-4.107-26.016-6.714-8.838-2.69-17.567-5.738-26.18-9.077-9.089-3.522-16.636-6.76-25.643-10.957a496.283 496.283 0 0 1-50.339-27.143q-11.895-7.316-23.37-15.288-5.53-3.846-10.947-7.85-2.73-2.02-5.431-4.081-.579-.442-1.156-.886-.288-.221-.575-.444c.633.49-.006-.004-.163-.127q-1.351-1.052-2.696-2.11a324.611 324.611 0 0 1-35.592-32.214q-3.616-3.848-7.048-7.863-1.678-1.969-3.301-3.984-.684-.85-1.358-1.708l-.415-.532c-.37-.473.625.822.074.096-.268-.353-.539-.704-.806-1.058a117.632 117.632 0 0 1-9.638-14.764q-.917-1.694-1.757-3.429-.393-.815-.766-1.639c-.13-.286-.254-.575-.383-.86-.473-1.053.186.485-.027-.054a65.51 65.51 0 0 1-2.252-6.463c-1.432-5.14-9.445-2.957-8.007 2.207 3.035 10.896 9.268 20.8 16.061 29.721a240.9 240.9 0 0 0 30.752 32.77 419.625 419.625 0 0 0 41.707 32.766 501.485 501.485 0 0 0 48.553 29.726 467.382 467.382 0 0 0 53.043 24.457 331.187 331.187 0 0 0 52.886 15.8c16.518 3.364 33.493 5.318 50.364 4.484 15.214-.752 30.32-3.79 44.163-10.276a86.676 86.676 0 0 0 33.46-27.951c10.498-14.569 16.055-31.95 19.525-49.397 3.682-18.506 4.806-37.658 1.1-56.254a97.516 97.516 0 0 0-19.08-41.412c-8.944-11.334-20.565-20.464-33.184-27.387a163.832 163.832 0 0 0-42.668-15.726 237.89 237.89 0 0 0-47.15-5.593 274.892 274.892 0 0 0-46.705 3.016 216.895 216.895 0 0 0-40.23 9.717c-10.58 3.738-21.179 8.396-30.18 15.197-3.526 2.664-6.753 5.688-10.273 8.361a126.956 126.956 0 0 1-18.345 11.586 133.017 133.017 0 0 1-36.254 12.35 154.048 154.048 0 0 1-31.818 2.587q-6.604-.124-13.186-.766a187.02 187.02 0 0 1-5.347-.614c1.277.162-.084-.013-.373-.054q-.577-.082-1.152-.168-1.074-.16-2.145-.338c-2.817-.465-5.656-.968-8.417-1.709-5.167-1.386-7.371 6.622-2.207 8.008z" fill="#000000" class="fill-000000"></path><path d="M730.257 209.752c12.183 11.16 30.163.93 41.51-6.297a140.588 140.588 0 0 0 19.28-14.779q4.45-4.068 8.523-8.526c2.936-3.217 5.892-6.957 5.951-11.532.123-9.486-11.302-12.978-18.87-10.483a23.188 23.188 0 0 0-14.756 15.958c-2.136 8.22.163 16.905 4.127 24.189a57.654 57.654 0 0 0 14.335 17.041c11.752 9.492 26.502 14.41 41.588 12.175a47.401 47.401 0 0 0 19.443-7.558c5.703-3.868 11.252-9.233 14.107-15.61 2.961-6.614 3.588-15.28-3.101-19.88-3.161-2.172-7.547-2.51-11.278-2.246a31.067 31.067 0 0 0-10.343 2.545c-6.122 2.668-11.017 7.837-11.675 14.673-.802 8.347 5.749 14.776 11.854 19.342a85.747 85.747 0 0 0 42.671 16.203 84.19 84.19 0 0 0 23.023-.917c6.91-1.214 14.126-4.05 18.195-10.097a12.006 12.006 0 0 0 1.53-10.096 4.234 4.234 0 0 0-4.003-3.048c-8.909.244-14.84 8.054-15.838 16.367-1.05 8.744 4.666 16.534 12.116 20.524a35.182 35.182 0 0 0 14.594 3.96 4.177 4.177 0 0 0 4.151-4.153 4.247 4.247 0 0 0-4.151-4.151 36.55 36.55 0 0 1-1.238-.092c-.303-.028-1.315-.17-.49-.041a36.277 36.277 0 0 1-2.645-.5q-1.225-.286-2.424-.671-.598-.193-1.187-.41c-.218-.08-1.424-.62-.664-.254a30.575 30.575 0 0 1-4.583-2.629c-.054-.038-.508-.397-.135-.097.404.324-.163-.144-.255-.222q-.463-.392-.902-.81-.437-.416-.848-.86-.176-.19-.347-.383c-.07-.078-.686-.805-.334-.377.253.307-.361-.507-.487-.696q-.337-.505-.638-1.033c-.202-.354-.38-.72-.569-1.081-.036-.07-.29-.608-.07-.125.242.527-.094-.263-.133-.376a17.494 17.494 0 0 1-.53-2.058c-.1-.458-.228-.226.02.2a1.464 1.464 0 0 1-.041-.456c-.02-.408-.046-.813-.044-1.222q.003-.536.042-1.07c.015-.204.045-.408.057-.612-.001.025-.153.806-.043.344.178-.75.296-1.501.525-2.24.12-.39.28-.766.405-1.154-.212.662-.122.272.068-.123a15.392 15.392 0 0 1 1.21-2.08c.084-.12.183-.237.26-.362.263-.417-.53.577-.003.03.271-.282.522-.58.803-.854.278-.27.572-.52.868-.77-.692.586.003.022.333-.182.327-.202.666-.372 1.005-.55.724-.38-.197.071-.201.08.061-.116.569-.198.682-.232.372-.112.76-.161 1.131-.27.484-.142-.404.075-.372.045a3.345 3.345 0 0 1 .901-.051l-4.003-3.048c.093.31.155.626.241.937-.271-.98-.022-.206-.014.117.004.14.07.789-.031.891l.067-.522q-.052.289-.126.572c-.075.286-.177.558-.27.838.34-1.016.04-.14-.084.086-.147.268-.323.515-.476.778q-.396.554.097-.09-.198.248-.408.484a14.789 14.789 0 0 1-1.397 1.372c-.115.1-1 .762-.214.193-.28.202-.56.402-.846.593-.584.388-1.188.747-1.805 1.079q-.468.252-.946.483c-.157.076-1.536.658-.63.3a40.911 40.911 0 0 1-9.095 2.193c.075-.01-1.247.171-.659.095s-.736.087-.66.078q-1.214.142-2.432.246-2.638.226-5.287.276a81.734 81.734 0 0 1-10.171-.442q-.608-.064-1.215-.138c-.058-.007-1.388-.187-.513-.063q-1.211-.172-2.417-.377-2.612-.447-5.192-1.06a75.314 75.314 0 0 1-18.056-6.675 78.85 78.85 0 0 1-8.7-5.28q-1.002-.702-1.982-1.434c-.036-.028-1.091-.853-.426-.322-.205-.164-.41-.327-.613-.493a32.776 32.776 0 0 1-3.746-3.539 22.275 22.275 0 0 1-.763-.9c.519.649-.249-.36-.282-.407-.436-.637-.787-1.309-1.171-1.976-.58-1.004.187.699-.185-.394-.122-.358-.247-.711-.347-1.076s-.178-.735-.246-1.107c.163.9-.016-.53-.018-.735-.003-.309.025-.615.03-.922.012-1.011-.225.885.005-.085a27.15 27.15 0 0 1 .46-1.692c.285-.933-.436.778.033-.075.14-.254.262-.515.408-.766s.302-.497.465-.737q.165-.242.34-.476-.527.678-.096.153c.414-.434.806-.88 1.25-1.285.225-.205.462-.395.69-.596-.79.692-.028.024.142-.096a25.038 25.038 0 0 1 3.3-1.888c.968-.485-.82.289.2-.092.307-.114.61-.234.92-.342q.93-.326 1.883-.578t1.927-.436c.323-.06.647-.11.972-.162-1.133.182.298-.021.517-.04a24.468 24.468 0 0 1 4.011-.004c.071.006 1.374.2.514.046.398.071.795.15 1.187.254.05.014 1.28.443.518.118a7.117 7.117 0 0 1 1.311.766c-.832-.591-.063 0 .087.157.215.222.59.93.102.08.144.25.299.511.453.756.505.804-.208-.828.046.094.08.29.18.57.25.863.014.062.242 1.038.09.348-.15-.676.017.289.022.373.024.423.026.847.01 1.27-.013.325-.048.647-.072.97.082-1.082-.007-.006-.046.201a18.488 18.488 0 0 1-.483 1.95q-.148.483-.32.958c-.055.153-.49 1.187-.078.255a21.024 21.024 0 0 1-1.04 2.053 31.45 31.45 0 0 1-1.16 1.829q-.309.456-.632.903c-.056.078-.79 1.048-.234.333a37.296 37.296 0 0 1-3.167 3.554 42.619 42.619 0 0 1-3.289 2.915c.705-.567-.246.185-.325.243q-.443.327-.895.642-.905.63-1.841 1.214a43.567 43.567 0 0 1-3.866 2.142q-.995.487-2.014.924c.852-.363-.28.106-.376.143q-.689.27-1.386.516-2.094.74-4.254 1.272-1.079.266-2.17.479-.546.106-1.093.199c-.17.028-1.717.248-.728.123a43.55 43.55 0 0 1-9.24.19 40.438 40.438 0 0 1-1.908-.208c.946.128-.311-.058-.413-.075q-.567-.093-1.131-.2a47.75 47.75 0 0 1-4.828-1.18c-1.469-.44-2.902-.967-4.33-1.522-1.172-.456.726.341-.42-.176-.35-.158-.7-.312-1.048-.474q-1.217-.567-2.404-1.195-2.038-1.079-3.979-2.33-.97-.625-1.915-1.291-.472-.333-.938-.676-.31-.228-.617-.46.495.387-.074-.06a58.963 58.963 0 0 1-6.762-6.31c-4.138-4.544-7.936-10.355-9.632-16.499q-.336-1.219-.574-2.462-.097-.515-.175-1.034c-.116-.775.054.97-.034-.35-.055-.834-.122-1.662-.12-2.5q.002-.626.035-1.252c.008-.147.16-1.734.06-.981a17.874 17.874 0 0 1 1.162-4.356c-.353.872.125-.23.176-.334q.243-.49.512-.965a19.444 19.444 0 0 1 1.397-2.134c-.549.727.198-.213.266-.292q.358-.41.737-.8a23 23 0 0 1 1.593-1.466c.876-.746-.668.393.302-.216.3-.189.589-.398.893-.584q.453-.276.922-.524c.165-.087 1.52-.668.601-.316a15.875 15.875 0 0 1 1.99-.63c.339-.08.679-.143 1.02-.204-.91.162-.141.027.104.01a19.192 19.192 0 0 1 1.924.007c1.11.034-.782-.234.307.044.472.12.942.247 1.413.372 1.05.279-.575-.39.368.147.318.181.635.366.952.547.883.506-.375-.509.296.24.093.104.813.983.283.226a5.818 5.818 0 0 1 .533.91c-.398-.87.014.276.036.416-.134-.853-.056.388-.064.49.064-.828-.213.654-.28.847.253-.739-.234.471-.258.517-.2.374-.422.737-.654 1.092-.235.358-.48.715-.745 1.052.44-.56-.45.513-.43.49-1.211 1.408-2.498 2.758-3.79 4.092q-3.594 3.714-7.47 7.142-1.935 1.713-3.935 3.35a97.35 97.35 0 0 1-3.91 3.065A133.79 133.79 0 0 1 757.89 201.9a57.652 57.652 0 0 1-4.102 1.977c.834-.357-.318.122-.402.155q-.528.207-1.061.401-1.244.453-2.515.825a30.738 30.738 0 0 1-4.36.958c.993-.137-.205.005-.342.017q-.536.045-1.074.066c-.826.031-1.639-.022-2.462-.056-1.131-.046.836.196-.266-.026-.335-.068-.67-.125-1.004-.205a14.67 14.67 0 0 1-1.939-.611c.933.365-.097-.072-.241-.148q-.456-.238-.89-.513c-.111-.07-1.04-.739-.295-.158-.282-.22-.546-.46-.809-.7a4.152 4.152 0 0 0-5.871 5.87zM710.719 269.092c9.296 1.393 19.264 2.845 28.382-.3a23.815 23.815 0 0 0 10.444-6.634 24.54 24.54 0 0 0 5.341-9.998c1.854-7.34-.367-16.058-7.673-19.547-7.194-3.435-15.511-.782-20.957 4.642a20.413 20.413 0 0 0-5.59 9.773 24.49 24.49 0 0 0 .884 13.147c3 8.641 9.49 15.439 16.916 20.533 14.166 9.718 32.052 13.087 48.98 11.692a99.667 99.667 0 0 0 25.246-5.385c7.764-2.766 15.955-6.677 20.441-13.951a19.45 19.45 0 0 0 2.375-5.787c.663-2.879-1.283-4.921-4.004-5.256a14.72 14.72 0 0 0-11.319 3.91 14.433 14.433 0 0 0-3.715 5.467c-.574 1.431-.94 3.116-.034 4.52a29.578 29.578 0 0 0 2.28 2.827 124.105 124.105 0 0 0 16.274 16.09 134.12 134.12 0 0 0 41.096 23.106 129.816 129.816 0 0 0 26.057 6.042c2.163.28 4.243-2.11 4.152-4.152-.112-2.489-1.835-3.852-4.152-4.152a3.333 3.333 0 0 1-.464-.062c-.39-.058-.782-.113-1.173-.172q-1.173-.177-2.341-.378-2.337-.4-4.658-.89-4.445-.94-8.814-2.205-4.555-1.318-9.003-2.976-2.037-.759-4.047-1.587c-.049-.02-1.248-.526-.466-.192q-.546-.233-1.089-.47-1.086-.476-2.164-.97a128.812 128.812 0 0 1-16.265-8.95q-3.98-2.58-7.762-5.45-.315-.239-.628-.48c.652.502-.374-.296-.407-.322q-.931-.734-1.848-1.486-1.834-1.502-3.61-3.073a124.34 124.34 0 0 1-14.448-15.13l1.068 4.04c.079-.28.184-.555.262-.835.152-.55-.435.768.07-.125.114-.202.22-.407.34-.606.054-.089.587-.885.27-.44-.308.43.335-.376.343-.384.158-.17.322-.337.491-.497.075-.071.798-.704.378-.358-.407.336.427-.285.432-.289a14.902 14.902 0 0 1 1.381-.756c.533-.269-.872.259.145-.031.224-.064.444-.14.67-.197.282-.074.566-.12.85-.182.576-.123-.944.013.107.016a14.403 14.403 0 0 1 1.742.082l-4.004-5.255a17.349 17.349 0 0 1-.717 2.344c.294-.765-.092.155-.228.416q-.316.609-.684 1.188c-.215.34-.453.661-.677.994.486-.722-.172.2-.323.373a21.854 21.854 0 0 1-1.84 1.87c-.352.319-.714.623-1.08.923-.605.496.342-.23-.3.224-.793.56-1.595 1.1-2.426 1.6a44.287 44.287 0 0 1-4.724 2.442c-.23.103-1.256.531-.514.23-.39.158-.78.316-1.171.468q-1.34.522-2.7.997-2.679.943-5.41 1.727a96.064 96.064 0 0 1-11.33 2.526q-.583.094-1.168.18-.39.058-.78.112c.175-.024.767-.096-.068.006-.977.12-1.955.23-2.935.322q-2.836.264-5.684.35a83.632 83.632 0 0 1-11.305-.423c-.45-.048-.9-.109-1.35-.156-.673-.07.62.093-.05-.004l-.575-.082q-1.435-.211-2.86-.478-2.747-.513-5.448-1.235-2.78-.747-5.492-1.724a72.247 72.247 0 0 1-2.504-.964c-.035-.014-.619-.259-.21-.086.447.19-.287-.126-.385-.17q-.701-.309-1.395-.635a60.405 60.405 0 0 1-9.62-5.647q-.553-.398-1.096-.809c.574.433-.389-.314-.54-.437q-1.144-.937-2.226-1.947a42.282 42.282 0 0 1-4.046-4.354c-.467-.58.122.19-.31-.413-.305-.427-.61-.852-.9-1.289q-.809-1.216-1.506-2.503-.32-.594-.615-1.203-.125-.26-.245-.522c-.044-.099-.35-.837-.17-.384.163.413-.063-.177-.076-.213-.087-.239-.178-.476-.26-.716q-.249-.717-.453-1.448a23.583 23.583 0 0 1-.559-2.584c.13.811-.024-.326-.043-.585q-.055-.758-.054-1.517.002-.67.047-1.338c.018-.256.054-.513.069-.769-.003.042-.14.695-.036.263.18-.75.31-1.494.558-2.23.047-.14.489-1.152.234-.648-.265.526.245-.471.32-.615.388-.735.867-1.396 1.314-2.093-.377.587-.142.174.12-.135q.401-.474.835-.92c.543-.56 1.136-1.052 1.722-1.564.348-.304-.201.162-.227.179.171-.11.335-.242.503-.357q.443-.303.904-.58a19.488 19.488 0 0 1 2.023-1.043c-.74.334-.147.074.265-.065q.49-.166.991-.3c.331-.086.666-.152 1-.225a1.43 1.43 0 0 1 .43-.075c-.26-.146-.781.055-.1.031.647-.022 1.362.07 1.997.005.508-.052-.461-.005-.399-.066a3.056 3.056 0 0 1 .559.099 10.708 10.708 0 0 1 1.1.286 2.589 2.589 0 0 1 .54.188c.015.03-.752-.38-.327-.14.296.17.613.3.908.473.3.176.575.403.876.574.478.273-.48-.496-.124-.083.125.146.303.267.443.401.248.238.472.493.708.742.484.511-.37-.609.135.185.178.279.357.554.517.845.09.165.17.335.259.5.3.553.011-.166-.079-.22.327.194.493 1.52.573 1.89.04.186.07.373.109.559.134.638.017-.224-.03-.253.111.069.073 1.029.077 1.153a19.224 19.224 0 0 1-.082 2.055c-.06.758.174-.829-.043.228-.082.395-.16.79-.258 1.182a23.863 23.863 0 0 1-.64 2.045c-.051.145-.115.286-.167.432.304-.86.15-.337.053-.138-.183.372-.355.748-.55 1.115a20.346 20.346 0 0 1-1.127 1.869c-.114.168-.723.987-.41.588.328-.417-.003 0-.062.067-.17.196-.335.396-.508.59a18.335 18.335 0 0 1-1.539 1.525c-.3.263-.898.68-.235.223-.336.232-.663.476-1.009.695a15.537 15.537 0 0 1-4.774 2.14c-.923.28-1.861.51-2.807.7-.407.08-.816.15-1.225.218-.84.14-.318.049-.132.025-.346.044-.692.08-1.038.113a59.46 59.46 0 0 1-12.325-.33q-.747-.084-1.494-.18-.425-.053-.85-.11c.091.013.533.073.042.005q-1.58-.22-3.156-.459c-2.138-.32-4.568.534-5.107 2.9-.45 1.975.603 4.763 2.9 5.107z" fill="#000000" class="fill-000000"></path></svg>