<svg viewBox="0 0 1000 1000" xmlns="http://www.w3.org/2000/svg"><path d="M500.485 252.43c-42.236-51.518-68.448-59.557-78.452-53.636 0 0-29.264 9.303.861 54.05s50.829-5.06 50.829-5.06" fill="#ffffff" class="fill-ffffff"></path><path d="M503.395 249.52a299.06 299.06 0 0 0-30.451-32.575c-7.39-6.669-15.324-13.026-24.1-17.788-5.73-3.11-11.984-5.672-18.554-6.102a19.863 19.863 0 0 0-6.827.686 15.824 15.824 0 0 0-3.163 1.305c-.798.441 1.086-.382.558-.193-.11.04-.221.079-.33.122a23.72 23.72 0 0 0-9.641 6.877c-4.8 5.887-6.4 13.38-5.435 20.849a58.695 58.695 0 0 0 5.125 16.882 102.648 102.648 0 0 0 11.955 19.776c6.291 8.188 15.452 17.157 26.702 16.196 7.874-.672 14.42-5.53 19.29-11.498a61.926 61.926 0 0 0 8.44-13.485c.253-.56.49-1.126.727-1.693.83-1.993-.895-4.612-2.875-5.063-2.403-.547-4.173.74-5.062 2.875.614-1.475.375-.87.064-.19a53.92 53.92 0 0 1-1.009 2.081 63.207 63.207 0 0 1-3.828 6.53q-.646.963-1.331 1.9c-.216.294-.464.577-.662.883.196-.304.594-.754.186-.245-.138.171-.273.343-.412.513a41.065 41.065 0 0 1-3.36 3.68q-.871.84-1.801 1.616c-.173.144-.357.278-.526.427-.194.171.835-.617.222-.171-.338.245-.674.494-1.02.729a23.57 23.57 0 0 1-2.129 1.292q-.504.27-1.023.512a3.424 3.424 0 0 0-.52.235c-.055.038.931-.361.543-.232-.15.05-.295.118-.443.173a17.816 17.816 0 0 1-2.28.688 7.084 7.084 0 0 0-1.226.234c.312-.14 1.032-.108.325-.05-.227.02-.453.042-.68.056a19.427 19.427 0 0 1-2.598-.05c-.794-.057.541.098.274.046-.206-.04-.416-.066-.622-.104q-.689-.129-1.366-.311-.703-.19-1.391-.433c-.218-.077-.434-.162-.65-.243-.847-.314.607.298-.002 0a32.012 32.012 0 0 1-2.913-1.565q-.7-.437-1.376-.914c-.234-.165-.464-.336-.695-.505-.08-.058-.476-.368-.05-.034.49.384-.19-.156-.287-.236a41.48 41.48 0 0 1-2.983-2.695 54.509 54.509 0 0 1-3.187-3.458q-.766-.903-1.5-1.833c-.287-.364-.04-.047.014.023-.17-.22-.338-.444-.506-.668q-.45-.601-.89-1.211a116.1 116.1 0 0 1-6.373-9.907 93.086 93.086 0 0 1-4.648-9.152 1.688 1.688 0 0 1-.132-.313c-.128-.318-.257-.635-.382-.954q-.392-1-.75-2.011a53.567 53.567 0 0 1-1.188-3.802 43.945 43.945 0 0 1-.804-3.514c-.094-.508-.167-1.02-.251-1.529-.046-.275.105.946.02.108-.03-.281-.062-.562-.087-.843a30.358 30.358 0 0 1 .027-5.668c.067-.69.064-.05-.048.312a4.47 4.47 0 0 0 .088-.572q.108-.646.253-1.285a21.36 21.36 0 0 1 .599-2.126c.117-.345.259-.68.377-1.023.207-.599-.435.944-.162.38.081-.167.152-.34.232-.51a19.37 19.37 0 0 1 .946-1.76c.326-.536.69-1.042 1.05-1.555.384-.547-.474.582-.305.394.091-.101.17-.214.258-.318.188-.22.374-.44.568-.654a23.466 23.466 0 0 1 2.314-2.169c.55-.461-.978.711-.222.175.185-.131.367-.266.554-.395q.515-.354 1.05-.676a18.858 18.858 0 0 1 1.755-.935c.105-.049.213-.093.317-.143.623-.3-1.057.404-.644.27.14-.045.281-.108.419-.162a20.886 20.886 0 0 0 1.903-.875c.094-.049.193-.086.286-.135.52-.271-.624.264-.646.27.192-.055.378-.15.567-.216a12.56 12.56 0 0 1 1.213-.356c.435-.105.877-.163 1.315-.251-.31.062-1.21.125-.344.057.241-.019.482-.04.724-.053a20.512 20.512 0 0 1 3.15.09c.13.013.26.03.39.043.663.066-.42-.05-.566-.079.312.064.634.095.948.15q.889.156 1.767.367a38.057 38.057 0 0 1 3.977 1.19c.693.247 1.376.516 2.058.79.783.314-.436-.193-.219-.094.17.077.345.148.516.224q.572.252 1.137.516a78.09 78.09 0 0 1 9.912 5.627q2.809 1.853 5.501 3.873c.491.367.977.74 1.465 1.11.364.277-.256-.197-.262-.202l.344.268.807.637q1.55 1.228 3.066 2.497a250.088 250.088 0 0 1 27.886 27.91q3.936 4.52 7.732 9.158c1.371 1.671 4.417 1.528 5.82 0a4.23 4.23 0 0 0 0-5.82z" fill="#000000" class="fill-000000"></path><path d="M259.445 497.784c-56.012 36.064-66.997 61.184-62.26 71.8 0 0 5.895 30.136 53.793 5.328s.79-51.074.79-51.074" fill="#ffffff" class="fill-ffffff"></path><path d="M257.368 494.23a308.858 308.858 0 0 0-36.164 26.717 129.19 129.19 0 0 0-20.603 22.084c-3.554 5.004-6.826 10.73-8.005 16.822a22.446 22.446 0 0 0-.221 7.854 12.198 12.198 0 0 0 .624 2.441c.176.47.374.936.58 1.392.052.114-.303-.921-.355-.83-.022.038.053.223.062.263a22.392 22.392 0 0 0 5.093 9.419c4.385 5.136 10.848 7.65 17.435 8.286 11.61 1.123 23.492-3.514 33.728-8.454 6.708-3.237 13.366-7.032 18.722-12.285 3.623-3.553 6.754-8.036 7.823-13.075 1.847-8.716-2.193-16.795-7.919-23.133a60.559 60.559 0 0 0-13.505-10.965c-.27-.164-.541-.327-.817-.481a4.116 4.116 0 0 0-4.155 7.107c.989.552 1.942 1.172 2.883 1.8q1.531 1.024 3.002 2.135c.153.115.302.242.46.35-.25-.17-.813-.638-.296-.226.299.237.597.473.892.714q.932.76 1.833 1.558a49.904 49.904 0 0 1 3.608 3.527q.868.943 1.677 1.937c.13.16.255.325.386.484.106.13-.579-.78-.08-.094.264.362.527.724.78 1.095.484.71.94 1.44 1.359 2.19q.325.582.62 1.181.136.275.265.554c.043.093.082.188.127.28.24.5-.15-.337-.174-.42.235.844.626 1.647.855 2.5q.159.588.28 1.185c.04.2.073.4.11.6.151.842-.028-.296-.022-.185a26.478 26.478 0 0 1 .08 2.677q-.016.315-.045.629c-.016.176-.106.952-.012.19s-.012.02-.045.196q-.069.375-.155.747-.165.707-.39 1.399-.106.327-.225.65c-.04.109-.085.216-.123.326-.21.603.14-.333.145-.329.18.155-1.372 2.618-1.529 2.865-.29.456-.604.894-.914 1.336-.438.626.453-.541-.042.062-.216.263-.43.527-.652.785a34.188 34.188 0 0 1-2.862 2.933q-.765.7-1.565 1.36c-.278.23-.56.457-.842.682-.363.288.044-.034.1-.076q-.303.23-.608.455a62.303 62.303 0 0 1-4.414 2.958 102.779 102.779 0 0 1-10.37 5.472q-1.163.542-2.337 1.058c-.19.084-.382.166-.573.25-.007.003-.63.271-.264.115.364-.155-.247.103-.257.107l-.74.304q-2.283.925-4.611 1.73a68.315 68.315 0 0 1-8.092 2.271q-.932.197-1.87.361-.418.073-.838.14c-.181.028-1.198.208-.543.084s-.221.023-.386.041q-.39.044-.782.081-.82.077-1.642.122c-1.983.105-3.904-.161-5.872-.184.405.005.952.146.285.033-.197-.034-.394-.064-.59-.1q-.62-.11-1.235-.252a23.535 23.535 0 0 1-2.284-.647c-.328-.112-.65-.234-.974-.357-.172-.065-.787-.321-.054-.017.743.31.06.023-.113-.06a23.472 23.472 0 0 1-1.819-.958 23.792 23.792 0 0 1-1.55-1.024c-.79-.557.797.677-.008-.009-.228-.193-.457-.383-.678-.582a27.533 27.533 0 0 1-2.226-2.376c-.364-.415.66.91.354.457-.066-.096-.141-.186-.208-.281-.153-.216-.307-.431-.454-.652q-.37-.555-.703-1.134c-.394-.685-.705-1.399-1.054-2.105-.047-.096.476 1.207.192.442-.054-.145-.112-.288-.165-.433-.09-.248-.176-.498-.255-.75-.096-.304-.164-.618-.257-.923-.014-.044-.016-.093-.03-.137-.117-.356-.301-.719-.45-1.063.023.053.47 1.238.263.616-.06-.184-.136-.363-.196-.548a11.374 11.374 0 0 1-.304-1.119c-.045-.204-.077-.41-.118-.614-.178-.89.107 1.172.047.356a19.174 19.174 0 0 1-.042-2.73c.016-.23.04-.46.061-.691.108-1.152-.147.815-.022.142.096-.52.182-1.038.3-1.553a28.263 28.263 0 0 1 1.02-3.417q.17-.464.354-.924c.058-.144.12-.287.176-.433.048-.127-.456 1.038-.135.324.296-.658.595-1.313.917-1.96a52.01 52.01 0 0 1 2.288-4.087 68.404 68.404 0 0 1 2.971-4.404q.397-.544.804-1.082c.11-.146.368-.373.417-.547.008-.029-.56.712-.288.374.098-.122.193-.247.29-.37q.977-1.241 1.996-2.45a130.32 130.32 0 0 1 9.84-10.367c4.302-4.095 8.82-7.962 13.462-11.665q.905-.722 1.816-1.435l.928-.724c-.494.385.432-.331.585-.449q2.12-1.622 4.269-3.205 4.513-3.326 9.138-6.496 4.94-3.392 9.982-6.632a4.116 4.116 0 1 0-4.154-7.108z" fill="#000000" class="fill-000000"></path><path d="M649.018 166.289 378.952 465.611a215.798 215.798 0 0 1-62.946 44.834l-50.053 23.495-70.334-86.683 14.66-29.361a80.72 80.72 0 0 1 58.956-44.064l59.242-10.075a82.083 82.083 0 0 0 47.268-26.03L541.622 121.21" fill="#ffffff" class="fill-ffffff"></path><path d="M646.107 163.379 635.64 174.98l-27.815 30.828-39.637 43.932-46.19 51.194-47.557 52.708-43.399 48.1-33.77 37.429-18.954 21.007c-15.558 17.243-34.844 31.387-55.333 42.2-7.808 4.12-15.901 7.726-23.891 11.476l-29.64 13.913-5.578 2.619 4.987.643-23.802-29.336-37.894-46.703-8.636-10.644.643 4.987 10.093-20.212c4.26-8.533 8.292-17.17 14.462-24.552a77.253 77.253 0 0 1 36.469-24.365c6.677-2.047 13.631-3 20.5-4.168l48.522-8.251c19.653-3.37 39.217-13.803 51.464-29.789l16.74-21.85 30.11-39.302 36.771-47.996 36.39-47.5 29.058-37.928 14.756-19.26.668-.872c1.353-1.766.273-4.608-1.476-5.631-2.12-1.24-4.275-.294-5.631 1.476l-10.296 13.44-26.253 34.267-35.26 46.024-37.183 48.534-32.45 42.355-20.58 26.864c-1.243 1.623-2.416 3.351-3.753 4.899-.031.036-.056.078-.087.113l-.015.02c.604-.672-.284.188-.343.244-.524.494-1.005 1.063-1.51 1.578a75.6 75.6 0 0 1-9.006 7.89 78.602 78.602 0 0 1-21.293 11.221c-7.214 2.45-14.69 3.552-22.167 4.823l-28.708 4.882q-10.226 1.74-20.453 3.478a84.782 84.782 0 0 0-35.552 14.847 86.63 86.63 0 0 0-26.608 31.554q-5.58 11.204-11.183 22.397l-3.304 6.616a4.329 4.329 0 0 0 .644 4.987l23.803 29.337 37.894 46.702 8.636 10.644c1.212 1.494 3.446 1.367 4.988.644l47.506-22.3a229.717 229.717 0 0 0 38.559-22.59c9.992-7.337 19.847-15.42 28.226-24.591 4.838-5.296 9.611-10.653 14.416-15.978l30.673-33.995 41.544-46.044 47.03-52.126 47.133-52.239 41.85-46.384 31.183-34.562 15.115-16.752.662-.734c3.54-3.924-2.262-9.763-5.82-5.82z" fill="#000000" class="fill-000000"></path><path d="M508.993 730.503c39.5 53.644 65.26 63.035 75.558 57.642 0 0 29.707-7.77 1.949-54.021s-51.023 2.41-51.023 2.41" fill="#ffffff" class="fill-ffffff"></path><path d="M505.44 732.58a308.764 308.764 0 0 0 28.878 34.463c7.048 7.108 14.677 13.874 23.2 19.175 5.436 3.381 11.445 6.262 17.843 7.121a21.41 21.41 0 0 0 7.372-.2 15.682 15.682 0 0 0 3.258-1.135 2.227 2.227 0 0 0 .52-.246 2.853 2.853 0 0 0-.837.347c.06.015.209-.063.264-.08a23.163 23.163 0 0 0 9.436-5.845c4.97-5.013 7.17-11.98 7.09-18.947a49.358 49.358 0 0 0-2.867-15.245 104.738 104.738 0 0 0-9.667-20.146c-5.953-9.857-14.656-20.863-27.087-21.743-8.1-.573-15.489 4.245-20.832 9.899a61.335 61.335 0 0 0-9.68 13.655c-.14.266-.277.533-.407.803-.929 1.938-.598 4.535 1.476 5.631 1.838.971 4.638.596 5.631-1.476a57.05 57.05 0 0 1 5.873-9.393c.5-.668-.283.354-.138.178.118-.145.23-.294.346-.44q.384-.481.78-.954.81-.969 1.67-1.896a39.454 39.454 0 0 1 3.686-3.51c.155-.13.313-.254.468-.382.595-.489-.41.3-.199.148.354-.254.699-.519 1.057-.767a26.14 26.14 0 0 1 2.205-1.375q.522-.29 1.058-.552c.179-.087.36-.169.539-.254.746-.356-.264.096-.165.063.816-.271 1.603-.592 2.439-.805q.576-.147 1.16-.255c.196-.035.396-.056.59-.097.105-.022-1.049.101-.201.04a18.428 18.428 0 0 1 2.644-.03c.209.015.416.041.624.057.709.051-.958-.176-.255-.034.461.094.923.17 1.38.283q.71.176 1.402.41c.22.073.436.155.654.233.11.04.218.092.329.128.483.155-.781-.373-.323-.138.984.504 1.968.963 2.908 1.553q.698.438 1.367.92c.12.086.847.624.387.278-.445-.335.37.303.509.418a43.423 43.423 0 0 1 6.03 6.257q.181.227.36.455c-.051-.067-.326-.429-.04-.051q.369.484.728.975.879 1.202 1.706 2.44a96.745 96.745 0 0 1 3.08 4.94c1.886 3.215 3.65 6.507 5.219 9.89q.533 1.149 1.035 2.312a3.223 3.223 0 0 1 .166.4c.159.393.318.787.473 1.183a69.824 69.824 0 0 1 1.443 4.04 52.13 52.13 0 0 1 1.849 7.496c.043.263.081.526.122.79.12.777-.092-.837-.012-.066.056.538.116 1.074.156 1.614a32.96 32.96 0 0 1 .09 3.022c-.015.89-.08 1.773-.169 2.657-.07.694-.087.064.045-.294a3.443 3.443 0 0 0-.091.584q-.111.66-.258 1.312a22.261 22.261 0 0 1-.606 2.17c-.118.35-.25.696-.38 1.043-.239.63.01-.136.16-.37a4.463 4.463 0 0 0-.234.52 21.684 21.684 0 0 1-1.973 3.322c-.46.65.717-.856.04-.058-.206.242-.408.485-.622.72q-.544.6-1.137 1.153c-.386.36-.794.688-1.195 1.03-.372.315.993-.72.195-.159-.194.137-.385.277-.582.41a20.246 20.246 0 0 1-2.12 1.258c-.305.157-.616.298-.925.445-.826.393 1.216-.462.18-.077-.318.118-.64.222-.958.335-.047.016-.097.024-.143.041-.46.168-.896.383-1.337.591-.89.42.764-.275.326-.13a19.674 19.674 0 0 1-2.341.65c-.903.183.518-.05.385-.041-.227.013-.455.05-.682.068-.478.037-.958.051-1.438.047a19.37 19.37 0 0 1-1.473-.071c-.267-.023-.534-.065-.801-.085-.27-.02 1.248.192.59.08-.15-.026-.3-.046-.45-.07a28.457 28.457 0 0 1-3.481-.817c-1.312-.392-2.565-.91-3.846-1.386 1.07.397.405.172-.136-.072q-.577-.26-1.147-.533-1.069-.514-2.114-1.074a78.291 78.291 0 0 1-9.52-6.089q-.662-.487-1.316-.985l-.307-.235c-.354-.266.323.256.32.247-.097-.198-.55-.428-.726-.568q-1.338-1.055-2.645-2.148-2.955-2.467-5.772-5.093a249.155 249.155 0 0 1-26.115-28.961 380.637 380.637 0 0 1-6.884-9.075c-1.274-1.728-3.626-2.77-5.631-1.477-1.711 1.103-2.843 3.778-1.477 5.631z" fill="#000000" class="fill-000000"></path><path d="M785.255 131.972 670.49 286.409l-157.979-126.1L610.982 25" fill="#ffce07" class="fill-edbc64"></path><path d="m781.701 129.895-3.074 4.137-8.366 11.258-12.305 16.558-15.082 20.296-16.524 22.236-16.6 22.338-15.557 20.934-13.147 17.692-9.451 12.719c-1.484 1.996-3.054 3.954-4.463 6.005-.062.09-.131.176-.196.264l6.463-.833-4.218-3.367-11.481-9.165-16.984-13.556-20.725-16.543-22.811-18.208-22.92-18.296-21.372-17.058-18.06-14.415-12.988-10.367c-2.043-1.632-4.038-3.377-6.155-4.913-.09-.066-.177-.141-.265-.212l.644 4.988 9.814-13.485 23.56-32.374 28.407-39.035 24.557-33.744c3.976-5.463 8.23-10.813 11.967-16.444.052-.078.111-.152.166-.228 1.309-1.798.306-4.588-1.476-5.63-2.082-1.218-4.32-.327-5.631 1.476l-9.814 13.485-23.56 32.373-28.407 39.035-24.557 33.745-8.118 11.155c-1.276 1.753-2.67 3.467-3.849 5.288-.05.079-.11.153-.166.228a4.105 4.105 0 0 0 .643 4.988l4.219 3.367 11.481 9.165 16.984 13.556 20.724 16.543 22.812 18.208 22.92 18.295 21.372 17.059 18.06 14.415 12.988 10.367 6.155 4.913.265.212a4.215 4.215 0 0 0 6.463-.833l3.075-4.138 8.366-11.258 12.305-16.558 15.082-20.296 16.523-22.235 16.6-22.338 15.557-20.934 13.147-17.692 9.451-12.718c1.483-1.996 3.06-3.951 4.463-6.006.062-.09.131-.176.196-.264 1.327-1.785.293-4.596-1.476-5.63-2.097-1.227-4.301-.314-5.63 1.476z" fill="#000000" class="fill-000000"></path><path d="M762.243 489.711c55.695-36.552 66.46-61.767 61.63-72.34 0 0-6.158-30.084-53.838-4.859s-.343 51.079-.343 51.079" fill="#ffffff" class="fill-ffffff"></path><path d="M764.32 493.265a308.876 308.876 0 0 0 35.935-27.025 129.578 129.578 0 0 0 20.354-22.169c3.526-5.04 6.772-10.8 7.917-16.914a22.675 22.675 0 0 0 .198-7.82 12.27 12.27 0 0 0-.612-2.409c-.18-.485-.391-.96-.597-1.435-.19-.436.277.82.321.76.02-.027-.049-.198-.056-.231-.69-3.396-2.87-6.737-5.078-9.317-4.384-5.12-10.833-7.631-17.412-8.25-11.52-1.082-23.293 3.56-33.42 8.512-6.755 3.303-13.468 7.161-18.862 12.475-3.648 3.592-6.814 8.122-7.876 13.212-1.816 8.698 2.209 16.742 7.956 23.042a60.367 60.367 0 0 0 13.696 10.969c.275.164.55.326.83.48a4.116 4.116 0 1 0 4.155-7.107c-1.004-.55-1.974-1.169-2.93-1.797q-1.555-1.022-3.05-2.132c-.27-.201-.537-.408-.807-.61-.204-.152.855.676.282.216-.186-.149-.374-.295-.56-.444q-.908-.73-1.788-1.497a49.756 49.756 0 0 1-3.66-3.521q-.916-.98-1.767-2.018c-.132-.161-.257-.327-.39-.486-.167-.198.597.801.136.175-.268-.363-.535-.726-.791-1.097-.51-.74-.99-1.502-1.43-2.286q-.302-.54-.579-1.095-.137-.277-.268-.557c-.077-.166-.417-.955-.125-.26.286.68-.187-.502-.273-.75q-.237-.675-.425-1.366-.16-.591-.282-1.193c-.04-.2-.073-.402-.11-.603-.163-.861.068.827.02.18a20.858 20.858 0 0 1-.077-2.699c.011-.211.03-.422.047-.633.05-.684.108-.148-.045.243a11.022 11.022 0 0 0 .268-1.397q.156-.66.364-1.304.106-.33.225-.657c.04-.11.087-.218.124-.33.229-.68-.325.664-.096.212.479-.946.922-1.888 1.491-2.788q.438-.692.922-1.353c.265-.364.485-.575.049-.074.258-.297.498-.612.756-.91a34.927 34.927 0 0 1 2.795-2.864q.774-.71 1.584-1.383c.281-.234.567-.463.853-.693.36-.29-.033.02-.091.066.255-.197.513-.388.772-.58a63.959 63.959 0 0 1 4.314-2.9 104.867 104.867 0 0 1 10.387-5.542q1.155-.544 2.321-1.064.565-.252 1.133-.496c.187-.08.373-.162.56-.24-.526.221.087-.033.305-.122q2.178-.889 4.399-1.667a67.121 67.121 0 0 1 8.04-2.283q.856-.183 1.717-.338.417-.075.835-.143c.196-.031 1.352-.178.675-.107-.672.07.22-.025.38-.043q.388-.044.777-.08.814-.078 1.632-.123a39.51 39.51 0 0 1 5.734.172c.28.025-1.07-.171-.287-.035.196.034.393.062.59.097q.665.118 1.324.27 1.108.258 2.188.62c.327.112.649.235.973.356.647.24-.166.013-.362-.16a2.804 2.804 0 0 0 .6.268q.893.418 1.742.92c.554.329 1.082.69 1.607 1.064.788.561-.776-.657-.05-.037.226.194.455.382.677.581a23.976 23.976 0 0 1 2.223 2.367c.317.374-.715-.986-.146-.179.152.216.306.43.453.648q.37.552.703 1.127c.392.678.712 1.381 1.051 2.085.191.396-.49-1.243-.206-.484.057.153.12.305.177.459.086.234.169.47.245.707.095.295.161.6.255.895a4.65 4.65 0 0 0 .234.61c.684 1.62-.202-.617.016.035.061.185.136.365.197.55a11.493 11.493 0 0 1 .316 1.17c.04.19.07.38.109.57.18.892-.108-1.17-.046-.353a19.27 19.27 0 0 1 .047 2.743c-.015.232-.038.463-.06.695-.01.119-.03.236-.04.355-.034.469.209-1.29.065-.492-.094.522-.18 1.044-.296 1.562a28.631 28.631 0 0 1-1.013 3.439q-.156.43-.323.858l-.174.435c-.32.816.36-.804.107-.246-.287.634-.568 1.27-.875 1.897a52.43 52.43 0 0 1-2.264 4.113 69.006 69.006 0 0 1-2.947 4.436q-.394.548-.797 1.09-.206.277-.414.552c-.07.092-.142.184-.211.277-.428.57.457-.578.141-.181-.634.795-1.26 1.593-1.91 2.376a130.728 130.728 0 0 1-9.78 10.465c-4.233 4.093-8.679 7.963-13.248 11.674q-1.972 1.601-3.976 3.164c-.13.102-.905.704-.44.345q-.485.375-.972.747-1.073.82-2.153 1.63-4.484 3.365-9.081 6.576-4.91 3.435-9.924 6.72a4.116 4.116 0 1 0 4.155 7.107z" fill="#000000" class="fill-000000"></path><path d="M861.67 607.745 546.12 367.472a215.799 215.799 0 0 1-51.742-57.404l-29.068-47.036 78.067-79.79 30.845 11.205a80.72 80.72 0 0 1 50.52 53.527l16.787 57.7a82.082 82.082 0 0 0 31.268 43.98l245.416 169.017" fill="#ffffff" class="fill-ffffff"></path><path d="m863.747 604.192-12.286-9.356-32.637-24.85-46.649-35.521-54.146-41.23-55.499-42.258-50.722-38.623-39.431-30.024-21.768-16.575-1.974-1.503c-1.894-1.448-4.195-3.304-6.577-5.305a212.363 212.363 0 0 1-39.915-44.409c-10.548-15.767-20.101-32.26-30.072-48.394l-3.207-5.19-.644 4.988 26.42-27.004 42.06-42.988 9.587-9.798-4.004 1.059 22.973 8.345 7.872 2.86a78.14 78.14 0 0 1 20.77 11.316 76.75 76.75 0 0 1 26.29 37.412c1.912 6.013 3.552 12.123 5.315 18.18l8.692 29.878c2.144 7.37 4.076 14.816 7.117 21.881a86.009 86.009 0 0 0 29.443 36.15c1.485 1.042 2.99 2.058 4.484 3.087l27.926 19.233 45.161 31.102 53.3 36.708 51.875 35.726 40.901 28.168 20.803 14.327.93.64a4.155 4.155 0 0 0 5.63-1.476 4.198 4.198 0 0 0-1.476-5.63l-14.52-10.002-36.899-25.411-50.307-34.647-53.816-37.062-48.044-33.088-32.84-22.617-7.754-5.34a78.754 78.754 0 0 1-17.227-16.187c-6.961-8.862-11.285-18.965-14.404-29.69l-7.688-26.426-7.357-25.289a91.47 91.47 0 0 0-15.489-31.2 85.835 85.835 0 0 0-38.635-27.683q-11.578-4.202-23.152-8.41l-7.685-2.792a4.056 4.056 0 0 0-4.005 1.058l-26.42 27.004-42.06 42.988-9.587 9.798a4.195 4.195 0 0 0-.644 4.987l27.314 44.198c14.741 23.853 33.035 44.96 55.366 62.018q8.122 6.204 16.262 12.383l35.515 27.043 48.432 36.877 55.011 41.888 55.426 42.204 49.274 37.519 36.633 27.894 17.828 13.575.776.591c1.77 1.348 4.605.277 5.63-1.476 1.238-2.116.298-4.28-1.476-5.631z" fill="#000000" class="fill-000000"></path><path d="M918.213 518.671 672.797 349.654 594.688 457.14l257.867 192.692" fill="#ffce07" class="fill-edbc64"></path><path d="m920.29 515.118-6.568-4.524-17.874-12.31-26.434-18.205-32.25-22.21-35.188-24.234-35.65-24.552-33.24-22.892-27.994-19.28-20.22-13.926c-3.19-2.197-6.335-4.492-9.585-6.601-.14-.091-.276-.19-.413-.285-1.96-1.349-4.404-.211-5.631 1.477l-7.774 10.698-18.667 25.688-22.486 30.944-19.535 26.881c-3.15 4.336-6.616 8.574-9.51 13.088-.042.064-.091.125-.137.187-1.409 1.939-.155 4.412 1.477 5.631l6.915 5.168 18.818 14.061 27.718 20.713 33.8 25.257 37.15 27.76 37.37 27.924 34.85 26.042 29.554 22.085 21.241 15.873c3.335 2.492 6.615 5.09 10.02 7.487.146.103.287.215.43.322 1.782 1.332 4.599.29 5.631-1.476 1.23-2.102.31-4.297-1.476-5.631l-6.916-5.168-18.816-14.06-27.719-20.713-33.8-25.258-37.15-27.759-37.37-27.925-34.85-26.042-29.554-22.085-21.24-15.872c-3.336-2.493-6.62-5.086-10.02-7.488-.147-.103-.288-.214-.43-.321l1.476 5.63 7.774-10.698 18.667-25.688 22.486-30.943 19.534-26.882c3.15-4.334 6.623-8.571 9.51-13.087.042-.065.092-.126.137-.188l-5.63 1.476 6.567 4.524 17.874 12.31 26.435 18.205 32.25 22.21 35.186 24.234 35.65 24.552 33.24 22.892 27.995 19.28 20.22 13.926c3.19 2.197 6.334 4.492 9.585 6.6.14.092.275.19.413.285a4.155 4.155 0 0 0 5.63-1.476 4.198 4.198 0 0 0-1.476-5.63z" fill="#000000" class="fill-000000"></path><path d="M532.294 209.234c-11.166-15.091-25.393-30.186-43.059-41.846a20.211 20.211 0 0 1-8.754-12.186c-4.76-20.76 28.829-30.994 93.746 52.572" fill="#ffffff" class="fill-ffffff"></path><path d="M535.848 207.157a198.322 198.322 0 0 0-22.223-25.466 167.67 167.67 0 0 0-13.529-11.575q-3.473-2.673-7.09-5.147c-.563-.382-1.13-.755-1.694-1.135-.321-.217-.64-.436-.954-.666.14.103.535.447-.083-.068a22.615 22.615 0 0 1-2.745-2.69c.04.047-.725-.933-.395-.481.332.455-.386-.57-.349-.514q-.48-.714-.896-1.466a17.318 17.318 0 0 1-.765-1.54c.342.797-.12-.377-.144-.445q-.188-.546-.342-1.104-.195-.71-.333-1.434c-.03-.16-.056-.322-.085-.483-.012-.063-.018-.128-.03-.192-.123-.631.093.711.093.713a35.133 35.133 0 0 1-.042-3.58c.04-.635-.219 1.308-.084.625.028-.138.046-.279.073-.418q.08-.41.187-.814.107-.396.243-.784c.036-.102.08-.201.113-.304.26-.784-.493.998-.196.464.253-.454.462-.92.753-1.355.436-.653.457-.458-.152.163.184-.188.342-.405.525-.595q.264-.275.55-.526c.09-.08.19-.152.277-.236.438-.42-1.075.739-.38.296a15.905 15.905 0 0 1 1.366-.826c.13-.065.264-.121.392-.187.622-.32-1.173.44-.495.206.287-.099.567-.213.857-.304a15.725 15.725 0 0 1 1.824-.434c1.207-.226-1.144.096-.027.004.357-.029.713-.06 1.07-.074a20.847 20.847 0 0 1 2.301.042c.37.027.736.07 1.105.105.87.081-1.21-.19-.335-.047.216.035.432.066.648.103.915.155 1.823.355 2.721.588a48.2 48.2 0 0 1 5.906 2.016c.65.262-.878-.388-.415-.175.135.063.274.118.41.178q.374.164.746.333.897.407 1.78.843 1.707.839 3.366 1.767a96.966 96.966 0 0 1 7.583 4.726q2.045 1.402 4.032 2.886.534.397 1.065.8c.143.11.286.22.43.328.73.555-.55-.434-.078-.06.768.61 1.543 1.21 2.305 1.826 15.283 12.342 28.553 27.148 40.866 42.39q2.907 3.597 5.743 7.25c1.328 1.709 4.445 1.5 5.82 0 1.663-1.81 1.417-3.997 0-5.82-13.051-16.783-27.095-33.125-43.336-46.927-9.465-8.043-20.023-15.895-32.005-19.71-6.32-2.011-14.374-2.944-20.061 1.262-5.35 3.957-6.657 10.566-5.222 16.808a24.418 24.418 0 0 0 9.691 13.98c2.436 1.78 4.992 3.393 7.418 5.193a130.7 130.7 0 0 1 6.505 5.157 178.675 178.675 0 0 1 24.025 24.739q.646.802 1.283 1.61.318.403.633.807c.095.12.629.81.233.297q1.237 1.603 2.44 3.232c1.278 1.725 3.622 2.772 5.63 1.477 1.708-1.1 2.849-3.781 1.477-5.63z" fill="#000000" class="fill-000000"></path><path d="M510.668 224.19c-11.167-15.092-25.394-30.187-43.06-41.847a20.212 20.212 0 0 1-8.753-12.186c-4.761-20.76 28.828-30.994 93.745 52.572" fill="#ffffff" class="fill-ffffff"></path><path d="M514.221 222.112a198.307 198.307 0 0 0-22.223-25.465 167.674 167.674 0 0 0-13.528-11.575q-3.473-2.673-7.091-5.147c-.562-.383-1.13-.755-1.693-1.136-.322-.217-.64-.436-.954-.665.14.102.535.446-.084-.07a22.592 22.592 0 0 1-2.744-2.69c.04.048-.726-.931-.396-.48.333.455-.386-.57-.348-.514q-.48-.713-.897-1.466a17.305 17.305 0 0 1-.764-1.54c.342.797-.121-.376-.145-.445q-.188-.546-.341-1.104-.196-.71-.333-1.434c-.03-.16-.056-.322-.086-.483-.011-.063-.018-.128-.03-.192-.122-.631.094.712.094.713a35.133 35.133 0 0 1-.043-3.58c.04-.635-.218 1.308-.083.626.028-.14.046-.28.073-.419q.079-.41.187-.814.107-.396.243-.784c.036-.101.079-.201.113-.304.259-.784-.494.998-.196.464.253-.454.462-.92.752-1.355.436-.653.457-.458-.151.163.184-.188.342-.405.525-.595q.263-.274.55-.526c.09-.08.19-.152.277-.236.438-.42-1.075.739-.38.296a15.911 15.911 0 0 1 1.366-.826c.13-.065.264-.121.392-.187.622-.32-1.173.441-.495.207.287-.1.567-.214.857-.305a15.688 15.688 0 0 1 1.824-.434c1.207-.226-1.144.096-.027.004.357-.029.713-.06 1.07-.073a20.823 20.823 0 0 1 2.3.041c.37.027.737.07 1.105.105.87.081-1.21-.189-.334-.047.216.035.432.066.647.103.916.155 1.823.355 2.722.588a48.202 48.202 0 0 1 5.905 2.016c.65.262-.878-.388-.414-.175.135.063.273.118.41.178q.374.164.746.333.897.407 1.78.843 1.706.839 3.366 1.767a96.906 96.906 0 0 1 7.582 4.726q2.046 1.402 4.033 2.886.534.398 1.064.8c.144.11.286.22.43.328.73.555-.549-.434-.077-.06.768.61 1.542 1.21 2.305 1.826 15.282 12.342 28.553 27.148 40.866 42.39q2.906 3.597 5.743 7.25c1.328 1.709 4.444 1.5 5.82 0 1.662-1.81 1.417-3.997 0-5.82-13.051-16.783-27.096-33.126-43.337-46.927-9.464-8.043-20.023-15.895-32.005-19.71-6.32-2.011-14.374-2.944-20.06 1.262-5.35 3.957-6.658 10.566-5.223 16.808a24.42 24.42 0 0 0 9.691 13.98c2.437 1.78 4.992 3.393 7.419 5.193a130.657 130.657 0 0 1 6.504 5.157 178.669 178.669 0 0 1 24.025 24.739q.646.801 1.284 1.61.317.402.633.807c.094.12.628.81.233.297q1.236 1.603 2.44 3.232c1.278 1.724 3.622 2.772 5.63 1.477 1.707-1.1 2.848-3.781 1.477-5.631z" fill="#000000" class="fill-000000"></path><path d="M486.198 241.612c-11.167-15.09-25.394-30.185-43.06-41.846a20.212 20.212 0 0 1-8.754-12.186c-4.76-20.76 28.829-30.994 93.746 52.573" fill="#ffffff" class="fill-ffffff"></path><path d="M489.751 239.535a198.306 198.306 0 0 0-22.223-25.465A167.708 167.708 0 0 0 454 202.495q-3.473-2.673-7.091-5.147c-.562-.383-1.13-.755-1.693-1.135-.322-.218-.64-.437-.954-.666.14.102.535.446-.083-.07a22.607 22.607 0 0 1-2.745-2.69c.04.049-.726-.931-.395-.48.332.455-.386-.57-.35-.514q-.48-.713-.895-1.466a17.25 17.25 0 0 1-.765-1.54c.342.797-.12-.376-.144-.445q-.189-.546-.342-1.104-.195-.71-.333-1.434c-.03-.16-.056-.322-.086-.483-.011-.063-.017-.128-.03-.191-.122-.632.094.71.094.712a35.19 35.19 0 0 1-.043-3.58c.04-.635-.218 1.308-.083.626.028-.139.046-.28.073-.419q.079-.41.187-.814.107-.396.243-.783c.036-.102.079-.202.113-.305.259-.784-.494.998-.196.464.253-.454.462-.92.752-1.355.437-.653.457-.458-.151.164.184-.188.342-.405.525-.596q.264-.274.55-.526c.09-.08.19-.152.277-.236.437-.42-1.075.739-.38.296a15.88 15.88 0 0 1 1.366-.826c.13-.065.263-.121.392-.187.622-.32-1.173.441-.495.207.286-.1.566-.214.856-.305a15.684 15.684 0 0 1 1.825-.434c1.207-.226-1.145.096-.027.004.357-.029.713-.06 1.07-.073a20.823 20.823 0 0 1 2.3.041c.37.027.736.07 1.105.105.87.081-1.21-.189-.335-.047.216.035.433.066.648.103.915.155 1.823.355 2.722.588a48.183 48.183 0 0 1 5.905 2.016c.65.262-.878-.388-.415-.174.136.062.274.117.41.177q.375.164.746.333.897.407 1.781.843 1.706.839 3.365 1.768a96.775 96.775 0 0 1 7.583 4.725q2.045 1.402 4.032 2.886.535.398 1.065.8l.43.329c.73.554-.55-.435-.077-.06.768.609 1.542 1.21 2.304 1.825 15.283 12.342 28.554 27.148 40.866 42.39q2.907 3.597 5.743 7.251c1.328 1.708 4.445 1.499 5.82 0 1.663-1.811 1.417-3.998 0-5.82-13.05-16.784-27.095-33.127-43.336-46.928-9.465-8.043-20.023-15.895-32.005-19.71-6.32-2.011-14.374-2.944-20.061 1.262-5.35 3.957-6.657 10.566-5.222 16.808a24.42 24.42 0 0 0 9.691 13.98c2.436 1.78 4.992 3.393 7.418 5.193a130.658 130.658 0 0 1 6.505 5.157 178.674 178.674 0 0 1 24.025 24.739q.646.802 1.283 1.61.318.403.633.807c.095.12.629.81.233.297q1.237 1.604 2.44 3.233c1.278 1.724 3.622 2.77 5.631 1.476 1.707-1.1 2.848-3.781 1.476-5.63z" fill="#000000" class="fill-000000"></path><path d="M478.478 283.845c-15.851-26.715-36.855-49.135-51.644-61.642-3.63-3.07-7.401-6.065-8.775-10.615-5.352-17.724 22.3-32.496 82.425 40.842" fill="#ffffff" class="fill-ffffff"></path><path d="M500.485 252.43c-42.236-51.518-68.448-59.557-78.452-53.636 0 0-14.544 6.794-12.74 20.616" fill="#ffffff" class="fill-ffffff"></path><path d="M503.395 249.52a303.303 303.303 0 0 0-29.564-31.77c-7.301-6.668-15.124-13.015-23.749-17.906-5.741-3.255-11.916-5.888-18.51-6.668a19.785 19.785 0 0 0-11.821 2.165c-7.608 4.034-13.687 11.093-14.627 19.857a18.494 18.494 0 0 0 .054 4.212c.259 2.13 1.708 4.224 4.116 4.116 2.007-.09 4.393-1.827 4.115-4.116a22.957 22.957 0 0 1-.084-3.905c.05-1.043-.189.894.007-.116.057-.292.105-.586.17-.877a16.898 16.898 0 0 1 .555-1.947 2.898 2.898 0 0 1 .3-.79c-.564.641-.155.363.035-.033q.354-.735.771-1.437.406-.684.866-1.335c.1-.142.43-.462.46-.629q-.574.739-.167.23.16-.195.324-.388a24.94 24.94 0 0 1 2.014-2.09q.495-.458 1.013-.892c.164-.137.335-.268.498-.408.548-.47-.88.641-.026.02a30.227 30.227 0 0 1 3.19-2.062c.46-.253.927-.506 1.395-.742.161-.08.33-.147.49-.23.252-.132-1.273.47-.383.17.396-.133.787-.27 1.192-.375.394-.104.792-.18 1.192-.255 1-.188-.668.064-.358.041.255-.019.51-.054.765-.073a19.687 19.687 0 0 1 2.976.022c.258.02.514.049.771.075 1.094.11-1.052-.174-.167-.025.602.1 1.202.201 1.8.33a35.912 35.912 0 0 1 3.749 1.036q.975.324 1.934.694c.334.129.666.264 1 .397.3.12.892.463-.305-.131.223.11.46.198.688.299 1.537.68 3.043 1.43 4.52 2.229a94 94 0 0 1 10.176 6.452q1.346.97 2.666 1.975.341.259.68.52c-.878-.674-.079-.058.083.068q.817.64 1.625 1.293 3.084 2.487 6.045 5.122c11.55 10.242 21.923 21.78 31.706 33.697 1.371 1.671 4.417 1.529 5.82 0a4.23 4.23 0 0 0 0-5.82z" fill="#000000" class="fill-000000"></path><path d="M433.563 228.164c14.79 12.506 29.064 28.966 44.915 55.68" fill="#ffffff" class="fill-ffffff"></path><path d="M430.653 231.074a170.125 170.125 0 0 1 17.091 16.696q2.233 2.509 4.375 5.097 1.02 1.23 2.02 2.478.538.671 1.071 1.348.24.303.478.607c.092.118.772.994.312.398 3.033 3.923 5.922 7.96 8.704 12.065 3.576 5.277 6.964 10.679 10.22 16.159a4.116 4.116 0 0 0 7.108-4.155c-10.135-17.054-21.653-33.51-35.765-47.534q-4.715-4.685-9.793-8.98c-1.641-1.39-4.232-1.73-5.82 0-1.406 1.531-1.754 4.334 0 5.82zM618.8 427.882q24.987 17.982 50.045 35.864t50.189 35.664q25.234 17.855 50.54 35.61 25.201 17.68 50.473 35.26t50.613 35.057l6.31 4.35c2.186 1.506 4.247-2.06 2.077-3.554q-25.35-17.466-50.63-35.033t-50.49-35.234q-25.315-17.742-50.558-35.584-25.14-17.77-50.207-35.639T627.1 428.804l-6.222-4.475a2.074 2.074 0 0 0-2.816.738 2.103 2.103 0 0 0 .739 2.815zM643.102 386.593q25.952 15.741 51.693 31.827t51.262 32.518Q771.473 467.3 796.668 484q25.3 16.77 50.373 33.88t49.914 34.551q3.092 2.171 6.18 4.348c2.17 1.528 4.228-2.038 2.078-3.554q-24.813-17.483-49.856-34.635-25.044-17.15-50.317-33.963-25.166-16.742-50.555-33.148-25.494-16.473-51.208-32.603t-51.64-31.914q-3.227-1.965-6.458-3.924c-2.27-1.377-4.341 2.18-2.077 3.554z" fill="#000000" class="fill-000000"></path><path d="m375.583 824.599 267.438-301.672a215.8 215.8 0 0 1 62.553-45.382l49.846-23.932 71.089 86.065-14.404 29.488a80.72 80.72 0 0 1-58.568 44.578l-59.151 10.592a82.082 82.082 0 0 0-47.04 26.443L483.368 868.736" fill="#ffffff" class="fill-ffffff"></path><path d="m378.493 827.509 10.373-11.7 27.452-30.967 39.245-44.268L501.46 688.8l46.818-52.81 43.021-48.528 33.502-37.79 18.842-21.254c15.42-17.393 34.578-31.726 54.991-42.728 7.728-4.165 15.743-7.821 23.655-11.62l29.573-14.198 5.634-2.705-4.987-.644 23.982 29.035 38.266 46.329 8.84 10.702-.643-4.988-9.892 20.252c-4.168 8.533-8.1 17.185-14.158 24.602a77.257 77.257 0 0 1-36.12 24.755c-6.647 2.126-13.577 3.145-20.43 4.372l-48.675 8.716c-19.589 3.534-39.118 14.09-51.213 30.167l-16.497 21.927-29.789 39.595-36.273 48.213-36.048 47.914-28.788 38.266-14.604 19.41-.653.869c-1.337 1.777-.285 4.6 1.476 5.63 2.106 1.233 4.29.306 5.631-1.476l10.212-13.573 25.915-34.446 34.92-46.416 36.818-48.938 32.098-42.663 20.289-26.968c1.204-1.601 2.341-3.298 3.634-4.83.03-.035.052-.076.083-.11.078-.09.18-.097-.155.282.713-.808 1.46-1.59 2.212-2.362a75.593 75.593 0 0 1 9.11-8.05 78.73 78.73 0 0 1 20.952-11.174c7.168-2.487 14.611-3.644 22.047-4.976l28.753-5.148 20.304-3.636a84.636 84.636 0 0 0 35.64-15.34 86.76 86.76 0 0 0 26.097-31.616q5.498-11.282 11.017-22.554l3.194-6.54a4.33 4.33 0 0 0-.644-4.987l-23.982-29.035-38.267-46.328-8.84-10.702c-1.219-1.476-3.442-1.385-4.987-.643l-47.336 22.726a229.429 229.429 0 0 0-38.643 23.147c-9.826 7.375-19.51 15.457-27.73 24.623-4.822 5.379-9.585 10.813-14.378 16.22l-30.344 34.227-41.034 46.287-46.588 52.552-46.689 52.665-41.452 46.758-30.803 34.745-15.008 16.929-.664.75c-3.503 3.951 2.298 9.794 5.82 5.82z" fill="#000000" class="fill-000000"></path><path d="M801.834 525.91c16.187-9.508 32.701-22.06 46.164-38.394a20.211 20.211 0 0 1 13.043-7.416c21.148-2.54 27.773 31.944-62.189 87.662" fill="#ffffff" class="fill-ffffff"></path><path d="M803.911 529.463a198.405 198.405 0 0 0 27.609-19.497 159.787 159.787 0 0 0 12.52-11.793q2.945-3.094 5.707-6.356c.89-1.053 1.745-2.135 2.73-3.105q.618-.609 1.283-1.167c.138-.116.804-.613.224-.19.31-.226.623-.447.943-.658 2.334-1.531 3.393-1.758 6.251-2.487.475-.121-.466.025.162-.029.165-.014.329-.032.494-.045q.484-.037.969-.048c.623-.014 1.24.018 1.861.065 1.194.092-1.039-.194-.205-.033.286.055.573.101.857.167.553.127 1.078.313 1.615.492.764.253-1.22-.597-.23-.09.252.129.505.253.75.396.219.128.427.27.64.408.91.584-.818-.739-.14-.114.393.362.76.726 1.12 1.12.656.715-.657-.99-.155-.198.145.229.301.45.438.684.14.24.257.49.386.734.47.89-.406-1.165-.053-.12a13.965 13.965 0 0 1 .473 1.675c.108.527.063 1.58.014-.118.01.325.071.654.09.98a16.75 16.75 0 0 1-.01 2.043c-.022.355-.064.706-.097 1.06-.076.81.203-1.23.054-.404-.036.195-.063.392-.098.588a28.9 28.9 0 0 1-1.393 4.973c-.173.464-.38.917-.547 1.383-.017.05.478-1.087.236-.56-.054.119-.104.239-.156.357q-.176.398-.36.793c-.46.988-.956 1.96-1.48 2.916a67 67 0 0 1-4.027 6.4q-.55.78-1.12 1.549-.325.439-.655.874l-.27.353c-.48.637.561-.708.094-.123a140.105 140.105 0 0 1-2.987 3.648 136.025 136.025 0 0 1-7.014 7.565 212.637 212.637 0 0 1-19.148 16.849q-.736.58-1.476 1.155c-.957.747.362-.277-.22.17l-.76.584q-1.554 1.189-3.124 2.357-3.203 2.386-6.463 4.696-7.213 5.115-14.65 9.902-3.885 2.51-7.818 4.944a4.116 4.116 0 0 0 4.154 7.107c18.317-11.357 36.306-23.793 51.971-38.672a136.697 136.697 0 0 0 14.548-16.028 63.947 63.947 0 0 0 7.943-12.956c2.823-6.424 4.907-14.549.965-21.004-3.283-5.375-9.681-7.404-15.7-6.62a24.287 24.287 0 0 0-15.064 7.98c-3.995 4.514-7.88 9.039-12.233 13.224a166.49 166.49 0 0 1-13.37 11.538c.422-.328-.14.107-.186.142q-.51.39-1.022.777-.767.578-1.539 1.148-1.79 1.321-3.61 2.6-3.414 2.398-6.928 4.65-3.432 2.2-6.948 4.263a4.116 4.116 0 1 0 4.154 7.107z" fill="#000000" class="fill-000000"></path><path d="M789.249 502.823c16.187-9.508 32.701-22.06 46.164-38.393a20.212 20.212 0 0 1 13.043-7.417c21.148-2.539 27.773 31.944-62.189 87.662" fill="#ffffff" class="fill-ffffff"></path><path d="M791.326 506.377a198.425 198.425 0 0 0 27.61-19.498 159.822 159.822 0 0 0 12.52-11.792q2.944-3.095 5.706-6.356c.89-1.054 1.745-2.136 2.73-3.105q.618-.61 1.283-1.168c.138-.115.804-.612.224-.19.31-.225.622-.447.943-.657 2.333-1.532 3.393-1.758 6.251-2.488.474-.12-.466.025.162-.028.165-.014.329-.032.494-.045q.484-.037.969-.049c.623-.014 1.24.018 1.861.066 1.194.091-1.039-.194-.205-.034.286.055.573.102.857.167.553.127 1.078.314 1.615.492.764.254-1.22-.597-.23-.09.252.13.505.254.75.397.219.128.427.27.64.407.91.585-.818-.738-.14-.114.393.362.759.727 1.12 1.12.656.715-.657-.99-.155-.198.145.23.301.45.438.685.14.24.257.489.386.734.47.89-.407-1.165-.053-.12a13.947 13.947 0 0 1 .473 1.674c.108.528.063 1.58.014-.117.01.325.071.653.09.979a16.75 16.75 0 0 1-.01 2.044c-.022.354-.064.706-.097 1.06-.076.81.203-1.23.054-.405-.036.196-.063.393-.098.589a28.908 28.908 0 0 1-1.393 4.972c-.173.464-.38.918-.547 1.384-.017.05.478-1.087.236-.56-.054.118-.104.238-.156.357q-.176.398-.36.792c-.46.989-.956 1.96-1.48 2.917a66.98 66.98 0 0 1-4.027 6.4q-.551.78-1.12 1.548-.325.44-.655.875l-.27.352c-.48.638.562-.707.095-.122a139.938 139.938 0 0 1-2.987 3.647 136.064 136.064 0 0 1-7.014 7.565 212.666 212.666 0 0 1-19.148 16.85q-.736.58-1.476 1.155c-.957.746.362-.277-.22.17l-.76.583q-1.555 1.189-3.124 2.358-3.203 2.386-6.463 4.695-7.213 5.115-14.65 9.903-3.885 2.51-7.818 4.944a4.116 4.116 0 0 0 4.154 7.107c18.317-11.357 36.306-23.794 51.971-38.672a136.706 136.706 0 0 0 14.548-16.029 63.949 63.949 0 0 0 7.943-12.955c2.823-6.424 4.907-14.55.965-21.004-3.283-5.375-9.681-7.404-15.7-6.621a24.287 24.287 0 0 0-15.064 7.981c-3.995 4.514-7.88 9.038-12.233 13.223a166.51 166.51 0 0 1-13.37 11.538c.422-.327-.14.108-.186.143q-.51.389-1.023.777-.766.578-1.538 1.148-1.79 1.32-3.61 2.6-3.414 2.397-6.928 4.649-3.432 2.2-6.948 4.263a4.116 4.116 0 0 0 4.154 7.107z" fill="#000000" class="fill-000000"></path><path d="M774.51 476.648c16.188-9.508 32.702-22.06 46.165-38.393a20.211 20.211 0 0 1 13.043-7.417c21.147-2.54 27.772 31.944-62.19 87.662" fill="#ffffff" class="fill-ffffff"></path><path d="M776.588 480.202a198.417 198.417 0 0 0 27.609-19.498 159.804 159.804 0 0 0 12.52-11.792q2.945-3.095 5.707-6.356c.89-1.054 1.745-2.136 2.73-3.106q.618-.609 1.283-1.167c.138-.115.804-.612.223-.19.31-.226.623-.447.944-.657 2.333-1.532 3.393-1.758 6.251-2.488.474-.12-.466.025.162-.028.165-.014.329-.033.493-.045q.484-.038.97-.049c.623-.014 1.24.018 1.861.066 1.193.091-1.039-.194-.205-.034.286.055.573.102.857.167.553.127 1.078.314 1.615.492.764.254-1.22-.597-.23-.09.252.13.504.254.75.397.218.128.426.27.64.407.91.585-.819-.738-.14-.114.392.362.758.726 1.12 1.12.655.715-.658-.99-.156-.198.145.23.302.45.438.685.14.24.257.489.386.734.47.89-.406-1.166-.052-.12a13.965 13.965 0 0 1 .472 1.674c.109.528.063 1.58.015-.117.009.325.07.653.09.979a16.77 16.77 0 0 1-.01 2.044c-.023.354-.065.706-.098 1.059-.075.81.203-1.23.054-.404-.036.196-.063.393-.098.588a28.909 28.909 0 0 1-1.393 4.973c-.173.464-.38.918-.546 1.384-.018.05.477-1.087.235-.56-.054.118-.103.238-.156.356q-.175.399-.36.793c-.46.989-.956 1.96-1.48 2.916a67 67 0 0 1-4.027 6.4q-.55.781-1.12 1.549-.324.44-.655.875l-.269.352c-.48.638.561-.707.094-.122a139.9 139.9 0 0 1-2.987 3.647 136.062 136.062 0 0 1-7.014 7.565 212.638 212.638 0 0 1-19.147 16.85q-.737.58-1.477 1.154c-.957.747.362-.277-.22.17l-.76.584q-1.554 1.189-3.124 2.358-3.203 2.386-6.463 4.695-7.212 5.115-14.65 9.902-3.885 2.51-7.818 4.944a4.116 4.116 0 0 0 4.155 7.108c18.317-11.357 36.306-23.794 51.97-38.672a136.697 136.697 0 0 0 14.549-16.029 63.942 63.942 0 0 0 7.942-12.956c2.823-6.423 4.907-14.548.965-21.004-3.283-5.374-9.68-7.404-15.7-6.62a24.287 24.287 0 0 0-15.064 7.981c-3.995 4.513-7.88 9.038-12.233 13.223a166.49 166.49 0 0 1-13.37 11.538c.423-.328-.14.107-.186.142q-.51.39-1.022.777-.766.578-1.538 1.148-1.79 1.321-3.61 2.6-3.415 2.398-6.929 4.65-3.431 2.2-6.948 4.263a4.116 4.116 0 1 0 4.155 7.107z" fill="#000000" class="fill-000000"></path><path d="m236.224 850.317 143.811-175.69 128.933 165.064L410.497 975" fill="#ffce07" class="fill-edbc64"></path><path d="m239.134 853.227 3.864-4.72 10.453-12.77 15.445-18.869 18.932-23.128 20.644-25.22 20.84-25.46 19.52-23.847 16.422-20.063 11.82-14.44c1.869-2.283 3.87-4.508 5.63-6.878.075-.102.16-.197.24-.294h-5.82l3.44 4.402 9.36 11.984 13.924 17.826 16.911 21.65 18.522 23.711 18.697 23.937 17.438 22.325 14.809 18.957 10.593 13.561c1.67 2.138 3.273 4.357 5.023 6.431.076.09.145.186.217.278l-.643-4.987-9.826 13.502-23.502 32.293-28.503 39.167-24.55 33.735-8.05 11.061c-1.286 1.766-2.678 3.494-3.875 5.323-.05.078-.11.153-.166.228-1.309 1.799-.306 4.589 1.477 5.631 2.081 1.218 4.319.326 5.63-1.476l9.827-13.502 23.5-32.293 28.504-39.167 24.551-33.735 8.05-11.061c1.283-1.762 2.701-3.485 3.874-5.323.05-.079.111-.153.166-.228 1.162-1.597.413-3.635-.643-4.988l-3.44-4.402-9.36-11.984-13.924-17.826-16.91-21.65-18.523-23.711-18.697-23.937-17.438-22.325-14.809-18.958-10.593-13.561c-1.668-2.136-3.26-4.371-5.023-6.43-.076-.09-.145-.187-.217-.28-1.28-1.638-4.535-1.57-5.82 0l-3.864 4.72-10.453 12.77-15.445 18.87-18.931 23.128-20.645 25.22-20.84 25.46-19.52 23.847-16.422 20.063-11.82 14.44c-1.877 2.293-3.765 4.577-5.63 6.878l-.24.294a4.235 4.235 0 0 0 0 5.82c1.451 1.452 4.405 1.729 5.82 0z" fill="#000000" class="fill-000000"></path><path d="M733.331 464.507c28.24-12.938 52.756-31.454 66.756-44.838 3.436-3.284 6.814-6.718 11.484-7.604 18.19-3.447 29.956 25.612-49.328 77.646" fill="#ffffff" class="fill-ffffff"></path><path d="M762.243 489.711c55.695-36.552 66.46-61.767 61.63-72.34 0 0-5.219-15.182-19.154-14.848" fill="#ffffff" class="fill-ffffff"></path><path d="M764.32 493.265a311.522 311.522 0 0 0 35.42-26.569 132.878 132.878 0 0 0 20.427-21.999c3.597-5.035 6.882-10.742 8.218-16.846a21.977 21.977 0 0 0 .55-6.923 17.408 17.408 0 0 0-.645-3.488 19.173 19.173 0 0 0-.792-1.987c.017.037.553 1.336.194.424-3.108-7.88-9.399-15.329-18.075-17.012a23.892 23.892 0 0 0-4.898-.458 4.115 4.115 0 1 0 0 8.231c.655-.01 1.31.003 1.962.057.45.038.855.154.147.002.346.074.697.121 1.043.198a16.716 16.716 0 0 1 1.695.471c.27.09.533.207.804.293.457.146-.358-.14-.334-.144.113-.015.4.183.505.233a26.405 26.405 0 0 1 2.877 1.74c.21.136-.631-.527-.01-.004.195.166.393.33.585.5q.611.542 1.18 1.127.509.523.984 1.077c.154.179.304.362.455.544.074.089.142.184.217.272.333.388-.505-.706-.225-.289.494.737 1.024 1.442 1.486 2.202a38.083 38.083 0 0 1 1.828 3.523c-.047-.1-.463-1.148-.176-.408.042.11.082.22.125.33.014.033.024.069.038.102.153.384.313.768.486 1.143-.034-.072-.464-1.217-.264-.615a18.582 18.582 0 0 1 .614 2.241c.184.914-.08-.873-.048-.405.014.22.045.44.06.662.031.445.04.892.033 1.338-.008.475-.037.949-.083 1.421-.011.118-.027.235-.038.353-.058.65.063-.512.086-.615-.058.26-.08.532-.127.795a25.998 25.998 0 0 1-.817 3.265q-.28.885-.612 1.753c-.111.291-.233.579-.345.87-.225.586.429-.97.166-.393-.078.173-.152.35-.23.523a54.267 54.267 0 0 1-4.675 8.233q-.766 1.13-1.574 2.233-.405.553-.818 1.099c-.096.127-.596.772-.175.233.424-.542-.154.196-.262.332q-1.964 2.492-4.08 4.857a149.196 149.196 0 0 1-10.52 10.601c-4.527 4.16-9.256 8.097-14.104 11.876l-.476.37c.07-.054.404-.312.032-.024q-.486.374-.974.747-1.075.82-2.157 1.631-2.153 1.614-4.334 3.191-4.653 3.368-9.413 6.585-2.532 1.716-5.09 3.394a4.116 4.116 0 1 0 4.155 7.107z" fill="#000000" class="fill-000000"></path><path d="M793.449 425.73c-14 13.385-31.877 25.839-60.118 38.777" fill="#ffffff" class="fill-ffffff"></path><path d="M790.539 422.82q-4.188 3.997-8.64 7.701-1.077.894-2.169 1.77-.65.522-1.306 1.038l-.53.414c-.687.54.528-.398-.236.184q-2.48 1.892-5.016 3.709a219.717 219.717 0 0 1-24.323 14.907c-5.598 2.981-11.3 5.765-17.065 8.41-1.962.901-2.599 3.89-1.476 5.631a4.233 4.233 0 0 0 5.63 1.477c18.05-8.284 35.461-18.023 50.915-30.574q5.195-4.218 10.036-8.846a4.154 4.154 0 0 0 0-5.82 4.198 4.198 0 0 0-5.82 0z" fill="#000000" class="fill-000000"></path><path d="M159.922 356.789 469.4 613.246a215.797 215.797 0 0 1 48.688 60.015l26.583 48.484-82.109 75.623-30.22-12.793a80.72 80.72 0 0 1-47.67-56.08L370.906 670a82.082 82.082 0 0 0-28.94-45.546L146.962 413.218" fill="#ffffff" class="fill-ffffff"></path><path d="m157.012 359.7 11.975 9.923 31.823 26.37 45.517 37.72 53.227 44.108 54.44 45.112 49.652 41.146 38.713 32.08 21.618 17.915a211.535 211.535 0 0 1 45.835 53.083c4.522 7.453 8.574 15.207 12.764 22.849l15.613 28.475 2.928 5.34.644-4.986-27.851 25.65-44.044 40.566-10.214 9.407 4.987-.643-21.78-9.22c-9.46-4.005-18.873-7.91-27.008-14.37a77.241 77.241 0 0 1-25.662-37.169c-1.967-6.27-3.232-12.809-4.736-19.2l-6.994-29.72c-1.433-6.091-2.7-12.254-4.366-18.288a86.3 86.3 0 0 0-27.046-42.524 54.34 54.34 0 0 1-4.939-4.78l-21.314-23.089-35.768-38.745-42.579-46.123-41.84-45.323-33.202-35.965-16.782-18.178-.75-.814c-3.601-3.9-9.41 1.931-5.82 5.82l11.717 12.693 29.978 32.474 40.476 43.846 43.215 46.812 38.191 41.37 25.406 27.52c1.827 1.98 3.623 3.993 5.483 5.94 1.154 1.208 2.51 2.173 3.768 3.278a78.701 78.701 0 0 1 16.068 19.462c4.96 8.502 7.657 17.636 9.889 27.119l6.48 27.543 5.593 23.767a85 85 0 0 0 31.553 49.526 82.41 82.41 0 0 0 9.633 6.385q2.541 1.434 5.181 2.68 1.327.628 2.676 1.205c.27.116 1.869.79 1.097.464-.355-.15-.185-.079-.105-.045q11.478 4.848 22.948 9.715l7.185 3.04a4.344 4.344 0 0 0 4.987-.643l27.852-25.651 44.044-40.565 10.213-9.407a4.186 4.186 0 0 0 .644-4.988l-25.162-45.89c-13.176-24.03-30.13-46.233-51.252-63.855-5.446-4.544-10.923-9.052-16.384-13.577l-35.016-29.017-47.654-39.49-54-44.747-53.971-44.726-47.952-39.736-35.777-29.647-17.467-14.475-.758-.628a4.232 4.232 0 0 0-5.82 0c-1.46 1.46-1.72 4.395 0 5.82z" fill="#000000" class="fill-000000"></path><path d="m190.885 264.448 223.154 247.949 3.369 54.723-60.871 72.255-57.263-10.796-217.487-247.24" fill="#ffce07" class="fill-edbc64"></path><path d="m187.975 267.358 5.98 6.645 16.273 18.081 23.96 26.623 29.34 32.6 32.138 35.708 32.314 35.904 30.135 33.484 25.571 28.412 18.383 20.425c2.887 3.208 5.683 6.542 8.682 9.647.13.135.252.28.378.42l-1.205-2.91 2.95 47.917.418 6.806 1.205-2.91-20.572 24.42-32.783 38.914-7.515 8.921 4.004-1.058-50.162-9.457-7.1-1.339 1.815 1.059-5.842-6.642-15.819-17.982-23.375-26.574-28.632-32.549-31.24-35.514-31.531-35.845-29.512-33.549-24.836-28.234-17.863-20.306c-2.818-3.205-5.557-6.51-8.47-9.63-.126-.135-.244-.278-.366-.417a4.115 4.115 0 0 0-5.82 5.82l8.01 9.107 21.363 24.286 30.489 34.66 36.037 40.967 37.406 42.523 34.561 39.29 28.192 32.049 17.58 19.984c1.178 1.34 2.314 2.743 3.547 4.033 1.878 1.965 5.243 1.99 7.77 2.467l47.767 9.005 3.842.724a4.152 4.152 0 0 0 4.005-1.058l30.676-36.414 20.774-24.658 6.935-8.233a30.065 30.065 0 0 0 3.129-3.783c1.222-2.088.334-5.77.197-8.009l-.932-15.137-1.867-30.33c-.135-2.186.03-4.535-1.464-6.293-.391-.461-.81-.901-1.215-1.35l-6.903-7.67-28.451-31.613-41.446-46.05-46.893-52.105-44.96-49.956-34.922-38.801-17.533-19.482-.777-.863c-3.551-3.945-9.357 1.89-5.82 5.82z" fill="#000000" class="fill-000000"></path><path d="M474.98 771.988c10.368 15.651 23.791 31.465 40.827 44.028a20.212 20.212 0 0 1 8.108 12.624c3.676 20.98-30.4 29.454-90.886-57.374" fill="#ffffff" class="fill-ffffff"></path><path d="M471.427 774.065a198.562 198.562 0 0 0 20.914 26.554 159.81 159.81 0 0 0 12.45 11.867 165.78 165.78 0 0 0 7.127 5.725c.6.458 1.21.904 1.812 1.358-.565-.426.1.084.234.195q.371.31.73.635.64.585 1.234 1.22.328.35.642.715c.034.04.771 1.004.31.368a20.99 20.99 0 0 1 1.797 2.93c.033.067.542 1.213.212.41.097.235.186.476.272.715a18.216 18.216 0 0 1 .593 2.029c.125.543.193 1.092.301 1.637-.354-1.783-.07-.524-.033-.031a15.767 15.767 0 0 1 .035 1.862c-.012.27-.037.537-.057.805-.074 1.02.245-1.309.018-.14a13.617 13.617 0 0 1-.404 1.639c-.077.233-.18.46-.253.694-.134.429.573-1.21.222-.536-.068.13-.126.267-.194.398-.239.465-.547.873-.816 1.318.439-.727.647-.78.12-.188q-.277.311-.582.597c-.175.164-.372.306-.544.472.717-.689.753-.541.11-.12a15.713 15.713 0 0 1-1.476.8c-.452.232 1.266-.472.541-.233-.125.042-.248.094-.373.138q-.45.157-.91.277-.433.113-.873.196c-.142.027-.286.047-.429.074-.836.16 1.22-.124.456-.061a23.923 23.923 0 0 1-4.272-.048c-.848-.08 1.221.197.37.05-.184-.032-.37-.058-.554-.09q-.67-.115-1.333-.265a32.321 32.321 0 0 1-2.548-.685 39.939 39.939 0 0 1-2.87-1.021c-.25-.1-.495-.217-.748-.305-.035-.012 1.073.465.529.222l-.305-.133a61.571 61.571 0 0 1-1.634-.75 67.011 67.011 0 0 1-6.607-3.675c-2.49-1.563-4.888-3.264-7.23-5.04-.898-.682.515.41-.241-.186-.297-.234-.595-.467-.89-.702q-1.065-.848-2.112-1.718-2.057-1.71-4.05-3.495a212.653 212.653 0 0 1-17.857-18.212q-5.165-5.875-10.024-12.01c-3.508-4.41-6.781-8.746-10.296-13.592q-2.715-3.744-5.358-7.54c-1.229-1.762-3.66-2.747-5.63-1.476-1.752 1.129-2.794 3.742-1.477 5.63 12.328 17.68 25.67 35.006 41.373 49.848 9.053 8.557 19.191 16.821 30.957 21.3 6.188 2.357 14.347 3.716 20.195-.303 5.54-3.808 6.997-10.307 5.883-16.641a23.7 23.7 0 0 0-8.55-13.97c-2.563-2.05-4.479-3.375-7.01-5.47q-3.517-2.912-6.853-6.032a167.932 167.932 0 0 1-12.242-12.728q-2.79-3.218-5.43-6.562l-.52-.663c.012.017-.832-1.073-.388-.495q-.637-.83-1.266-1.665-1.247-1.659-2.459-3.343-2.382-3.308-4.632-6.708a4.191 4.191 0 0 0-5.63-1.476c-1.787 1.151-2.75 3.712-1.477 5.63z" fill="#000000" class="fill-000000"></path><path d="M497.356 758.177c10.367 15.651 23.79 31.465 40.825 44.028a20.211 20.211 0 0 1 8.109 12.624c3.675 20.98-30.4 29.454-90.886-57.374" fill="#ffffff" class="fill-ffffff"></path><path d="M493.802 760.254a198.572 198.572 0 0 0 20.913 26.554 159.81 159.81 0 0 0 12.45 11.867 165.86 165.86 0 0 0 7.128 5.725c.6.458 1.209.904 1.811 1.358-.564-.425.1.084.234.195q.372.31.73.635.641.585 1.235 1.22.328.35.641.715c.035.04.772 1.004.311.368a20.997 20.997 0 0 1 1.796 2.93c.034.067.543 1.213.213.41.097.235.186.476.272.716a18.212 18.212 0 0 1 .592 2.028c.126.544.193 1.092.302 1.637-.354-1.782-.071-.524-.033-.03a15.766 15.766 0 0 1 .034 1.861c-.01.27-.036.537-.056.805-.074 1.02.245-1.309.018-.14a13.635 13.635 0 0 1-.405 1.639c-.076.233-.18.46-.252.694-.135.429.573-1.21.222-.536-.068.13-.126.267-.194.398-.239.465-.548.873-.817 1.318.44-.726.648-.78.12-.188q-.277.312-.581.597c-.175.164-.372.306-.545.472.717-.689.753-.541.11-.119a15.724 15.724 0 0 1-1.475.799c-.452.232 1.265-.471.541-.232-.125.041-.248.093-.373.137q-.45.157-.91.277-.433.113-.873.196c-.143.027-.287.047-.43.074-.836.16 1.22-.123.457-.061a23.923 23.923 0 0 1-4.272-.048c-.848-.08 1.221.198.37.05-.184-.032-.37-.057-.555-.09q-.67-.115-1.333-.265a32.365 32.365 0 0 1-2.548-.685 39.939 39.939 0 0 1-2.87-1.021c-.249-.1-.495-.217-.747-.305-.035-.012 1.073.466.529.222l-.306-.132a60.03 60.03 0 0 1-1.633-.751 67.011 67.011 0 0 1-6.607-3.676c-2.49-1.563-4.888-3.263-7.23-5.04-.899-.68.514.41-.242-.186-.296-.234-.594-.466-.89-.701q-1.065-.848-2.111-1.718-2.058-1.71-4.05-3.496a212.654 212.654 0 0 1-17.858-18.211q-5.165-5.875-10.024-12.01c-3.508-4.41-6.781-8.747-10.296-13.592q-2.715-3.744-5.358-7.54c-1.228-1.762-3.66-2.748-5.63-1.477-1.752 1.13-2.794 3.743-1.477 5.631 12.328 17.679 25.67 35.005 41.373 49.847 9.053 8.558 19.191 16.822 30.958 21.301 6.188 2.356 14.347 3.716 20.194-.304 5.54-3.808 6.997-10.306 5.884-16.64a23.7 23.7 0 0 0-8.551-13.97c-2.563-2.051-4.479-3.376-7.01-5.47q-3.517-2.912-6.853-6.032a167.952 167.952 0 0 1-12.242-12.729q-2.79-3.217-5.43-6.561l-.52-.663c.013.017-.832-1.074-.387-.496q-.638-.829-1.266-1.665-1.247-1.658-2.46-3.343-2.382-3.307-4.631-6.707a4.191 4.191 0 0 0-5.631-1.477c-1.786 1.152-2.75 3.713-1.477 5.631z" fill="#000000" class="fill-000000"></path><path d="M522.698 742.05c10.367 15.65 23.79 31.464 40.826 44.027a20.212 20.212 0 0 1 8.109 12.624c3.675 20.98-30.4 29.454-90.887-57.374" fill="#ffffff" class="fill-ffffff"></path><path d="M519.145 744.126a198.572 198.572 0 0 0 20.913 26.554 159.79 159.79 0 0 0 12.45 11.868 165.8 165.8 0 0 0 7.128 5.725c.6.457 1.209.903 1.811 1.358-.564-.426.1.083.234.195q.371.31.73.635.641.584 1.234 1.219.329.35.642.715c.035.04.772 1.005.311.368a20.987 20.987 0 0 1 1.796 2.93c.034.068.543 1.213.213.41.097.236.186.476.271.716a18.19 18.19 0 0 1 .593 2.028c.126.544.193 1.093.301 1.638-.353-1.783-.07-.525-.033-.032a15.787 15.787 0 0 1 .035 1.863c-.011.269-.037.536-.056.805-.074 1.02.244-1.31.017-.14a13.635 13.635 0 0 1-.404 1.638c-.076.234-.18.46-.253.694-.134.43.574-1.21.223-.536-.069.131-.127.267-.194.398-.24.466-.548.874-.817 1.318.44-.726.647-.78.12-.188q-.277.312-.581.597c-.175.165-.372.307-.545.472.717-.688.753-.54.11-.119a15.77 15.77 0 0 1-1.475.8c-.452.232 1.265-.472.541-.233-.126.041-.248.094-.373.137q-.45.157-.91.277-.434.113-.873.196c-.143.027-.287.047-.43.074-.836.16 1.22-.123.457-.06a23.923 23.923 0 0 1-4.272-.048c-.848-.081 1.22.197.37.05-.185-.032-.37-.058-.555-.09q-.67-.116-1.333-.265a32.351 32.351 0 0 1-2.548-.686 39.922 39.922 0 0 1-2.87-1.02c-.249-.1-.495-.218-.747-.306-.035-.012 1.072.466.528.222-.1-.045-.203-.087-.305-.132a60.035 60.035 0 0 1-1.633-.75 66.998 66.998 0 0 1-6.607-3.676c-2.49-1.563-4.888-3.264-7.23-5.04-.899-.682.514.41-.242-.186-.296-.234-.594-.467-.89-.702q-1.065-.848-2.111-1.718-2.058-1.71-4.05-3.495a212.653 212.653 0 0 1-17.857-18.212q-5.165-5.875-10.024-12.01c-3.508-4.41-6.782-8.746-10.296-13.592q-2.716-3.744-5.358-7.54c-1.23-1.762-3.66-2.747-5.631-1.476-1.751 1.129-2.794 3.742-1.477 5.63 12.328 17.68 25.67 35.006 41.373 49.848 9.054 8.557 19.192 16.821 30.958 21.3 6.188 2.357 14.347 3.716 20.195-.303 5.54-3.809 6.997-10.307 5.883-16.642a23.7 23.7 0 0 0-8.55-13.969c-2.563-2.05-4.48-3.375-7.01-5.47q-3.517-2.912-6.853-6.032a167.971 167.971 0 0 1-12.242-12.728q-2.79-3.218-5.43-6.562l-.52-.663c.013.017-.832-1.073-.388-.495q-.637-.83-1.266-1.666-1.246-1.658-2.459-3.342-2.382-3.308-4.632-6.708a4.191 4.191 0 0 0-5.63-1.476c-1.787 1.151-2.75 3.712-1.477 5.63z" fill="#000000" class="fill-000000"></path><path d="M532.602 700.275c14.442 27.502 34.252 50.985 48.37 64.243 3.466 3.254 7.076 6.442 8.212 11.057 4.423 17.979-23.96 31.293-80.191-45.072" fill="#ffffff" class="fill-ffffff"></path><path d="M508.993 730.503c39.5 53.644 65.26 63.035 75.558 57.642 0 0 14.877-6.03 13.793-19.926" fill="#ffffff" class="fill-ffffff"></path><path d="M505.44 732.58a311.313 311.313 0 0 0 28.395 33.974 133.605 133.605 0 0 0 22.941 19.197c5.22 3.33 11.102 6.379 17.272 7.4a24.255 24.255 0 0 0 7.945.123 12.97 12.97 0 0 0 2.428-.618 16.65 16.65 0 0 0 1.973-.839c.597-.31-1.803.742-.211.07.241-.102.485-.202.724-.31 7.361-3.31 14.1-10.22 15.296-18.42a22.936 22.936 0 0 0 .257-4.938 4.193 4.193 0 0 0-4.115-4.116c-2.103.094-4.275 1.816-4.116 4.116.046.658.069 1.317.048 1.977q-.014.475-.054.948c-.013.153-.038.308-.047.462-.03.571.164-.73.02-.188-.15.57-.226 1.16-.386 1.73-.107.386-.277 1.502-.595 1.752-.02.016.362-.76.142-.343-.064.121-.115.252-.174.376q-.177.37-.37.73c-.275.512-.574 1.01-.895 1.494-.145.219-.298.432-.448.648-.466.667.172-.187.016-.01-.36.413-.7.841-1.074 1.243a24.699 24.699 0 0 1-2.168 2.056c-.172.145-.349.286-.523.43-.61.502.342-.245.142-.109-.368.252-.72.527-1.09.778a28.055 28.055 0 0 1-3.348 1.96c-.27.133-.57.237-.83.387-.046.027 1.741-.735.37-.156-.325.137-.65.279-.965.44-.749.383 1.015-.368.403-.17-.189.062-.373.14-.563.202-.378.124-.762.229-1.151.315-.194.044-.39.077-.585.117-.973.196.742-.066.335-.036-.447.033-.89.086-1.338.1a28.619 28.619 0 0 1-2.943-.139c-.58-.04 1.169.184.59.08-.127-.022-.256-.038-.383-.058q-.426-.068-.85-.151-.855-.168-1.699-.39a35.123 35.123 0 0 1-3.662-1.184c-.338-.129-.673-.266-1.01-.4-.68-.273.598.261.35.148-.185-.085-.374-.163-.56-.246q-1.041-.463-2.06-.974a63.068 63.068 0 0 1-4.378-2.422 81.914 81.914 0 0 1-4.722-3.089q-1.258-.884-2.489-1.807-.306-.23-.61-.461c-.102-.078-.204-.158-.307-.235-.354-.267.323.256.32.247-.18-.371-1.024-.802-1.353-1.066-3.897-3.118-7.601-6.473-11.166-9.964a274.667 274.667 0 0 1-25.96-29.915q-1.85-2.437-3.663-4.9c-1.274-1.728-3.626-2.77-5.631-1.477-1.71 1.103-2.843 3.778-1.476 5.631z" fill="#000000" class="fill-000000"></path><path d="M574.562 758.216c-14.118-13.258-27.518-30.439-41.96-57.94" fill="#ffffff" class="fill-ffffff"></path><path d="M577.472 755.306a170.118 170.118 0 0 1-16.2-17.563q-.952-1.189-1.885-2.394c.48.62-.015-.022-.133-.177q-.222-.29-.443-.583-.615-.811-1.221-1.629-2.048-2.762-4.002-5.592-4.23-6.12-8.065-12.501c-3.297-5.456-6.4-11.027-9.367-16.669a4.149 4.149 0 0 0-5.63-1.476 4.208 4.208 0 0 0-1.477 5.63c9.243 17.575 19.915 34.547 33.29 49.297q4.464 4.924 9.313 9.477a4.115 4.115 0 0 0 5.82-5.82z" fill="#000000" class="fill-000000"></path><path d="m439.653 398.334-60.7 67.277a215.798 215.798 0 0 1-62.947 44.834l-50.053 23.495-70.334-86.683 14.66-29.361a80.72 80.72 0 0 1 58.956-44.064l59.241-10.075a82.083 82.083 0 0 0 47.269-26.03l25.325-33.056" fill="#ffffff" class="fill-ffffff"></path><path d="m436.743 395.424-5.704 6.322-13.816 15.314-16.985 18.824-15.208 16.856-8.488 9.408c-2.335 2.587-4.902 4.986-7.44 7.37q-4.014 3.767-8.215 7.327-2.14 1.812-4.326 3.569-1.008.81-2.026 1.608c-.25.197-.95.74-.946.737l-.953.726a215.978 215.978 0 0 1-37.924 23.037c-3.946 1.872-7.907 3.713-11.861 5.57l-22.392 10.51-15.774 7.405-.809.38 4.987.644-7.014-8.646-16.764-20.66-20.354-25.085-17.53-21.605c-2.84-3.502-5.56-7.167-8.553-10.542-.041-.046-.079-.097-.118-.146l.644 4.988 8.882-17.79c3.486-6.98 6.72-14.242 11.048-20.752.953-1.433 1.965-2.819 2.99-4.2.28-.376-.04.051-.083.106q.226-.29.454-.577.342-.431.69-.858.869-1.064 1.774-2.098a80.729 80.729 0 0 1 7.2-7.247q.955-.846 1.936-1.661.49-.408.986-.808l.427-.34c.12-.096.786-.618.171-.142a76.944 76.944 0 0 1 4.138-2.978 80.774 80.774 0 0 1 8.81-5.15q2.29-1.151 4.649-2.155c-.72.305.323-.127.542-.215q.597-.24 1.197-.47 1.202-.461 2.419-.883a80.627 80.627 0 0 1 10.171-2.798c1.882-.388 3.78-.692 5.675-1.015l21.919-3.727 25.738-4.377c6.242-1.062 12.518-1.973 18.596-3.806a86.537 86.537 0 0 0 38.612-24.161c1.511-1.648 2.808-3.549 4.167-5.322l7.411-9.674 14.079-18.377.852-1.112c1.315-1.716.321-4.681-1.477-5.631-2.177-1.15-4.227-.356-5.63 1.476l-10.77 14.058-13.873 18.108c-.184.24-.361.486-.552.72-.038.047-.07.103-.111.146-.07.07-.203.48.168-.243.3-.584.077-.132-.085.03-.235.236-.455.492-.683.735a82.09 82.09 0 0 1-8.195 7.606q-.542.438-1.09.867c.532-.416-.448.336-.59.442q-1.194.891-2.42 1.739-2.285 1.58-4.674 3.002a80.096 80.096 0 0 1-9.899 5.023c.608-.256-.5.199-.67.266q-.645.258-1.295.505-1.302.495-2.62.945-2.64.903-5.34 1.624a84.104 84.104 0 0 1-7.557 1.643q-2.51.43-5.022.854l-23.863 4.058-24.416 4.153c-7.14 1.214-14.178 2.53-20.991 5.123a85.213 85.213 0 0 0-34.46 24.04 86.91 86.91 0 0 0-11.784 17.783q-1.481 2.977-2.97 5.95l-10.912 21.852-.777 1.557a4.329 4.329 0 0 0 .643 4.987l7.015 8.646 16.764 20.661 20.353 25.084 17.53 21.605 5.802 7.152c.91 1.12 1.767 2.333 2.75 3.39.043.045.08.097.12.146 1.211 1.493 3.445 1.367 4.987.643l11.463-5.38 22.54-10.581 15.391-7.225a220.252 220.252 0 0 0 30.797-17.541 226.282 226.282 0 0 0 18.32-13.962 176.236 176.236 0 0 0 15.327-14.29c2.036-2.188 4.008-4.442 6.01-6.661l13.978-15.493 17.085-18.936 15.061-16.692 8.173-9.059.388-.43a4.116 4.116 0 0 0-5.82-5.82z" fill="#000000" class="fill-000000"></path><path d="M220.172 461.24c-16.27 9.367-32.893 21.774-46.498 37.99a20.212 20.212 0 0 1-13.107 7.302c-21.17 2.354-27.492-32.186 62.953-87.116" fill="#ffffff" class="fill-ffffff"></path><path d="M218.095 457.687a198.565 198.565 0 0 0-27.605 19.124 159.896 159.896 0 0 0-12.79 11.821q-2.972 3.07-5.762 6.307c-.87 1.01-1.704 2.049-2.658 2.983-.425.417-.872.804-1.32 1.195-.935.816.61-.376-.415.32-.325.22-.645.448-.978.658q-.746.472-1.531.877c-.29.15-.584.292-.88.43.157-.074.665-.248-.101.04a19.983 19.983 0 0 1-3.794 1.016c.675-.11-.356.022-.585.036q-.483.03-.967.035a19.253 19.253 0 0 1-1.81-.088c-.432-.037-.904-.26.603.086-.143-.033-.294-.042-.438-.07-.285-.057-.57-.11-.853-.18-.537-.133-1.043-.326-1.565-.501-.58-.195 1.161.544.567.237-.12-.062-.247-.114-.369-.174q-.361-.18-.708-.388c-.217-.13-.421-.278-.634-.416-.595-.385.373.27.484.382-.11-.11-.251-.196-.366-.302a18.061 18.061 0 0 1-1.05-1.078c-.53-.577.583.844.347.455-.069-.114-.161-.215-.232-.328-.145-.23-.294-.456-.427-.693-.122-.218-.223-.446-.34-.666-.379-.718.362.966.214.518-.045-.136-.105-.267-.153-.401a11.587 11.587 0 0 1-.467-1.724c-.03-.153-.05-.308-.08-.46-.14-.7.113 1.165.082.621-.019-.343-.067-.685-.083-1.03a16.84 16.84 0 0 1 .034-2.047c.022-.287.175-1.539.044-.571-.13.96.077-.427.137-.735a29.236 29.236 0 0 1 1.466-4.977c.08-.207.163-.412.245-.618.365-.918-.281.622-.093.218.22-.474.423-.955.648-1.427.481-1.01 1-2.003 1.549-2.98a67.207 67.207 0 0 1 4.04-6.287q.557-.776 1.133-1.539c.209-.278 1.05-1.182.155-.21.275-.299.51-.653.763-.97q1.435-1.8 2.948-3.533a136.252 136.252 0 0 1 7.08-7.503 184.669 184.669 0 0 1 8.753-8.07q2.555-2.214 5.175-4.35 1.237-1.01 2.486-2.003.71-.565 1.425-1.125l.578-.452c.11-.086 1.064-.825.756-.588-.459.353.518-.397.474-.363l.601-.459q.76-.578 1.525-1.152 1.564-1.175 3.144-2.33 3.223-2.358 6.503-4.639 7.257-5.051 14.736-9.773 3.907-2.476 7.861-4.876a4.116 4.116 0 0 0-4.154-7.107c-18.376 11.172-36.42 23.426-52.191 38.12a132.2 132.2 0 0 0-14.284 15.352 67.232 67.232 0 0 0-8.562 13.544c-2.882 6.404-4.985 14.466-1.134 20.96 3.136 5.286 9.395 7.434 15.295 6.808a24.327 24.327 0 0 0 15.495-7.907c4.039-4.482 7.967-8.98 12.361-13.13q3.275-3.093 6.718-6 1.494-1.263 3.018-2.491c1.217-.982 2.378-1.89 3.243-2.546q6.712-5.096 13.863-9.576 3.45-2.17 6.985-4.203a4.116 4.116 0 0 0-4.155-7.107z" fill="#000000" class="fill-000000"></path><path d="M232.555 484.436c-16.27 9.367-32.893 21.774-46.498 37.989a20.212 20.212 0 0 1-13.108 7.302c-21.169 2.354-27.492-32.185 62.953-87.115" fill="#ffffff" class="fill-ffffff"></path><path d="M230.478 480.883a198.564 198.564 0 0 0-27.606 19.124 159.914 159.914 0 0 0-12.79 11.82q-2.971 3.07-5.762 6.307c-.87 1.01-1.704 2.05-2.658 2.984-.424.416-.872.803-1.32 1.194-.935.817.611-.375-.415.32-.325.22-.645.448-.978.659q-.746.472-1.531.877c-.29.15-.584.292-.88.429.158-.073.665-.247-.101.04a19.998 19.998 0 0 1-3.794 1.017c.675-.111-.355.021-.585.036q-.483.03-.967.034a19.22 19.22 0 0 1-1.81-.087c-.432-.038-.904-.26.603.085-.143-.033-.294-.041-.438-.07-.285-.056-.57-.11-.853-.18-.536-.132-1.043-.326-1.565-.501-.58-.194 1.162.545.567.238-.12-.062-.247-.114-.369-.175q-.36-.18-.707-.388c-.217-.13-.422-.278-.634-.415-.596-.385.373.27.483.382-.11-.111-.251-.197-.366-.303a18 18 0 0 1-1.05-1.078c-.53-.577.583.845.348.456-.07-.114-.162-.215-.233-.329-.145-.23-.294-.455-.427-.693-.122-.218-.223-.445-.34-.665-.378-.718.362.965.214.517-.045-.135-.105-.267-.153-.4a11.598 11.598 0 0 1-.467-1.725c-.03-.153-.05-.308-.08-.46-.139-.7.114 1.165.083.621-.02-.343-.068-.685-.084-1.03a16.84 16.84 0 0 1 .034-2.048c.022-.286.175-1.538.045-.57-.13.96.076-.427.136-.735a29.24 29.24 0 0 1 1.466-4.977c.08-.207.163-.412.245-.618.366-.918-.281.622-.093.217.22-.473.423-.954.648-1.426.482-1.01 1-2.003 1.549-2.98a67.188 67.188 0 0 1 4.04-6.288q.557-.775 1.133-1.538c.21-.278 1.05-1.182.155-.211.275-.298.51-.653.763-.97q1.435-1.798 2.948-3.532a136.215 136.215 0 0 1 7.08-7.504 184.722 184.722 0 0 1 8.754-8.069q2.554-2.214 5.175-4.35 1.236-1.01 2.486-2.003.71-.565 1.424-1.125l.578-.453c.11-.086 1.064-.824.756-.587-.458.353.519-.397.475-.363l.6-.459q.76-.579 1.525-1.152 1.565-1.175 3.144-2.33 3.224-2.359 6.504-4.64 7.257-5.051 14.736-9.773 3.907-2.476 7.861-4.876a4.116 4.116 0 0 0-4.154-7.107c-18.376 11.172-36.42 23.426-52.191 38.12a132.21 132.21 0 0 0-14.285 15.354 67.235 67.235 0 0 0-8.562 13.543c-2.882 6.405-4.985 14.466-1.133 20.96 3.135 5.286 9.394 7.435 15.294 6.809a24.327 24.327 0 0 0 15.495-7.907c4.039-4.483 7.967-8.98 12.362-13.13q3.274-3.093 6.717-6 1.494-1.263 3.018-2.492a146.37 146.37 0 0 1 3.243-2.546q6.712-5.096 13.863-9.576 3.45-2.17 6.985-4.202a4.116 4.116 0 1 0-4.155-7.108z" fill="#000000" class="fill-000000"></path><path d="M247.064 510.74c-16.27 9.366-32.893 21.773-46.498 37.988a20.21 20.21 0 0 1-13.108 7.302c-21.169 2.354-27.492-32.185 62.953-87.115" fill="#ffffff" class="fill-ffffff"></path><path d="M244.987 507.186a198.563 198.563 0 0 0-27.606 19.124 159.934 159.934 0 0 0-12.791 11.82q-2.97 3.07-5.761 6.307c-.87 1.01-1.705 2.05-2.658 2.984-.425.416-.872.803-1.32 1.194-.935.817.61-.375-.415.32-.325.22-.645.448-.978.659q-.747.472-1.532.877c-.29.15-.584.292-.88.429.159-.073.666-.247-.1.04a20 20 0 0 1-3.794 1.017c.675-.111-.355.021-.585.036q-.483.03-.967.034a19.218 19.218 0 0 1-1.81-.087c-.432-.038-.904-.26.603.085-.143-.033-.294-.041-.438-.07-.285-.056-.57-.11-.853-.18-.536-.132-1.043-.326-1.565-.501-.58-.194 1.162.545.567.238-.12-.062-.247-.114-.369-.175q-.361-.18-.707-.387c-.217-.131-.422-.279-.634-.416-.596-.385.373.27.483.382-.11-.111-.251-.197-.366-.303a18.002 18.002 0 0 1-1.05-1.078c-.53-.577.583.845.348.456-.07-.114-.162-.215-.233-.329-.145-.23-.294-.455-.427-.693-.122-.218-.223-.445-.34-.665-.378-.718.362.965.214.517-.045-.135-.105-.267-.153-.4a11.586 11.586 0 0 1-.467-1.725c-.03-.153-.05-.308-.08-.46-.139-.7.114 1.165.083.621-.02-.343-.068-.685-.084-1.03a16.84 16.84 0 0 1 .034-2.048c.022-.286.175-1.538.045-.57-.13.96.076-.427.136-.735a29.249 29.249 0 0 1 1.466-4.977c.08-.207.163-.412.245-.618.366-.918-.281.622-.093.217.22-.473.423-.954.648-1.426.482-1.01 1-2.003 1.549-2.98a67.167 67.167 0 0 1 4.04-6.288q.558-.775 1.133-1.538c.21-.278 1.05-1.182.155-.211.275-.298.51-.653.763-.97q1.435-1.798 2.948-3.532a136.215 136.215 0 0 1 7.08-7.504 184.667 184.667 0 0 1 8.754-8.069q2.554-2.214 5.175-4.35 1.236-1.01 2.486-2.003.71-.565 1.424-1.125l.578-.452c.11-.087 1.064-.825.756-.588-.458.353.519-.397.475-.363l.6-.459q.76-.578 1.525-1.152 1.565-1.175 3.144-2.33 3.224-2.358 6.504-4.64 7.257-5.05 14.736-9.773 3.907-2.476 7.86-4.876a4.116 4.116 0 1 0-4.153-7.107c-18.376 11.172-36.42 23.426-52.191 38.12a132.2 132.2 0 0 0-14.284 15.353 67.235 67.235 0 0 0-8.563 13.543c-2.881 6.405-4.984 14.466-1.133 20.96 3.135 5.286 9.395 7.435 15.295 6.809a24.327 24.327 0 0 0 15.495-7.907c4.039-4.483 7.967-8.98 12.361-13.13q3.274-3.093 6.718-6 1.494-1.263 3.018-2.492a146.39 146.39 0 0 1 3.243-2.546q6.712-5.096 13.863-9.576 3.45-2.17 6.985-4.202a4.116 4.116 0 0 0-4.155-7.108z" fill="#000000" class="fill-000000"></path><path d="M288.135 523.24c-28.352 12.69-53.029 30.992-67.145 44.253-3.465 3.254-6.872 6.658-11.55 7.503-18.22 3.288-29.731-25.873 50.005-77.212" fill="#ffffff" class="fill-ffffff"></path><path d="M259.445 497.784c-56.012 36.064-66.997 61.184-62.26 71.8 0 0 5.086 15.226 19.024 15.014" fill="#ffffff" class="fill-ffffff"></path><path d="M257.368 494.23a311.504 311.504 0 0 0-35.646 26.265 132.809 132.809 0 0 0-20.61 21.826c-3.643 5.006-6.967 10.681-8.356 16.777a21.934 21.934 0 0 0-.601 6.92 17.564 17.564 0 0 0 .624 3.492c.212.684.51 1.328.783 1.99-.016-.038-.548-1.337-.199-.422 3.025 7.913 9.309 15.389 17.95 17.144a23.918 23.918 0 0 0 4.896.491 4.115 4.115 0 1 0 0-8.23 29.368 29.368 0 0 1-1.962-.075c-.818-.05.644.136-.146-.013-.348-.065-.695-.127-1.04-.206a16.712 16.712 0 0 1-1.691-.486c-.152-.053-1.019-.307-.44-.148.548.15-.344-.16-.529-.252a22.58 22.58 0 0 1-2.861-1.765c-.205-.142.63.529.016-.003-.194-.168-.39-.333-.58-.505q-.607-.546-1.172-1.137-.504-.527-.974-1.085c-.152-.18-.298-.366-.45-.548-.427-.514.528.735.015.011s-1.012-1.452-1.467-2.214q-.594-.995-1.109-2.036-.193-.391-.375-.789c-.053-.116-.103-.234-.157-.35-.292-.632.267.654.219.523-.1-.272-.21-.542-.316-.812-.014-.034-.023-.07-.037-.104-.135-.341-.288-.686-.432-1.023s.384.975.328.782c-.028-.098-.081-.19-.114-.288a18.227 18.227 0 0 1-.594-2.247c-.162-.803.115 1.233.055.405-.017-.221-.042-.441-.056-.663a15.554 15.554 0 0 1-.02-1.338c.012-.475.05-.947.095-1.42.01-.118.031-.235.04-.353.047-.566-.197 1.177-.08.616.054-.262.084-.53.134-.794a25.963 25.963 0 0 1 .845-3.257q.288-.883.627-1.748c.057-.144.116-.287.172-.431.243-.618-.06.18-.172.4.157-.311.28-.645.426-.962a54.26 54.26 0 0 1 4.747-8.192q.776-1.124 1.594-2.22.203-.272.408-.543c.097-.127.59-.77.169-.223-.422.547.082-.104.181-.23q.258-.326.518-.65 1.986-2.475 4.123-4.822a149.217 149.217 0 0 1 10.612-10.508q3.224-2.91 6.573-5.677 1.87-1.55 3.772-3.062.91-.723 1.825-1.437c.14-.11.9-.7.413-.324q.554-.428 1.111-.852c5.834-4.453 11.838-8.68 17.95-12.741q2.548-1.694 5.12-3.35a4.116 4.116 0 1 0-4.154-7.106z" fill="#000000" class="fill-000000"></path><path d="M227.681 561.49c14.117-13.262 32.102-25.56 60.454-38.25" fill="#ffffff" class="fill-ffffff"></path><path d="M230.591 564.4q4.223-3.96 8.708-7.626 1.084-.884 2.183-1.75.327-.258.655-.514c.17-.133.778-.599.094-.074q.67-.514 1.344-1.023 2.49-1.877 5.047-3.664a219.702 219.702 0 0 1 24.453-14.695c5.624-2.932 11.35-5.665 17.138-8.26 1.97-.884 2.591-3.902 1.476-5.631a4.237 4.237 0 0 0-5.63-1.477c-18.128 8.128-35.609 17.717-51.175 30.134q-5.232 4.173-10.113 8.759a4.15 4.15 0 0 0 0 5.82 4.202 4.202 0 0 0 5.82 0zM480.945 481.131l27.549-61.504 15.376 67.27 53.816 3.204-37.159 26.267 8.329 51.253-40.362-41.003-48.69 41.003 19.86-49.972-49.331-27.548z" fill="#000000" class="fill-000000"></path><path d="m484.5 483.208 9.306-20.778 14.835-33.12 3.407-7.605-7.523-.983 5.2 22.75 8.283 36.235 1.894 8.285a4.199 4.199 0 0 0 3.968 3.021l18.205 1.084 28.99 1.725 6.62.394-2.076-7.669-12.575 8.889-19.949 14.102-4.635 3.277a4.356 4.356 0 0 0-1.891 4.647l2.824 17.382 4.476 27.544 1.028 6.327 6.879-4.004-13.639-13.855-21.736-22.082-4.987-5.066a4.217 4.217 0 0 0-5.82 0l-16.444 13.848-26.219 22.079-6.027 5.076 6.878 4.004 6.71-16.88 10.694-26.91 2.457-6.182a4.126 4.126 0 0 0-1.891-4.647l-16.74-9.349-26.45-14.77-6.141-3.43-.984 7.522 17.088-3.028 27.25-4.829 6.275-1.112a4.135 4.135 0 0 0 2.874-5.063 4.229 4.229 0 0 0-5.062-2.874l-17.088 3.028-27.25 4.83-6.274 1.111a4.14 4.14 0 0 0-.983 7.522l16.74 9.349 26.449 14.77 6.142 3.43-1.892-4.648-6.708 16.88-10.695 26.91-2.457 6.182a4.118 4.118 0 0 0 1.891 4.647 4.319 4.319 0 0 0 4.987-.643l16.445-13.848 26.218-22.079 6.028-5.076h-5.82l13.639 13.856 21.736 22.081 4.987 5.066a4.174 4.174 0 0 0 4.987.643 4.347 4.347 0 0 0 1.891-4.647L550 549.146l-4.476-27.545-1.028-6.327-1.891 4.647 12.574-8.888 19.949-14.102 4.635-3.277a4.238 4.238 0 0 0 1.891-4.648 4.29 4.29 0 0 0-3.968-3.021l-18.205-1.084-28.991-1.725-6.62-.394 3.969 3.021-5.2-22.749-8.283-36.236-1.894-8.285a4.097 4.097 0 0 0-3.421-2.948 4.044 4.044 0 0 0-4.101 1.965l-9.307 20.778-14.835 33.12-3.407 7.605c-.877 1.96-.632 4.517 1.477 5.631 1.796.95 4.692.622 5.631-1.476zM302.739 622.562a449.77 449.77 0 0 1 38.107-45.963 454.4 454.4 0 0 1 43.897-40.61q13.061-10.576 26.899-20.135c2.163-1.497.108-5.066-2.077-3.554a455.342 455.342 0 0 0-89.332 81.202q-11.023 13.092-21.048 26.983a2.074 2.074 0 0 0 .738 2.815 2.104 2.104 0 0 0 2.816-.738z" fill="#000000" class="fill-000000"></path><path d="M320.423 601.115a350.547 350.547 0 0 1 42.493 29.87 2.117 2.117 0 0 0 2.91 0 2.074 2.074 0 0 0 0-2.91 357.621 357.621 0 0 0-43.325-30.513c-2.279-1.363-4.35 2.194-2.078 3.553zM353.881 560.17q17.903 20.353 33.855 42.307a2.118 2.118 0 0 0 2.815.739 2.074 2.074 0 0 0 .738-2.816q-16.233-22.36-34.498-43.141c-1.752-1.993-4.654.927-2.91 2.91zM381.568 534.757l20.996 46.5a2.073 2.073 0 0 0 2.815.738 2.107 2.107 0 0 0 .738-2.816l-20.995-46.499a2.073 2.073 0 0 0-2.816-.738 2.107 2.107 0 0 0-.738 2.815zM305.668 838.581a13.9 13.9 0 0 1 3.661-4.173 17.861 17.861 0 0 1 2.635-1.546q.341-.149.088-.046.195-.08.392-.155.296-.113.596-.213a15.814 15.814 0 0 1 1.628-.443l-2.324-.945a18.351 18.351 0 0 1 3.35 12.805 2.072 2.072 0 0 0 2.058 2.058 2.104 2.104 0 0 0 2.058-2.058 22.223 22.223 0 0 0-3.912-14.882 2.153 2.153 0 0 0-2.324-.946 17.725 17.725 0 0 0-11.46 8.467 2.058 2.058 0 0 0 3.554 2.077zM323.84 793.702a5.848 5.848 0 0 1 1.235-1.855 5.721 5.721 0 0 1 1.71-1.265 6.256 6.256 0 0 1 3.89-.666 5.694 5.694 0 0 1 1.971.756 6.503 6.503 0 0 1 3.142 5.158 2.058 2.058 0 1 0 4.115 0 10.301 10.301 0 0 0-19.616-4.205 2.118 2.118 0 0 0 .738 2.816 2.075 2.075 0 0 0 2.815-.739zM355.756 857.263a8.57 8.57 0 0 1 9.423-1.256 8.692 8.692 0 0 1 4.49 8.398 2.13 2.13 0 0 0 1.437 2.532 2.072 2.072 0 0 0 2.531-1.438 12.442 12.442 0 0 0-20.791-11.146 2.058 2.058 0 0 0 2.91 2.91zM399.925 907.586a6.898 6.898 0 0 1-.137-.479c-.025-.104-.037-.219-.067-.322.006.021.026.379.017.141-.013-.362.038-.788-.01-1.14-.03-.211-.02.097-.028.142a8.49 8.49 0 0 1 .168-.8q.065-.239.147-.472c.027-.077.062-.153.086-.231.081-.267-.16.273-.012.036.188-.305.326-.639.523-.941.049-.075.377-.513.227-.33-.137.167.203-.226.269-.297q.17-.182.35-.352c.048-.045.48-.42.293-.268-.18.15.193-.133.258-.176q.274-.18.563-.334c.07-.036.503-.235.271-.14-.238.099.018-.004.057-.016.104-.033.206-.071.31-.102.157-.047.315-.088.475-.122.08-.017.163-.025.242-.045.26-.067-.327-.01-.057.012.356.03.724-.015 1.085.018-.369-.033-.08-.004.107.04.216.05.423.12.635.184.372.114-.229-.13.12.045.173.087.345.173.512.271.144.084.282.176.42.267.07.046.137.096.205.145-.229-.166-.109-.089.038.045.25.227.484.462.713.71.041.046.274.318.106.116-.154-.185.021.029.043.06.112.162.222.323.324.491.117.192.22.39.323.589.04.074.07.152.108.227-.078-.156-.089-.24-.016-.028.136.396.205.805.329 1.201.068.22-.011-.106-.014-.137.012.137.026.274.033.411.009.193.01.386 0 .579-.004.08-.02.167-.018.247.01.275.106-.457-.007.029-.05.22-.1.435-.166.65a2.078 2.078 0 0 0 1.437 2.531 2.1 2.1 0 0 0 2.531-1.437 9.188 9.188 0 0 0-4.9-10.556 7.91 7.91 0 0 0-6.24-.322 9.441 9.441 0 0 0-4.737 4.07 8.672 8.672 0 0 0-.885 6.884 2.058 2.058 0 1 0 3.968-1.094zM422.261 848.586c.296-3.67 3.925-6.897 7.495-7.32 3.964-.471 7.145 2.353 8.178 6.023a7.8 7.8 0 0 1-.5 5.859c-1.255 2.332 2.297 4.413 3.553 2.077a12.798 12.798 0 0 0-2.69-15.059c-4.487-4.185-11.068-3.774-15.684-.032a12.1 12.1 0 0 0-4.468 8.452 2.075 2.075 0 0 0 2.058 2.058 2.1 2.1 0 0 0 2.058-2.058zM379.793 805.821a7.674 7.674 0 0 1 15.158 1.727c.037 2.646 4.152 2.654 4.116 0a11.792 11.792 0 0 0-23.243-2.821c-.654 2.568 3.315 3.663 3.969 1.094zM352.421 745.364c.105-.174.215-.343.33-.51q.214-.296.048-.065.097-.116.2-.227.203-.225.423-.432c.053-.05.547-.474.279-.263a7.297 7.297 0 0 1 1.021-.655 9.38 9.38 0 0 1 .544-.272c-.328.152.247-.09.262-.095a8.65 8.65 0 0 1 1.173-.32c.083-.016.616-.08.254-.046.236-.022.47-.037.707-.04q.303-.005.605.013.152.008.302.023-.32-.052.053.009a11.428 11.428 0 0 1 1.172.31c.541.17-.243-.155.266.11.183.096.365.189.542.295s.348.219.516.337c-.275-.194.176.144.227.19a5.595 5.595 0 0 1 1.476 1.824 6.279 6.279 0 0 1 .72 2.015c.11.461.011-.166.045.266.016.205.03.41.034.616.003.24-.008.479-.024.718q-.022.223.015-.035-.03.204-.073.407a2.111 2.111 0 0 0 1.437 2.531 2.077 2.077 0 0 0 2.531-1.437 10.14 10.14 0 0 0-18.638-7.344 2.058 2.058 0 1 0 3.553 2.077zM456.015 821.33a11.245 11.245 0 0 1 1.286.05c.094.01.19.029.284.032-.52-.018-.193-.024-.052 0q.317.056.63.128a11.398 11.398 0 0 1 1.235.363q.135.048.269.1c.063.023.454.174.152.057-.277-.106.027.017.081.042q.163.075.323.155a11.588 11.588 0 0 1 1.056.603q.272.174.533.362l.134.098c-.234-.17.026.026.07.064a11.096 11.096 0 0 1 .938.88q.221.233.429.48a1.167 1.167 0 0 0 .181.22q-.24-.314-.104-.132.065.086.127.174a2.106 2.106 0 0 0 2.815.738 2.081 2.081 0 0 0 .738-2.815 13.566 13.566 0 0 0-11.125-5.714 2.058 2.058 0 1 0 0 4.115zM552.112 109.018c7.06.289 12.609 5.779 16.758 10.976a62.723 62.723 0 0 1 9.516 16.831 70.285 70.285 0 0 1 3.204 38.714 64.43 64.43 0 0 1-7.978 20.547c-1.376 2.27 2.182 4.342 3.554 2.077a72.6 72.6 0 0 0-4.267-79.644c-5.107-6.686-11.887-13.252-20.787-13.617-2.648-.108-2.643 4.008 0 4.116zM648.968 180.085a23.39 23.39 0 0 1 16.04-16.705c7.435-2.365 15.89-1.756 22.281 2.969a19.41 19.41 0 0 1 6.68 9.48c2.174 6.7.684 13.893-2.235 20.145-2.629 5.633-6.822 10.909-12.906 12.942a19.16 19.16 0 0 1-14.09-1.014c-9.086-4.213-16.467-13.976-16.213-24.252a18.288 18.288 0 0 1 .443-3.565c.577-2.58-3.39-3.682-3.968-1.094-2.646 11.825 4.243 23.947 13.97 30.394 4.784 3.172 10.696 5.09 16.47 4.442 6.925-.777 12.677-4.752 16.697-10.343a38.624 38.624 0 0 0 4.987-9.96 32.402 32.402 0 0 0 1.983-12.772 24.862 24.862 0 0 0-6.224-14.84c-6.353-7.01-16.468-9.1-25.493-7.38-9.419 1.793-17.738 7.992-21.31 16.991a25.071 25.071 0 0 0-1.08 3.468c-.611 2.575 3.356 3.674 3.968 1.094zM653.515 48.568c-4.713 10.458-3.99 22.169-2.118 33.215 1.616 9.54 4.595 19.186 10.667 26.877 12.291 15.569 35.257 16.646 52.024 8.382a46.531 46.531 0 0 0 21.21-20.813c1.166-2.369-2.383-4.457-3.553-2.078-7.286 14.815-23.54 24.17-39.939 23.96-8.908-.113-18.105-3.152-24.423-9.61-6.29-6.432-9.437-15.263-11.273-23.9-2.316-10.894-3.756-23.494.959-33.956a2.12 2.12 0 0 0-.738-2.816 2.074 2.074 0 0 0-2.816.739zM647.083 494.9a379.322 379.322 0 0 0 28.02-41.314c8.7-14.582 16.854-29.485 25.124-44.312l14.806-26.544c1.292-2.316-2.262-4.394-3.553-2.078q-12.847 23.031-25.696 46.06c-8.055 14.393-16.241 28.73-25.296 42.524-5.122 7.804-10.52 15.433-16.315 22.754a2.123 2.123 0 0 0 0 2.91 2.072 2.072 0 0 0 2.91 0zM813.51 618.681q13.123-24.64 25.684-49.573 12.503-24.824 24.438-49.928 6.751-14.202 13.32-28.491a2.119 2.119 0 0 0-.739-2.816 2.075 2.075 0 0 0-2.815.739q-11.662 25.363-23.898 50.458-12.184 24.982-24.936 49.681-7.214 13.974-14.607 27.854c-1.245 2.336 2.306 4.418 3.553 2.077zM765.31 414.674a274.69 274.69 0 0 1-20.697 43.509c-1.345 2.288 2.21 4.362 3.553 2.077a280.79 280.79 0 0 0 21.112-44.492 2.075 2.075 0 0 0-1.437-2.531 2.102 2.102 0 0 0-2.531 1.437z" fill="#000000" class="fill-000000"></path></svg>