<svg viewBox="0 0 1000 1000" xmlns="http://www.w3.org/2000/svg"><path d="m620.45 911.2.084 63.8 42.12-.055 4.096-9.766s73.48 19.937 97.082-.64-77.613-37.91-84.307-50.229-59.075-3.11-59.075-3.11z" fill="#000000" class="fill-000000"></path><path d="m616.367 911.2.029 21.574.045 34.365.01 7.86a4.142 4.142 0 0 0 4.082 4.083l36.844-.048 5.277-.007a4.249 4.249 0 0 0 3.937-2.997l4.096-9.765-5.022 2.851c5.486 1.487 11.065 2.677 16.639 3.776a257.679 257.679 0 0 0 37.36 4.853 127.982 127.982 0 0 0 19.31-.37 63.932 63.932 0 0 0 17.553-3.908c6.983-2.838 17.648-9.278 14.41-18.48-1.285-3.653-4.065-6.304-7.079-8.588a60.68 60.68 0 0 0-10.552-6.16c-9.789-4.686-20.1-8.265-30.354-11.775-9.66-3.306-19.427-6.383-28.91-10.18q-.677-.272-1.35-.55c-.155-.063-1.113-.466-.33-.134.758.32-.133-.058-.308-.133a82.556 82.556 0 0 1-2.603-1.172 42.01 42.01 0 0 1-4.214-2.242c-.54-.335-1.04-.728-1.572-1.072 1.344.867.459.363.106.05a8.828 8.828 0 0 1-.571-.552c-.082-.088-.157-.192-.244-.274-.412-.387.51.792.4.524a4.78 4.78 0 0 0-.37-.593 11.332 11.332 0 0 0-1.997-2.483c-3.568-3.229-8.504-4.421-13.147-5.063a100.665 100.665 0 0 0-17.9-.655 245.253 245.253 0 0 0-28.997 3.066c-.528.085-1.055.17-1.581.263a4.101 4.101 0 0 0-2.852 5.022 4.196 4.196 0 0 0 5.022 2.851c2.01-.352 4.03-.65 6.05-.937q.686-.098 1.373-.192l.36-.049c.623-.086-.549.073-.532.071.318-.038.635-.084.953-.125q1.754-.228 3.51-.435 3.926-.46 7.864-.801a159.514 159.514 0 0 1 17.314-.663c2.715.063 5.407.476 8.11.574-1.297-.047-.357-.048.011.008q.429.065.856.138.928.159 1.848.36a28.136 28.136 0 0 1 3.159.874c.225.078.448.164.672.245.893.322-.743-.353-.175-.083.444.211.889.413 1.317.656.356.201.681.449 1.031.655.405.24-.855-.757-.253-.193.17.16.35.308.516.474.128.129.243.27.37.4.54.556-.409-.669-.232-.3a7.934 7.934 0 0 0 .485.796 11.113 11.113 0 0 0 1.402 1.764 26.212 26.212 0 0 0 7.577 4.872c8.534 4.069 17.635 6.975 26.573 10.005 10.14 3.438 20.325 6.797 30.244 10.84q.825.336 1.646.679c.975.406-.584-.253.036.015.332.143.665.284.997.428q1.647.713 3.276 1.467a93.951 93.951 0 0 1 5.932 2.986 51.747 51.747 0 0 1 4.86 3.01c.354.25.692.533 1.053.773.043.029-.902-.726-.474-.364.075.063.155.12.23.183.167.138.335.273.5.413a20.996 20.996 0 0 1 1.674 1.57c.229.241.445.493.664.744.124.142.555.7.017.007-.544-.703-.06-.069.058.102.341.496.562 1.052.88 1.555-.768-1.218-.244-.633-.082-.073a7.979 7.979 0 0 0 .181.812c-.452-1.083-.089-1.117-.09-.606 0 .144.015.288.015.432 0 .129-.012.257-.013.385-.004.738-.026-.299.087-.554a6.845 6.845 0 0 0-.177.776c-.043.146-.11.29-.146.437-.144.563.547-1.08.185-.439-.146.259-.268.529-.423.783-.285.467-1.124 1.21-.053.158-.552.542-1.02 1.16-1.6 1.683-.376.34-.823.628-1.177.987.838-.85.317-.246-.006-.013q-.427.308-.866.598a30.272 30.272 0 0 1-3.181 1.828c-.533.266-1.078.503-1.617.756-.61.287.924-.36-.071.029-.358.14-.714.281-1.074.415a52.585 52.585 0 0 1-7.813 2.181c-1.43.291-2.87.53-4.316.738-1.033.149.822-.098-.22.027-.353.043-.705.086-1.057.125q-1.203.136-2.41.239c-3.086.266-6.185.388-9.282.406a178.46 178.46 0 0 1-19.394-1.032q-2.375-.246-4.744-.54c-.732-.09-1.463-.185-2.194-.28-.629-.082.229-.054.27.037a4.358 4.358 0 0 0-.541-.074q-.672-.093-1.343-.188-4.312-.616-8.603-1.363c-7.584-1.317-15.14-2.879-22.597-4.797a88.59 88.59 0 0 1-1.098-.288c-2.332-.632-4.164.806-5.022 2.851l-4.096 9.765 3.936-2.997-36.843.048-5.277.007 4.082 4.082-.028-21.574-.045-34.365-.01-7.86a4.083 4.083 0 0 0-8.165 0zM535.396 910.904l-.084 63.8-42.12-.055-4.096-9.765s-73.48 19.936-97.082-.642 77.613-37.909 84.307-50.228 59.075-3.11 59.075-3.11z" fill="#000000" class="fill-000000"></path><path d="m531.313 910.904-.028 21.574-.045 34.366-.01 7.86 4.082-4.083-36.843-.048-5.277-.007 3.937 2.997-4.097-9.765c-.857-2.042-2.664-3.49-5.022-2.851-5.31 1.439-10.707 2.596-16.1 3.67q-8.192 1.63-16.465 2.816l-1.076.15c-1.223.169.579-.073-.407.055q-1.167.153-2.334.297-2.372.29-4.75.534c-3.224.33-6.456.59-9.693.765a133.369 133.369 0 0 1-18.971-.191q-1.138-.101-2.272-.23-.528-.06-1.055-.127c-.173-.022-.352-.058-.524-.068.376.021.813.115.174.02a77.566 77.566 0 0 1-4.303-.751 51.885 51.885 0 0 1-7.783-2.212c-.322-.121-.642-.25-.962-.377-.908-.359.812.37-.069-.03a44.19 44.19 0 0 1-1.71-.81 29.882 29.882 0 0 1-3.16-1.847q-.35-.235-.69-.48c-.113-.082-.224-.167-.337-.247-.534-.377.337.236.33.26a12.498 12.498 0 0 0-1.286-1.087 15.348 15.348 0 0 1-.806-.794q-.182-.194-.357-.395c-.057-.065-.11-.134-.168-.198-.453-.502.28.322.326.432a17.104 17.104 0 0 0-1.007-1.667c-.265-.465.41 1.183.213.488-.037-.13-.09-.258-.129-.389-.038-.128-.065-.26-.101-.388-.147-.532.156-.738.043.505.023-.245-.047-.522-.045-.772.001-.128.016-.256.016-.384.002-.773-.16.71-.075.51a7.513 7.513 0 0 0 .18-.763c.038-.128.088-.253.125-.38.234-.791-.32.631-.179.406.319-.507.568-1.052.903-1.554.61-.914-.74.84.049-.062.234-.268.467-.534.713-.79a21.506 21.506 0 0 1 1.694-1.569c.43-.36 1.277-.954.207-.185.376-.27.742-.553 1.122-.82a69.582 69.582 0 0 1 10.85-5.99q1.634-.755 3.287-1.466l.8-.343c.5-.216-.888.37.035-.015q.926-.385 1.854-.763a265.4 265.4 0 0 1 7.322-2.84c5.084-1.892 10.21-3.667 15.344-5.416 9.38-3.196 18.862-6.193 28.042-9.937a64.146 64.146 0 0 0 10.058-4.806 18.173 18.173 0 0 0 3.48-2.695 11.74 11.74 0 0 0 1.38-1.763 8.272 8.272 0 0 0 .485-.79c.03-.06-.79.885-.225.303.143-.147.276-.303.423-.446.135-.13.281-.248.418-.377.632-.593-.847.56-.193.15.37-.231.725-.478 1.109-.69s.783-.389 1.179-.579c.382-.183-1.075.401-.093.052.254-.09.506-.187.762-.273a28.917 28.917 0 0 1 3.186-.858q.82-.176 1.648-.316.428-.073.856-.138l.436-.064c.833-.13-1.047.123-.2.027a106.923 106.923 0 0 1 16.76-.435c5.522.237 11.032.732 16.52 1.38q1.746.206 3.488.434c.253.033.506.069.76.1-1.489-.183-.426-.058-.083-.01q.724.099 1.447.202 2.178.31 4.35.659a112.2 112.2 0 0 1 1.536.256c2.096.367 4.5-.562 5.022-2.852.453-1.987-.602-4.627-2.851-5.022-7.231-1.27-14.56-2.148-21.873-2.77a156.108 156.108 0 0 0-17.816-.636c-5.245.154-10.807.526-15.783 2.319a17.656 17.656 0 0 0-6.257 3.57 12.122 12.122 0 0 0-1.957 2.503c-.104.167-.239.336-.328.51.554-1.07.585-.705.12-.22a8.942 8.942 0 0 1-.548.522c-.095.084-.196.163-.291.247-.623.55.603-.429.35-.265-.538.348-1.046.737-1.594 1.073a43.183 43.183 0 0 1-4.251 2.245q-1.299.61-2.62 1.173c-.313.134-1.142.447.176-.073-.22.087-.437.183-.655.273q-.76.313-1.524.618a217.3 217.3 0 0 1-6.397 2.422c-4.915 1.784-9.87 3.458-14.823 5.135-10.316 3.495-20.676 6.937-30.725 11.157a110.953 110.953 0 0 0-13.196 6.35 33.01 33.01 0 0 0-8.787 6.85c-2.432 2.907-3.853 6.33-3.08 10.152.82 4.05 4.235 7.057 7.458 9.3a42.878 42.878 0 0 0 15.368 6.207 96.88 96.88 0 0 0 19.19 1.996c13.055.187 26.136-1.38 38.986-3.572 7.864-1.342 15.698-2.95 23.425-4.937.378-.097.755-.194 1.131-.296l-5.022-2.852 4.097 9.765a4.271 4.271 0 0 0 3.936 2.998l36.844.048 5.277.007a4.142 4.142 0 0 0 4.083-4.083l.028-21.573.045-34.366.01-7.86a4.083 4.083 0 1 0-8.165 0z" fill="#000000" class="fill-000000"></path><path d="m610.838 353.595 73.571 78.81 31.3 481.061H591.77l-15.254-475.002" fill="#ffffff" class="fill-ffffff"></path><path d="m607.951 356.482 24.948 26.724 39.528 42.343 9.095 9.743-1.195-2.887.834 12.834 2.285 35.106 3.365 51.73 4.106 63.096 4.496 69.11 4.557 70.039 4.232 65.043 3.577 54.972 2.573 39.547c.404 6.209.42 12.593 1.22 18.767.036.269.036.546.054.817l4.082-4.082H591.77l4.083 4.082-.409-12.722-1.112-34.62-1.636-50.967-2.005-62.422-2.196-68.383-2.208-68.752-2.067-64.374-1.747-54.398-1.252-38.982c-.199-6.189-.286-12.393-.596-18.578-.014-.268-.018-.536-.026-.804-.169-5.241-8.334-5.265-8.165 0l.408 12.722 1.112 34.62 1.637 50.967 2.004 62.422 2.196 68.383L582 736.33l2.067 64.374 1.747 54.398 1.252 38.982c.199 6.189.286 12.393.597 18.578.013.268.017.536.026.804a4.152 4.152 0 0 0 4.082 4.083H715.71a4.118 4.118 0 0 0 4.082-4.083l-1.243-19.11-3.285-50.48-4.683-71.982-5.458-83.888-5.536-85.087-5.041-77.478-3.851-59.192-2.037-31.302c-.05-.773-.08-1.55-.151-2.322a6.55 6.55 0 0 0-2.17-4.135l-18.34-19.646-50.876-54.499-3.395-3.637c-3.594-3.849-9.358 1.934-5.774 5.774z" fill="#000000" class="fill-000000"></path><path d="m547.344 353.595-48.691 65.202-56.18 494.669h123.938l15.254-475.002" fill="#ffffff" class="fill-ffffff"></path><path d="m543.818 351.535-37.807 50.627-8.548 11.447c-1.275 1.708-2.628 3.05-2.897 5.229-.225 1.82-.414 3.644-.62 5.465l-3.973 34.977-6.818 60.028-8.627 75.965-9.5 83.646-9.35 82.318-8.176 71.996-6.048 53.257-2.937 25.855-.127 1.12c-.25 2.197 2.073 4.082 4.083 4.082H566.41a4.156 4.156 0 0 0 4.083-4.082l.408-12.722 1.112-34.62 1.637-50.967 2.004-62.422 2.196-68.383 2.208-68.751 2.067-64.374 1.747-54.398 1.252-38.982c.199-6.183.58-12.391.597-18.578 0-.268.017-.536.025-.804.17-5.256-7.996-5.25-8.165 0l-.408 12.722-1.112 34.62-1.637 50.967-2.004 62.422-2.196 68.383-2.208 68.752-2.067 64.374-1.747 54.398-1.252 38.981c-.197 6.145-.8 12.43-.596 18.579.008.266-.018.537-.026.804l4.082-4.083H442.473l4.082 4.083 1.508-13.276 4.083-35.947 6.06-53.356 7.364-64.844 8.065-71.014 8.173-71.96 7.591-66.843 6.44-56.702 4.613-40.614c.729-6.416 1.625-12.839 2.189-19.273.024-.28.063-.56.095-.84l-.557 2.06 42.699-57.177 5.991-8.024c1.33-1.78.276-4.544-1.464-5.586-2.07-1.24-4.274-.292-5.586 1.465z" fill="#000000" class="fill-000000"></path><path d="m468.232 242.156-42.535 135.442-62.34-157.23-13.448-27.804c-5.81-12.013-24.955-42.196-45.663-44.435l-14.75-2.892a8.294 8.294 0 0 0-9.492 10.678l.735 2.288-10.34 55.646 18.76 21.348a110.915 110.915 0 0 0 31.138 24.661l74.618 191.058h66.042l78.355-219.394 8.395-31.342-77.545-10.075" fill="#ffffff" class="fill-ffffff"></path><path d="m464.296 241.07-4.227 13.458-10.151 32.323-12.284 39.115-10.625 33.833-3.506 11.162c-.552 1.76-1.218 3.524-1.668 5.314-.02.08-.05.159-.075.238h7.873l-3.961-9.99-10.028-25.293-13.47-33.975-14.12-35.61-12.135-30.608-7.472-18.845c-1.807-4.558-3.997-8.914-6.133-13.33-4.368-9.029-8.396-18.357-13.608-26.944a127.668 127.668 0 0 0-15.078-20.275c-5.962-6.471-12.9-12.291-21.131-15.599a28.155 28.155 0 0 0-5.444-1.601 35.279 35.279 0 0 0-1.575-.238c-.047-.007-1.554-.062-.52-.066.98-.004.417.087.322.044a3.7 3.7 0 0 0-.757-.149l-8.198-1.607c-1.914-.376-3.824-.785-5.743-1.126-5.372-.955-11.026 1.224-13.605 6.255-2.021 3.942-1.466 7.715-.174 11.733v-2.17l-8.126 43.726-1.789 9.625c-.128.694-.266 1.387-.387 2.083a5.017 5.017 0 0 0 1.285 4.494c5.273 6.116 10.663 12.135 15.994 18.2a146.815 146.815 0 0 0 10.568 11.114 116.28 116.28 0 0 0 23.888 17.022l-1.876-2.44 7.45 19.075 17.774 45.512 21.605 55.318 18.584 47.587c3.026 7.748 6.004 15.518 9.08 23.247l.125.32a4.246 4.246 0 0 0 3.936 2.997h66.042a4.207 4.207 0 0 0 3.937-2.997l2.703-7.569 7.24-20.274 10.432-29.208 12.356-34.597 13.045-36.525 12.387-34.682 10.39-29.095 7.18-20.103c.873-2.443 1.85-4.874 2.625-7.35 1.163-3.713 2.022-7.55 3.028-11.307l4.541-16.953.824-3.074c.758-2.829-1.347-4.831-3.937-5.168l-26.253-3.41-41.784-5.429-9.508-1.235c-2.19-.285-4.083 2.08-4.083 4.082 0 2.443 1.886 3.798 4.083 4.083l26.253 3.41 41.783 5.429 9.508 1.235-3.936-5.168-7.497 27.988c-.702 2.62-1.518 5.088-2.43 7.642l-6.176 17.292-9.72 27.218-12.03 33.683-13.004 36.413-12.63 35.365-11.058 30.964-8.11 22.705c-1.306 3.66-2.718 7.3-3.925 10.993-.052.16-.113.316-.17.474l3.936-2.997h-66.042l3.937 2.997-2.903-7.433-7.711-19.745-11.075-28.356-12.843-32.886-13.157-33.688-11.973-30.657-9.294-23.796-5.117-13.103c-.151-.387-.3-.774-.453-1.16l-.085-.217c-.901-2.24-2.915-2.988-4.877-4.113a107.155 107.155 0 0 1-24.115-18.875c-6.906-7.213-13.29-14.971-19.88-22.47l-2.082-2.37 1.05 3.973 5.92-31.863 3.554-19.118c.271-1.462.56-2.921.815-4.386a6.839 6.839 0 0 0-.27-3.452 13.58 13.58 0 0 1-.716-2.54c.073.658.047-.715.073-.957-.079.74.053-.092.098-.28q.072-.285.17-.562l-.037.076c.138-.294.314-.563.47-.847.351-.64.185-.27.05-.107.206-.249.438-.47.667-.697.137-.137.797-.573.231-.207.212-.137 1.39-.72.76-.476a9.018 9.018 0 0 1 .949-.284q.434-.086-.094-.027a8.167 8.167 0 0 1 .822-.048c.156-.001 1.258.118.622.016.09.015.178.037.267.053.5.09.997.195 1.495.293l10.33 2.025c.88.173 1.758.368 2.641.518-.281-.048 2.254.338 1.042.137a30.49 30.49 0 0 1 1.717.325 28.016 28.016 0 0 1 3.403 1.004c.246.09 1.44.563.708.255.564.237 1.12.499 1.67.77a40.491 40.491 0 0 1 3.288 1.82 48.556 48.556 0 0 1 2.897 1.928q.319.229.635.462c-.075-.055.955.724.531.396-.426-.328.6.48.525.419q.467.376.928.762a85.636 85.636 0 0 1 10.876 11.106q1.17 1.411 2.293 2.859c-.321-.416.55.727.702.93q.653.872 1.29 1.755 2.105 2.913 4.052 5.937a137.24 137.24 0 0 1 8.124 14.693l9.16 18.939c.917 1.895 1.776 3.833 2.755 5.696.357.678-.513-1.3-.283-.689.072.19.15.38.226.569l7.561 19.072 14.599 36.82 16.987 42.844 14.696 37.065 7.864 19.836.361.91a4.25 4.25 0 0 0 3.937 2.997 4.194 4.194 0 0 0 3.936-2.997l4.227-13.459 10.151-32.323 12.284-39.115 10.625-33.833c1.72-5.476 3.672-10.935 5.174-16.476.022-.08.05-.159.075-.238a4.084 4.084 0 1 0-7.873-2.17z" fill="#000000" class="fill-000000"></path><path d="m468.232 242.156-22.352 71.173 78.88 40.203 37.498-110.257-6.716-35.26-77.545-10.074" fill="#000000" class="fill-000000"></path><path d="m464.296 241.07-7.568 24.096-12.044 38.35-2.74 8.727a4.118 4.118 0 0 0 1.876 4.61l7.864 4.009 18.775 9.569 22.821 11.632 19.652 10.016c3.207 1.635 6.392 3.328 9.628 4.907l.14.071a4.15 4.15 0 0 0 5.996-2.44l6.118-17.988 13.316-39.15 12.957-38.097 3.997-11.753c.715-2.102 1.442-3.644 1.019-5.926-2.089-11.26-4.286-22.5-6.429-33.75l-.195-1.023c-.365-1.92-2.236-2.776-3.936-2.997l-26.35-3.423-41.655-5.412-9.54-1.24c-2.127-.275-4.173 2.076-4.083 4.083.11 2.448 1.804 3.787 4.083 4.083l26.349 3.423 41.655 5.412 9.54 1.24-3.936-2.998 5.884 30.894.832 4.366v-2.171l-3.732 10.971-8.96 26.346-10.838 31.868-9.366 27.537c-1.506 4.43-3.238 8.846-4.537 13.342-.02.065-.044.129-.066.193l5.997-2.44-7.864-4.009-18.775-9.568-22.821-11.632-19.652-10.016c-3.189-1.625-6.347-3.471-9.628-4.907-.048-.02-.093-.047-.14-.07l1.877 4.61 7.567-24.096 12.044-38.35 2.741-8.728a4.12 4.12 0 0 0-2.851-5.022 4.171 4.171 0 0 0-5.022 2.852z" fill="#000000" class="fill-000000"></path><path d="M264.723 221.858c8.263 1 11.934-.274 21.431-2.21a9.493 9.493 0 0 1 6.644.982c8.155 4.716 2.774 17.55-35.88 15.103h-.69a23.621 23.621 0 0 1-23.62-23.62v-33.646a23.621 23.621 0 0 1 23.62-23.621h11.722l.596-13.532a10.434 10.434 0 0 1 10.424-9.975h19.12" fill="#ffffff" class="fill-ffffff"></path><path d="M264.723 225.94a46.094 46.094 0 0 0 14.12-.612c2.57-.485 5.123-1.069 7.684-1.598.376-.077.756-.18 1.138-.224-.607.07.122.017.2.02.357.015.713-.005 1.071.023.717.056-.808-.27.393.078.275.08.549.145.82.234 1.2.393-.235-.17.399.19.228.13.453.258.672.403.135.09.263.206.404.285-.012-.006-.921-.807-.372-.27.241.235.47.488.712.72.525.504-.633-.984-.286-.366.076.134.167.269.25.398.067.102.101.228.17.326.08.113-.375-1.21-.177-.387.03.128.064.263.105.388.17.516-.248.563-.065-.603a4.947 4.947 0 0 0 .004.896c.022.359.318-1.324.059-.538-.044.132-.08.278-.112.413-.116.483-.473.559.221-.469-.1.15-.164.349-.252.508-.079.141-.169.275-.252.414-.272.451-.678.473.235-.277-.307.253-.55.629-.844.905-.164.154-.338.295-.505.444-.618.553.754-.524.264-.2-.456.301-.896.615-1.37.89-.478.277-.968.53-1.467.766-.185.088-1.109.485-.374.18.758-.318-.445.17-.628.237a35.955 35.955 0 0 1-4.151 1.246q-1.213.292-2.44.519-.62.116-1.243.218c-.286.047-2.154.307-.963.156q-3.128.398-6.278.56c-5.153.272-10.248-.096-15.394-.162a45.65 45.65 0 0 1-2.68-.125c-1.102-.078.56.116-.106-.007-.28-.052-.561-.091-.84-.145q-.83-.16-1.648-.377-.81-.217-1.602-.49-.315-.11-.627-.227c-.149-.056-1.155-.509-.254-.093a26.251 26.251 0 0 1-2.91-1.544c-.418-.26-.818-.544-1.226-.82-.183-.123-.772-.59-.09-.049q-.256-.203-.508-.413a23.771 23.771 0 0 1-2.356-2.26q-.55-.606-1.057-1.248c.567.714-.269-.4-.423-.629a23.59 23.59 0 0 1-1.641-2.848c-.12-.248-.229-.502-.35-.75.363.743.094.236.028.057-.194-.522-.39-1.04-.556-1.572a25.784 25.784 0 0 1-.777-3.287c-.136-.776-.012-.083.004.067-.036-.344-.073-.687-.099-1.032q-.05-.696-.06-1.395c-.004-.19-.003-.38-.003-.569-.003-1.526 0-3.053 0-4.58 0-9.785-.208-19.593.006-29.376q.018-.784.085-1.565c.001-.01.122-1.135.043-.485-.08.647.078-.458.08-.472a23.582 23.582 0 0 1 .823-3.268q.261-.791.578-1.562c-.33.805.132-.254.27-.533a23.61 23.61 0 0 1 1.66-2.836c.185-.27.379-.534.571-.8-.084.117-.518.63-.035.052.35-.419.701-.833 1.074-1.232a27.971 27.971 0 0 1 2.387-2.229c.142-.12.619-.432-.052.035.224-.156.441-.322.665-.477q.607-.42 1.239-.804.704-.426 1.437-.802.294-.15.592-.293c.317-.152.893-.395.236-.126a23.672 23.672 0 0 1 3.01-1.003q.737-.191 1.485-.335c.28-.054.561-.093.84-.145q.456-.069-.235.03.342-.04.686-.07c1.042-.091 2.084-.091 3.128-.091h10.687a4.161 4.161 0 0 0 4.082-4.083l.364-8.24.198-4.507c.012-.26.02-.52.035-.779.015-.265.025-.433.053-.697-.106 1.011.048-.082.09-.254.08-.326.193-.639.285-.961.25-.873-.312.477.104-.242.164-.284.306-.577.48-.856.09-.145.743-.982.12-.234a14.182 14.182 0 0 1 1.365-1.388c-.11.1-.678.456-.053.044.273-.18.543-.36.828-.52s.578-.31.877-.444c-.928.417.387-.088.583-.14.27-.072.549-.112.82-.182.604-.156-.958-.001.096 0 .253 0 .507-.02.76-.024.313-.003.627 0 .94 0h18.113a4.083 4.083 0 0 0 0-8.165H280.1c-4.737 0-9.257 1.48-12.313 5.301a15.114 15.114 0 0 0-3.324 8.78c-.066 1.136-.1 2.275-.15 3.412l-.445 10.096 4.082-4.082c-5.484 0-11.172-.429-16.605.45-10.01 1.618-18.35 9.237-21.492 18.766-1.642 4.983-1.329 10.257-1.329 15.422v19.569c0 5.115-.327 10.363 1.227 15.311a27.885 27.885 0 0 0 21.258 19.029 60.602 60.602 0 0 0 7.314.59c2.936.16 5.877.243 8.817.22a89.968 89.968 0 0 0 14.696-1.243c5.432-.947 11.87-2.698 15.65-7.028 3.217-3.685 3.549-8.679.251-12.433a12.843 12.843 0 0 0-10.516-4.009 84.007 84.007 0 0 0-9.16 1.775c-1.12.227-2.241.442-3.37.618-.034.005-1.093.159-.417.066.67-.092-.372.041-.411.046q-.955.105-1.915.16a41.806 41.806 0 0 1-7.225-.295c-2.13-.25-4.174 2.056-4.083 4.082a4.203 4.203 0 0 0 4.083 4.083z" fill="#000000" class="fill-000000"></path><path d="M281.859 25h200.365v240.32H281.86z" fill="#ffce07" class="fill-edbc64"></path><path d="M482.224 261.238H289.996c-2.595 0-5.21-.094-7.805 0-.11.004-.222 0-.332 0l4.082 4.083V34.759c0-3.117.09-6.249 0-9.365-.003-.13 0-.263 0-.394l-4.082 4.082h192.228c2.595 0 5.21.095 7.805 0 .11-.004.222 0 .332 0L478.142 25v230.562c0 3.12-.05 6.245 0 9.364.002.132 0 .264 0 .395a4.083 4.083 0 1 0 8.165 0V34.759c0-3.12.05-6.245 0-9.365-.002-.13 0-.263 0-.394a4.142 4.142 0 0 0-4.083-4.083H289.996c-2.6 0-5.206-.052-7.805 0-.11.003-.222 0-.332 0A4.142 4.142 0 0 0 277.776 25v230.562c0 3.12-.05 6.245 0 9.364.002.132 0 .264 0 .395a4.142 4.142 0 0 0 4.083 4.082h192.228c2.6 0 5.206.053 7.805 0 .11-.002.222 0 .332 0a4.083 4.083 0 1 0 0-8.165zM562.613 386.137l-.916 21.996-1.905 45.713-1.62 38.882c-.105 2.526-.331 5.079-.317 7.608a7.944 7.944 0 0 0 .834 2.952l2.75 6.97 14.494 36.74.335.847c.78 1.98 2.768 3.581 5.022 2.852 1.92-.622 3.69-2.895 2.851-5.022l-13.01-32.978-3.465-8.783a42.319 42.319 0 0 0-1.736-4.4c-.332-.622.007 1.477.093.773.036-.296.025-.605.037-.902l.166-3.973 1.509-36.21 1.927-46.27c.367-8.79.897-17.59 1.1-26.387.003-.136.011-.272.017-.408a4.113 4.113 0 0 0-4.083-4.083 4.169 4.169 0 0 0-4.082 4.083z" fill="#000000" class="fill-000000"></path><path d="M455.24 246.413H308.843v-33.48a73.199 73.199 0 0 1 73.2-73.199 73.199 73.199 0 0 1 73.199 73.2z" fill="#ffffff" class="fill-ffffff"></path><path d="M455.24 242.33H326.918c-5.922 0-11.91-.26-17.828 0-.082.004-.165 0-.247 0l4.083 4.083v-17.988c0-6.261-.206-12.565.075-18.823q.104-2.338.357-4.667c.037-.342.079-.684.119-1.026.095-.818-.084.538.034-.276.115-.789.237-1.577.375-2.362a72.732 72.732 0 0 1 2.086-8.7q.636-2.075 1.394-4.111.378-1.013.785-2.014c.123-.303.39-.909.1-.25.156-.353.307-.709.465-1.062a72.924 72.924 0 0 1 4.038-7.745q1.097-1.83 2.3-3.593.6-.88 1.225-1.741.289-.398.583-.792c.097-.13.197-.26.294-.392.46-.622-.247.3.06-.082a83.236 83.236 0 0 1 5.608-6.38 73.576 73.576 0 0 1 6.432-5.794q.384-.307.77-.608c-.625.489.103-.073.346-.254q.853-.637 1.725-1.249 1.812-1.272 3.7-2.433a73.145 73.145 0 0 1 7.542-4.052c.652-.303 1.31-.588 1.966-.877-.659.29-.053.023.25-.1q.616-.25 1.236-.49 2.023-.78 4.09-1.44a72.725 72.725 0 0 1 8.661-2.183q1.006-.188 2.016-.349c.394-.062.789-.12 1.184-.178.078-.011.65-.084.137-.02-.527.066.217-.024.31-.036q2.232-.269 4.478-.401a74.352 74.352 0 0 1 8.924.01c1.497.092 2.987.238 4.476.412.077.009.652.079.138.015-.55-.07.176.025.307.044q.508.073 1.015.153 1.178.187 2.35.413a72.711 72.711 0 0 1 8.486 2.17q2.143.69 4.241 1.51.465.181.926.369c.303.123.909.39.25.1.708.31 1.416.62 2.116.946a73.045 73.045 0 0 1 7.673 4.156q1.81 1.125 3.554 2.355.87.613 1.721 1.252c.258.193.774.593.214.156q.452.352.899.71a73.66 73.66 0 0 1 6.419 5.808q1.489 1.515 2.888 3.114.7.8 1.376 1.62.312.378.62.76l.306.384c.068.085.628.81.285.361-.286-.374.284.38.373.5q.294.393.582.79.674.929 1.318 1.878 1.199 1.765 2.293 3.598a72.995 72.995 0 0 1 4.02 7.755c.135.303.265.608.398.911-.29-.659-.023-.053.1.25q.439 1.078.843 2.17.754 2.037 1.385 4.116a72.739 72.739 0 0 1 2.066 8.707c.126.73.24 1.461.346 2.194.118.814-.061-.542.034.276.054.456.108.912.156 1.369q.233 2.243.328 4.498a90.3 90.3 0 0 1 .067 3.835v32.802a4.083 4.083 0 0 0 8.165 0v-18.485c0-6.662.282-13.41-.173-20.063a77.281 77.281 0 0 0-109.481-65.103 76.246 76.246 0 0 0-28.025 21.997 77.382 77.382 0 0 0-15.48 33.505c-1.457 7.765-1.404 15.502-1.404 23.35v24.8a4.142 4.142 0 0 0 4.082 4.082h128.323c5.936 0 11.894.148 17.828 0 .082-.002.165 0 .247 0a4.083 4.083 0 1 0 0-8.165zM656.172 379.459H528.678l-25.186-179.872h170.972z" fill="#000000" class="fill-000000"></path><path d="M539.246 203.67H657.82c5.451 0 10.966.245 16.414 0 .076-.004.154 0 .23 0l-4.083-4.083-.49 4.815-1.332 13.103-1.97 19.378-2.393 23.523-2.632 25.885-2.658 26.132-2.478 24.366-2.093 20.588-1.5 14.743c-.237 2.34-.553 4.687-.715 7.034-.007.102-.02.204-.03.305l4.082-4.082h-88.097c-4.032 0-8.13-.212-12.158 0-.057.003-.115 0-.172 0l4.083 4.082-1.028-11.101-2.444-26.4-2.978-32.168-2.557-27.607c-.417-4.511-.794-9.028-1.253-13.535l-.017-.187c-.196-2.12-1.737-4.188-4.083-4.083-2.043.092-4.293 1.805-4.082 4.083l1.028 11.1 2.444 26.4 2.978 32.168 2.556 27.607c.418 4.511.795 9.028 1.253 13.535l.018.188a4.174 4.174 0 0 0 4.082 4.083h88.097c4.046 0 8.114.122 12.159 0 .057-.002.114 0 .171 0a4.19 4.19 0 0 0 4.083-4.083l.49-4.815 1.332-13.103 1.97-19.378 2.393-23.523 2.632-25.885 2.658-26.132 2.478-24.366 2.094-20.587 1.498-14.744c.238-2.339.562-4.687.715-7.034.007-.102.021-.203.031-.305.224-2.199-2.051-4.082-4.082-4.082H555.89c-5.465 0-10.95-.14-16.414 0-.077.002-.154 0-.23 0a4.083 4.083 0 0 0 0 8.165z" fill="#000000" class="fill-000000"></path><path d="m655.725 251.67-42.536 135.443-62.339-157.23-13.449-27.804c-5.81-12.013-24.954-42.196-45.662-44.435l-14.75-2.892a8.294 8.294 0 0 0-9.493 10.678l.736 2.288-10.34 55.645 18.76 21.349a110.916 110.916 0 0 0 31.138 24.66l74.617 191.059h66.043l78.355-228.91V199.62h-69.15" fill="#ffffff" class="fill-ffffff"></path><path d="m651.788 250.585-4.226 13.458-10.151 32.323-12.284 39.115-10.625 33.833-3.506 11.162c-.553 1.76-1.219 3.523-1.669 5.314-.02.08-.05.159-.074.238h7.873l-3.961-9.991-10.028-25.292-13.47-33.975-14.12-35.61-12.135-30.608-7.472-18.846c-1.807-4.558-3.998-8.913-6.134-13.33-4.367-9.029-8.395-18.356-13.607-26.944a127.671 127.671 0 0 0-15.079-20.274c-5.962-6.471-12.9-12.291-21.13-15.6a28.155 28.155 0 0 0-5.444-1.6 35.38 35.38 0 0 0-1.575-.239c-.048-.006-1.555-.061-.521-.065.98-.005.418.087.323.043a3.706 3.706 0 0 0-.757-.148l-8.199-1.608c-1.913-.375-3.823-.785-5.743-1.126-5.371-.954-11.025 1.225-13.605 6.256-2.021 3.942-1.465 7.715-.174 11.733v-2.171l-8.125 43.727-1.789 9.625c-.129.694-.266 1.387-.387 2.083a5.017 5.017 0 0 0 1.285 4.494c5.273 6.116 10.663 12.135 15.994 18.201a146.796 146.796 0 0 0 10.568 11.114 116.29 116.29 0 0 0 23.888 17.021l-1.876-2.44 7.45 19.075 17.774 45.511 21.605 55.319 18.584 47.586c3.027 7.748 6.004 15.518 9.08 23.247l.125.32a4.246 4.246 0 0 0 3.936 2.997h66.043a4.198 4.198 0 0 0 3.936-2.997l2.668-7.793 7.152-20.896 10.319-30.145 12.34-36.052 12.908-37.708 12.345-36.066 10.46-30.556 7.277-21.262c.951-2.778 2.136-5.573 2.88-8.416a14.305 14.305 0 0 0 .152-3.52V199.62a4.142 4.142 0 0 0-4.083-4.083h-69.15c-5.253 0-5.262 8.166 0 8.166h69.15l-4.082-4.083v29.65c0 .647-.031 1.303 0 1.95.04.843.08-.667.135-.752a3.688 3.688 0 0 0-.263.768l-1.503 4.39-6.398 18.692-9.808 28.653-11.973 34.979-12.878 37.622-12.567 36.714-10.897 31.833-8.037 23.481c-1.283 3.747-2.677 7.474-3.853 11.256-.051.164-.112.326-.168.49l3.937-2.998h-66.042l3.937 2.997-2.903-7.433-7.712-19.745-11.074-28.356-12.844-32.886-13.156-33.687-11.973-30.658-9.294-23.796-5.118-13.103c-.15-.387-.299-.774-.453-1.16-.028-.072-.055-.145-.084-.217-.902-2.24-2.915-2.988-4.878-4.113a107.147 107.147 0 0 1-24.115-18.875c-6.906-7.213-13.29-14.971-19.88-22.47l-2.082-2.37 1.05 3.973 5.921-31.863 3.553-19.118c.272-1.462.56-2.921.815-4.386a6.838 6.838 0 0 0-.27-3.452 13.58 13.58 0 0 1-.716-2.54c.073.658.047-.715.073-.957-.078.74.053-.092.099-.28q.071-.285.17-.562-.226.464-.038.076c.138-.294.314-.563.47-.847.352-.641.186-.27.05-.107.207-.249.439-.47.667-.697.137-.137.798-.573.232-.207.212-.137 1.39-.72.759-.476a9.033 9.033 0 0 1 .949-.285q.434-.085-.093-.027a8.197 8.197 0 0 1 .821-.047c.156-.001 1.258.118.622.016.09.015.178.037.267.053.5.09.997.195 1.496.293l10.329 2.025c.88.173 1.758.368 2.642.518-.282-.048 2.253.338 1.042.137a30.51 30.51 0 0 1 1.717.325 28.02 28.02 0 0 1 3.403 1.004c.246.09 1.44.563.708.255.564.237 1.12.499 1.669.77a40.473 40.473 0 0 1 3.289 1.82 48.607 48.607 0 0 1 2.897 1.928q.318.228.634.462c-.074-.055.956.724.532.396-.427-.328.6.48.524.419q.468.376.928.761a85.63 85.63 0 0 1 10.876 11.107q1.17 1.41 2.294 2.859c-.322-.416.549.727.701.93q.653.872 1.29 1.755 2.106 2.913 4.053 5.936a137.224 137.224 0 0 1 8.124 14.694l9.16 18.939c.916 1.895 1.775 3.833 2.755 5.696.356.678-.513-1.3-.283-.689.072.19.15.38.225.569l7.562 19.072 14.598 36.82 16.987 42.844 14.696 37.065 7.865 19.836.36.91a4.25 4.25 0 0 0 3.937 2.997 4.194 4.194 0 0 0 3.937-2.997l4.226-13.458 10.151-32.323 12.284-39.115 10.626-33.833c1.72-5.476 3.671-10.935 5.174-16.476.022-.08.05-.159.075-.238a4.084 4.084 0 0 0-7.874-2.17z" fill="#000000" class="fill-000000"></path><path d="M657.655 199.62h76.425v31.902l-33.021 147.755-90.668-32.461 39.177-126.488" fill="#000000" class="fill-000000"></path><path d="M657.655 203.703h76.425l-4.083-4.083v29.675a6.814 6.814 0 0 0 0 2.186c-.062-.126.288-1.57.078-.74-.67 2.65-1.195 5.348-1.792 8.017l-3.767 16.856-5.083 22.748-5.719 25.586-5.753 25.743-5.106 22.85-3.805 17.026c-.614 2.746-1.319 5.49-1.845 8.255-.024.124-.055.246-.083.37l5.022-2.851-9.041-3.237-21.592-7.73-26.234-9.393-22.593-8.089c-3.666-1.312-7.321-2.83-11.05-3.956-.054-.016-.106-.038-.158-.057l2.851 5.023 3.91-12.625 9.35-30.188 11.343-36.618 9.767-31.532c1.577-5.093 3.34-10.167 4.742-15.312.02-.072.044-.143.066-.214a4.12 4.12 0 0 0-2.851-5.022 4.17 4.17 0 0 0-5.022 2.852l-3.91 12.625-9.35 30.187-11.342 36.618-9.767 31.532c-1.577 5.093-3.34 10.167-4.742 15.312-.02.072-.044.143-.066.214a4.17 4.17 0 0 0 2.851 5.022l9.041 3.237 21.592 7.73 26.234 9.392 22.593 8.089c3.667 1.313 7.322 2.824 11.051 3.956.053.016.105.038.157.057a4.111 4.111 0 0 0 5.022-2.852l1.276-5.71 3.392-15.178 4.877-21.822 5.66-25.321 5.804-25.977 5.297-23.698 4.131-18.488 2.312-10.344c.68-3.04.418-6.177.418-9.277V199.62a4.142 4.142 0 0 0-4.083-4.083h-76.425a4.083 4.083 0 0 0 0 8.165z" fill="#000000" class="fill-000000"></path><path d="M486.702 194.023s-25.014-19.187-55.91-18.708a9.536 9.536 0 0 1-6.653-2.42c-8.544-7.903 6.714-23.985 75.93 5.065" fill="#ffffff" class="fill-ffffff"></path><path d="M488.762 190.498c-7.084-5.423-15.473-9.454-23.73-12.692a96.317 96.317 0 0 0-24.723-6.119q-3.483-.38-6.992-.45c-1.112-.021-2.225.007-3.338-.023-.135-.003-.784-.118-.119.002-.264-.048-.527-.106-.786-.174s-.513-.152-.767-.237c.528.178-.094-.044-.305-.157-.157-.084-1.157-.763-.672-.371a6.864 6.864 0 0 1-.471-.428c-.162-.157-.31-.325-.464-.488-.667-.702.514.785.234.322-.102-.168-.226-.322-.327-.49-.087-.143-.16-.294-.243-.44-.452-.79.296.965.155.38-.078-.325-.317-1.506-.178-.487.138 1.016.082-.167.06-.492.025.37-.292 1.292-.052.541.052-.165.112-.34.154-.508.156-.623-.637 1.198-.178.445.098-.161.193-.328.288-.491.474-.814-.646.706-.26.32.149-.149.279-.317.429-.465s.315-.277.467-.422c.426-.409-1.066.721-.19.158a14.01 14.01 0 0 1 1.32-.771c.228-.114 1.156-.517.302-.156-.862.364.179-.06.43-.148.626-.22 1.264-.405 1.909-.562a26.65 26.65 0 0 1 2.208-.436c.193-.03.39-.05.582-.085.061-.012-1.222.14-.638.087.102-.009.203-.025.305-.036.448-.046.896-.093 1.345-.128a50.833 50.833 0 0 1 6.033-.083c1.174.049 2.346.13 3.515.235q.915.083 1.828.187.472.053.944.112l.48.06c.738.088-.755-.11-.233-.031 15.334 2.331 30.127 7.22 44.517 12.91q3.707 1.465 7.381 3.01c1.976.827 4.576-.89 5.022-2.852.544-2.388-.735-4.135-2.851-5.022-15.698-6.577-32.006-12.618-48.854-15.452a79.97 79.97 0 0 0-15.827-1.346 31.973 31.973 0 0 0-10.358 1.752 13.496 13.496 0 0 0-6.894 5.1 8.633 8.633 0 0 0-.932 7.076c1.388 4.487 5.843 7.469 10.342 8.073 2.438.328 4.933.142 7.39.275q1.743.095 3.48.268.808.08 1.614.176.4.048.8.1c-.592-.077.048.009.307.047a90.112 90.112 0 0 1 12.94 2.916q2.915.88 5.772 1.938 1.284.475 2.556.983c.413.166.825.335 1.237.504.71.29.066.026-.066-.03q.447.19.893.384 4.546 1.98 8.902 4.363a88.402 88.402 0 0 1 9.742 6.07c.149.109.298.217.444.33 1.703 1.303 4.643.32 5.585-1.466 1.141-2.16.354-4.193-1.464-5.585z" fill="#000000" class="fill-000000"></path><path d="M264.723 221.858c8.249.999 11.921-.27 21.382-2.2a9.536 9.536 0 0 1 6.985 1.148c7.727 4.85 2.01 17.344-36.171 14.927" fill="#ffffff" class="fill-ffffff"></path><path d="M264.723 225.94a43.496 43.496 0 0 0 11.322-.147c3.886-.55 7.667-1.72 11.545-2.273-.67.096.53.007.729.01.201.002.402.014.603.023-.658-.03-.05-.02.107.015a9.897 9.897 0 0 1 1.348.38c.448.17.016.022-.053-.014.256.135.509.272.753.428.514.326.801.91-.068-.097.164.19.402.34.581.52a6.64 6.64 0 0 0 .497.555c-.104-.082-.694-1.042-.383-.478.06.109.138.21.2.318.054.093.095.197.154.285.329.49-.268-.728-.244-.602a6.143 6.143 0 0 0 .212.684c.274.853.003-1.046-.047-.38a2.648 2.648 0 0 0-.018.72c.017.036.276-1.202.082-.676-.037.1-.048.218-.076.32-.03.108-.077.214-.1.323-.137.641.431-.819.225-.515-.144.213-.237.472-.374.692-.068.109-.148.211-.214.321-.375.625.6-.653.286-.369-.472.43-.907.914-1.383 1.346-.437.398.915-.647.313-.245-.146.097-.286.203-.432.3-.355.24-.722.461-1.095.67q-.533.3-1.085.564c-.195.094-.393.18-.588.273-.74.354.962-.367-.01.004a40.657 40.657 0 0 1-6.627 1.88q-1.17.232-2.348.413c-.402.062-1.316.179-.391.064-.464.058-.927.117-1.392.168a86.07 86.07 0 0 1-5.61.429 132.96 132.96 0 0 1-14.224-.198 4.106 4.106 0 0 0-4.083 4.082 4.178 4.178 0 0 0 4.083 4.083 107.218 107.218 0 0 0 24.779-.916c4.584-.788 9.518-2.098 13.32-4.896 2.88-2.12 5.335-5.188 5.117-8.971-.253-4.402-3.65-7.515-7.587-8.958-2.855-1.046-5.818-.713-8.718-.109-2.376.495-4.745 1.031-7.13 1.483-.504.095-1.01.187-1.517.27q-.329.055-.658.106c-.121.018-1.047.132-.43.064.571-.063-.125.011-.265.025-.268.027-.537.056-.806.08q-.733.064-1.468.097a42.395 42.395 0 0 1-6.832-.316c-2.13-.25-4.174 2.057-4.083 4.083a4.203 4.203 0 0 0 4.083 4.083z" fill="#000000" class="fill-000000"></path><path d="M266.583 208.555c8.249.999 11.92-.27 21.382-2.2a9.536 9.536 0 0 1 6.985 1.148c7.727 4.85 2.01 17.344-36.172 14.927" fill="#ffffff" class="fill-ffffff"></path><path d="M266.583 212.638a43.5 43.5 0 0 0 11.321-.148c3.887-.55 7.668-1.72 11.546-2.273-.67.095.53.007.728.01.202.002.402.014.604.023-.658-.03-.05-.02.106.015a9.913 9.913 0 0 1 1.348.38c.449.17.016.022-.052-.014.256.136.509.272.753.428.513.326.8.91-.069-.097.165.19.402.34.582.52a6.658 6.658 0 0 0 .497.555c-.105-.082-.695-1.042-.383-.478.06.109.138.21.2.318.054.092.095.196.154.285.329.49-.268-.728-.244-.602a6.141 6.141 0 0 0 .212.684c.274.853.002-1.046-.047-.38a2.644 2.644 0 0 0-.019.72c.017.036.277-1.202.083-.676-.037.1-.049.218-.077.32-.03.108-.077.214-.1.323-.137.641.432-.819.226-.515-.144.213-.237.471-.374.691-.069.11-.149.212-.215.322-.375.625.6-.653.287-.369-.472.43-.908.914-1.383 1.346-.437.398.915-.647.312-.245-.145.097-.286.203-.431.3-.356.24-.722.461-1.096.67q-.533.3-1.084.564c-.195.094-.393.18-.588.273-.74.354.962-.367-.01.003a40.66 40.66 0 0 1-6.627 1.882q-1.17.231-2.348.412c-.402.062-1.316.178-.392.064-.463.058-.927.117-1.391.168a86.145 86.145 0 0 1-5.61.429 132.936 132.936 0 0 1-14.224-.199 4.106 4.106 0 0 0-4.083 4.083 4.177 4.177 0 0 0 4.083 4.083 107.223 107.223 0 0 0 24.779-.916c4.584-.788 9.517-2.098 13.32-4.897 2.88-2.12 5.335-5.187 5.117-8.97-.254-4.402-3.65-7.515-7.588-8.958-2.854-1.046-5.817-.713-8.718-.11-2.376.496-4.744 1.032-7.129 1.483-.505.096-1.01.188-1.518.272q-.328.054-.657.105c-.121.018-1.047.131-.431.064.572-.063-.125.01-.264.025-.269.027-.537.056-.806.08q-.733.064-1.468.097a42.394 42.394 0 0 1-6.833-.316c-2.129-.25-4.173 2.057-4.082 4.083a4.203 4.203 0 0 0 4.082 4.082z" fill="#000000" class="fill-000000"></path><path d="M264.64 194.156a74.13 74.13 0 0 0 25.185-1.105 9.536 9.536 0 0 1 6.985 1.149c7.727 4.85 2.01 17.343-36.172 14.927" fill="#ffffff" class="fill-ffffff"></path><path d="M264.64 198.238a77.02 77.02 0 0 0 12.56.529 75.807 75.807 0 0 0 6.531-.593c2.543-.337 5.045-.902 7.579-1.26-.67.095.53.007.728.01.202.002.402.014.604.023-.658-.03-.05-.02.106.015a9.902 9.902 0 0 1 1.348.38c.449.17.016.022-.052-.015.255.136.508.273.753.428.513.327.8.91-.069-.097.165.19.402.34.582.52a6.658 6.658 0 0 0 .497.555c-.105-.081-.695-1.041-.383-.478.06.11.137.21.2.319.053.092.095.196.154.284.328.491-.268-.727-.245-.601a6.164 6.164 0 0 0 .212.684c.274.852.003-1.046-.047-.381a2.648 2.648 0 0 0-.018.72c.017.036.277-1.202.083-.675-.037.1-.049.217-.077.32-.03.108-.077.214-.1.322-.137.641.432-.818.226-.514-.144.212-.237.47-.375.691-.068.11-.148.212-.214.322-.375.624.6-.654.287-.37-.473.43-.908.914-1.383 1.347-.437.398.914-.647.312-.246-.146.097-.286.203-.431.301-.356.239-.723.46-1.096.67q-.533.3-1.085.564c-.194.094-.393.18-.588.272-.74.354.963-.367-.01.004a40.656 40.656 0 0 1-6.626 1.881q-1.17.232-2.348.412c-.403.062-1.316.179-.392.065-.464.057-.927.116-1.391.168a86.008 86.008 0 0 1-5.611.428 132.934 132.934 0 0 1-14.224-.198 4.106 4.106 0 0 0-4.082 4.083 4.177 4.177 0 0 0 4.082 4.082 107.229 107.229 0 0 0 24.78-.916c4.584-.787 9.517-2.098 13.32-4.896 2.88-2.12 5.334-5.188 5.117-8.97-.254-4.402-3.65-7.516-7.588-8.958-2.881-1.056-5.81-.677-8.74-.116a64.031 64.031 0 0 1-7.545 1.067 75.794 75.794 0 0 1-15.342-.348c-2.129-.253-4.173 2.058-4.083 4.083.11 2.428 1.802 3.811 4.083 4.082z" fill="#000000" class="fill-000000"></path><path d="M260.203 196.069c38.788 2.454 44.072-10.477 35.794-15.152a9.485 9.485 0 0 0-6.565-.933 81.814 81.814 0 0 1-21.67 1.376 5.705 5.705 0 0 1-5.335-5.696v-3.468" fill="#ffffff" class="fill-ffffff"></path><path d="M260.203 200.151c8.776.543 17.733.539 26.387-1.216 4.822-.978 10.079-2.657 13.667-6.2a9.37 9.37 0 0 0 2.256-10.797 10.412 10.412 0 0 0-3.559-3.97 11.855 11.855 0 0 0-4.645-1.98c-3.224-.608-6.196.177-9.37.674a75.957 75.957 0 0 1-8.707.761q-2.2.07-4.403.026-1.137-.022-2.273-.073-.45-.02-.9-.045c-.325-.018-1.33-.191-.489.007a35.43 35.43 0 0 1-.652-.161c-.914-.234.565.368-.225-.122-.63-.392-.081-.03.034.072a7.666 7.666 0 0 1-.682-.689c.525.6.181.215.08.03-.465-.853.12.734-.11-.223-.053-.217-.107-.43-.157-.648.185.8.04.288.055.044.07-1.14 0-2.303 0-3.445a4.083 4.083 0 1 0-8.165 0c0 3.102-.196 6.248 1.684 8.935a9.758 9.758 0 0 0 6.304 4.133 46.942 46.942 0 0 0 8.265.36 81.724 81.724 0 0 0 8.047-.49q2.36-.264 4.708-.638.975-.155 1.945-.337c.325-.061.65-.127.975-.19.198-.038 1.009-.124.423-.082a9.412 9.412 0 0 1 1.692.007c-.674-.073.203.062.367.103a7.832 7.832 0 0 1 .806.244c.64.238-.412-.236.187.1.112.064.226.122.338.187.146.086.287.18.43.27.949.591-.715-.699-.008-.019.208.201.416.399.619.606.73.748-.527-.904-.079-.098a4.897 4.897 0 0 0 .378.689c-.72-.872-.362-1.037-.246-.555.03.125.072.262.112.386.037.111.032.239.07.348-.044-.127-.055-1.307-.096-.598-.016.27-.093 1.23.033.269s-.06.009-.12.28c-.154.688.157-.384.214-.468-.075.11-.112.253-.182.369-.158.26-.351.516-.496.78-.16.294.822-.922.236-.324-.115.118-.22.245-.334.363-.262.27-.547.508-.827.758-.642.573.852-.587.204-.158-.167.11-.328.232-.496.343-.383.253-.777.488-1.18.709-.443.243-.899.458-1.355.676-.113.054-.233.096-.344.154-.428.225.905-.34.44-.185-.286.095-.564.225-.846.33a35.178 35.178 0 0 1-3.67 1.127c-1.705.43-3.433.743-5.17 1.01-.148.023-.794.118-.199.032.65-.095-.234.028-.367.044q-.788.096-1.578.175-1.598.16-3.201.257a128.109 128.109 0 0 1-15.826-.112 4.106 4.106 0 0 0-4.082 4.082 4.177 4.177 0 0 0 4.082 4.083z" fill="#000000" class="fill-000000"></path><path d="M481.664 207.456s-24.195-16.737-55.005-14.375a9.535 9.535 0 0 1-6.787-2.01c-9.01-7.367 5.238-24.35 76.096.425" fill="#ffffff" class="fill-ffffff"></path><path d="M483.725 203.93a60.576 60.576 0 0 0-6.47-3.767 104.968 104.968 0 0 0-17.947-7.323 92.945 92.945 0 0 0-25.34-4.06 82.207 82.207 0 0 0-6.871.185c-.555.038-1.1.054-1.655.056-.766.002-.34-.001-.12.028a7.696 7.696 0 0 1-.788-.158c-.167-.04-1.502-.56-.907-.263-.24-.12-.466-.266-.705-.384-.232-.114-.476-.302-.194-.085a7.966 7.966 0 0 1-.888-.847c-.374-.393-.426-.917.236.337-.082-.155-.213-.297-.307-.447s-.17-.308-.258-.46c-.46-.786.315 1.019.17.42-.038-.159-.099-.322-.148-.477-.173-.55.143-.934.038.513a4.007 4.007 0 0 0-.01-.974c.036.12-.296 1.324-.054.537.052-.168.112-.345.153-.516.151-.628-.632 1.201-.177.435.098-.167.192-.337.29-.505.402-.694-.048.121-.28.331.155-.14.28-.333.428-.485.15-.155.306-.302.468-.444.084-.075.175-.142.258-.218.495-.457-.925.64-.445.345.447-.275.866-.584 1.33-.836.23-.124.464-.242.7-.354.131-.062.268-.117.398-.182.566-.285-1.144.442-.4.17.639-.233 1.272-.468 1.926-.659a27.92 27.92 0 0 1 2.235-.549q.558-.114 1.12-.209.311-.053.624-.1c.107-.016.213-.03.32-.047.665-.105-.419.06-.515.068a85.037 85.037 0 0 1 13.38-.144q2.144.167 4.279.421.547.065 1.093.134c.185.024.37.05.555.072.567.07-.812-.117-.242-.032.82.121 1.64.234 2.458.362a170.41 170.41 0 0 1 10.355 1.97c8.7 1.92 17.272 4.394 25.736 7.162q3.677 1.202 7.33 2.481a4.109 4.109 0 0 0 5.021-2.851 4.184 4.184 0 0 0-2.851-5.022c-16.246-5.67-32.976-10.598-50.128-12.518-8.604-.963-18.153-1.369-26.264 2.174-4.591 2.006-8.576 6.642-6.915 11.94a11.967 11.967 0 0 0 8.23 7.507c2.57.736 5.11.426 7.726.328q3.593-.135 7.187.056 1.637.085 3.27.235.803.074 1.604.163.398.044.795.092c.093.011 1.127.144.64.079-.483-.065.328.048.433.063q.484.07.967.146.766.12 1.53.255 1.59.278 3.171.614a95.96 95.96 0 0 1 11.345 3.157q2.503.863 4.958 1.857c.36.146.72.297 1.08.444-1.018-.416.07.033.326.144q1.106.481 2.2.989a78.798 78.798 0 0 1 9.934 5.39c.154.1.31.201.462.306a4.106 4.106 0 0 0 5.585-1.464 4.186 4.186 0 0 0-1.464-5.586z" fill="#000000" class="fill-000000"></path><path d="M476.068 220.328s-25.186-12.872-55.403-9.76a10.155 10.155 0 0 1-6.923-1.478c-9.553-6.647 3.337-24.683 75.901-5.47" fill="#ffffff" class="fill-ffffff"></path><path d="M478.128 216.803a101.859 101.859 0 0 0-26.742-8.684 107.562 107.562 0 0 0-27.084-1.935c-1.215.077-2.425.194-3.637.301a16.47 16.47 0 0 1-1.42.075c-.27 0-.539-.007-.808-.024-.28-.018-.883-.156-.307-.027a9.515 9.515 0 0 1-1.531-.429c.64.263-.668-.435-.796-.515-.075-.047-.14-.118-.219-.157-.436-.218.927.801.5.384-.273-.268-.562-.516-.83-.791-.584-.598.2.225.252.351a3.672 3.672 0 0 0-.293-.437c-.088-.146-.155-.306-.245-.45-.35-.565.38 1.228.197.455-.036-.156-.089-.319-.136-.472-.228-.749.078.19.056.544a6.67 6.67 0 0 0 .011-.979c.142 1.35-.22 1.098-.04.53.05-.163.115-.332.155-.496.119-.493-.64 1.22-.166.418.096-.163.18-.332.283-.492.3-.472.769-.63-.246.278.152-.137.275-.331.416-.482.318-.34.706-.607 1.027-.938-1.051 1.083-.566.425-.131.129q.338-.23.69-.44a17.091 17.091 0 0 1 1.593-.834c.147-.068.297-.129.443-.198.52-.246-1.151.455-.396.17.329-.124.655-.253.987-.37a33.973 33.973 0 0 1 4.709-1.252c.939-.185 1.887-.302 2.829-.468-1.581.279.231-.02.65-.063q.815-.087 1.632-.152a84.018 84.018 0 0 1 7.39-.248c2.947.023 5.893.17 8.83.405q2.495.2 4.982.48 1.32.148 2.636.315l.674.087c.077.01.648.086.14.018-.55-.074.185.026.315.044l.87.122c8.643 1.239 17.208 3.01 25.69 5.073q3.76.915 7.5 1.907a4.084 4.084 0 0 0 2.17-7.874c-16.386-4.327-33.273-7.982-50.262-8.656-8.686-.345-18.251-.109-26.23 3.761-4.51 2.187-8.566 6.788-7.002 12.127a10.722 10.722 0 0 0 4.786 5.924c4.59 2.841 9.925 1.552 14.972 1.382a100.73 100.73 0 0 1 14.273.552q.702.077 1.403.162l.794.1c-.707-.09-.034-.005.093.013 1.15.165 2.299.342 3.444.54q2.98.515 5.93 1.188 5.123 1.165 10.127 2.787 3.718 1.205 7.345 2.67c.225.092.45.186.675.277.806.328-.96-.414-.203-.086.376.163.754.325 1.128.492.5.223.999.45 1.492.687.172.083.344.165.514.252a4.083 4.083 0 0 0 4.121-7.05z" fill="#000000" class="fill-000000"></path><path d="M489.622 217.984c-73.7-14.251-85.338 4.617-75.356 10.601a9.536 9.536 0 0 0 7.007 1.006c15.811-3.567 30.522-1.896 44.72 1.371 0 0 15.112 26.865 41.976 38.618" fill="#ffffff" class="fill-ffffff"></path><path d="M490.707 214.047c-14.804-2.853-29.882-5.11-44.984-5.338-8.584-.129-17.656.241-25.885 2.93-4.399 1.438-9.7 3.853-11.757 8.34-2.024 4.416-.457 8.857 3.383 11.634a12.876 12.876 0 0 0 8.75 2.241c2.418-.266 4.787-.913 7.19-1.297 1.99-.317 3.938-.528 6.232-.685a90.564 90.564 0 0 1 13.097.084 99.608 99.608 0 0 1 12.058 1.65c2.047.39 4.086.828 6.118 1.293l-2.44-1.877a88.14 88.14 0 0 0 7.346 10.61 108.75 108.75 0 0 0 19.868 19.788 79.87 79.87 0 0 0 16.226 9.685c1.949.86 4.476.636 5.586-1.464.936-1.772.621-4.666-1.465-5.586a77.473 77.473 0 0 1-12.737-7.147q-1.336-.922-2.636-1.894l-.57-.429c-.915-.684.385.312-.157-.119-.504-.4-1.01-.798-1.51-1.205q-2.508-2.045-4.874-4.255a108.303 108.303 0 0 1-8.309-8.672q-1.641-1.912-3.196-3.894c-.7-.888.385.514-.18-.23-.212-.278-.425-.556-.635-.836q-.655-.872-1.292-1.757a93.382 93.382 0 0 1-3.476-5.154c-1.118-1.792-1.8-3.084-4.249-3.635-11.575-2.605-23.534-4.097-35.388-2.88a91.038 91.038 0 0 0-9.908 1.547c-.382.082-.762.184-1.147.246.192-.031.647-.026-.192.008-.283.012-.57-.001-.853.015-1.092.06.46.194-.602-.046a19.45 19.45 0 0 1-.821-.208c-.717-.195-.417-.132-.215-.046a6.792 6.792 0 0 1-1.014-.564c-.453-.293-.821-.858.228.214-.161-.165-.364-.298-.532-.458-.148-.14-.28-.292-.421-.438-.647-.664.582.94.201.261a14.77 14.77 0 0 0-.306-.512c-.488-.788.287.987.143.359a7.86 7.86 0 0 0-.156-.55c-.27-.87.015 1.264.056.43.01-.177.01-.372.003-.548-.029-.76-.315 1.277-.049.405.057-.184.112-.376.16-.562.212-.816-.612 1.152-.116.284.109-.19.208-.382.327-.567.068-.106.149-.206.214-.314.338-.554-.799.93-.348.45a15.935 15.935 0 0 1 1.19-1.207c.109-.093.226-.177.33-.273.34-.314-1.078.777-.352.277.29-.2.576-.403.875-.59a19.702 19.702 0 0 1 1.964-1.075c.194-.092.39-.18.585-.27.669-.308-.01.031-.362.148.444-.148.875-.351 1.315-.51a37.222 37.222 0 0 1 2.909-.912 49.42 49.42 0 0 1 3.38-.785c1.216-.24 2.586-.266 3.765-.622-1.262.38-.25.036.203-.018q.443-.052.886-.1 1.154-.124 2.311-.216c1.633-.132 3.27-.22 4.908-.275 3.77-.125 7.546-.071 11.314.102 4.541.21 9.074.593 13.591 1.097q1.862.208 3.721.443.908.115 1.815.235c.778.104-.973-.138.349.049l1.246.174q4.132.588 8.247 1.286 4.447.75 8.874 1.609c2.09.402 4.506-.587 5.022-2.852.459-2.017-.61-4.59-2.852-5.022z" fill="#000000" class="fill-000000"></path><path d="m634.457 199.62-.702-45.584-7.951-90.245-70.113.044 2.318 79.03c.119 10.71 8.954 19.43 19.988 19.724l5.291.142-1.44 36.889a34.458 34.458 0 0 0 49.793 2.653z" fill="#ffffff" class="fill-ffffff"></path><path d="m638.54 199.62-.439-28.477c-.096-6.276.13-12.638-.42-18.895l-2.38-27-3.398-38.574c-.662-7.508-1.273-15.023-1.985-22.526l-.031-.357a4.172 4.172 0 0 0-4.083-4.083l-23.748.015-37.698.024-8.667.005a4.13 4.13 0 0 0-4.083 4.083l.361 12.302.791 26.963.797 27.181c.123 4.193.254 8.386.37 12.579a24.034 24.034 0 0 0 8.943 18.275 24.878 24.878 0 0 0 10.23 4.943 43.629 43.629 0 0 0 7.913.674l2.275.061-4.082-4.082-1.198 30.65-.218 5.587a4.862 4.862 0 0 0 1.17 3.539 32.864 32.864 0 0 0 4.85 4.66 38.624 38.624 0 0 0 27.873 8.375 39.127 39.127 0 0 0 16.109-5.26 57.185 57.185 0 0 0 9.552-7.775 4.119 4.119 0 0 0 0-5.773 4.167 4.167 0 0 0-5.774 0l-2.375 2.238c-.366.345-.73.69-1.105 1.025q-.6.537-1.224 1.046c-.184.15-.369.298-.556.444.456-.354.102-.086-.162.105a34.292 34.292 0 0 1-5.207 3.116q-.386.187-.775.363c-.113.05-.778.342-.295.135.57-.243-.46.18-.459.18q-.317.123-.636.24-1.429.524-2.901.917-1.381.37-2.79.624c-.25.045-1.755.25-.737.134-.554.063-1.108.126-1.664.168a34.694 34.694 0 0 1-5.84-.044c-.208-.019-1.8-.235-.739-.07-.44-.068-.88-.137-1.32-.218q-1.481-.274-2.935-.678-1.377-.382-2.718-.877c-.226-.083-1.599-.652-.748-.277-.517-.228-1.03-.46-1.538-.71a34.036 34.036 0 0 1-2.98-1.655q-.73-.454-1.437-.945-.284-.197-.564-.4c-.154-.111-.967-.744-.281-.2a35.16 35.16 0 0 1-4.85-4.66l1.196 2.885 1.262-32.291.18-4.598a4.142 4.142 0 0 0-4.083-4.083c-1.72-.046-3.44-.084-5.16-.138-.516-.016-1.028-.061-1.542-.088-.178-.009-.81-.097.044.024a19.792 19.792 0 0 1-.513-.081q-.679-.114-1.349-.273a20.848 20.848 0 0 1-2.276-.677c-.279-.1-1.165-.493-.426-.152a26.365 26.365 0 0 1-1.2-.58 20.644 20.644 0 0 1-1.985-1.188c-.176-.12-.99-.72-.65-.455.388.303-.045-.04-.1-.088-.207-.179-.417-.352-.62-.535a20.364 20.364 0 0 1-1.614-1.617c-.253-.284-.494-.578-.735-.872.534.652-.148-.23-.322-.49a19.817 19.817 0 0 1-1.159-1.966c-.175-.34-.325-.69-.493-1.034-.203-.417.081.176.095.218-.086-.26-.194-.513-.283-.772a19.367 19.367 0 0 1-.623-2.235c-.082-.383-.143-.769-.212-1.154.158.877-.015-.26-.036-.6-.261-4.093-.25-8.22-.37-12.32l-.766-26.104-.792-27.018c-.14-4.778-.04-9.635-.422-14.401-.006-.072-.005-.145-.007-.217l-4.082 4.083 23.748-.015 37.698-.024 8.667-.005-4.083-4.083 1.659 18.828 3.348 37.994 2.631 29.866c.475 5.39.425 10.786.508 16.197l.497 32.25.01.694a4.083 4.083 0 0 0 8.166 0z" fill="#000000" class="fill-000000"></path><path d="M558.795 105.34s14.291-2.843 14.302 5.204a99.362 99.362 0 0 1-3.312 13.179c-1.88 5.172 3.762 6.113 5.643 3.762" fill="#ffffff" class="fill-ffffff"></path><path d="M559.338 107.308c.128-.025.257-.047.386-.07l.406-.064c.083-.014.166-.023.25-.037.486-.08-.453.052-.024.003a33.924 33.924 0 0 1 3.416-.244c.66-.009 1.32.006 1.979.054.319.024.639.052.956.094-.358-.047.61.116.772.151.303.067.604.145.901.236.175.054.347.114.519.176.54.194-.222-.112.09.034.29.135.563.293.839.457a3.334 3.334 0 0 1 .28.192c-.386-.287.154.168.221.228a2.757 2.757 0 0 1 .225.246c-.304-.354.034.053.076.13.069.124.14.247.206.374.148.285-.123-.45.028.082.037.13.272.91.16.57.029.087.062.91.102.088-.001.037-.016.074-.02.111a38.764 38.764 0 0 1-.805 3.974c-.484 2.208-1.018 4.407-1.663 6.573-.608 2.042-1.668 4.142-1.112 6.322 1.028 4.033 6.718 5.018 9.345 1.94a2.095 2.095 0 0 0 0-2.887 2.059 2.059 0 0 0-2.887 0 3.347 3.347 0 0 1-.361.373c.3-.258.011-.023-.086.032s-.448.19-.075.054c-.141.051-.286.084-.43.127-.117.034-.497.05-.08.024a5.187 5.187 0 0 1-.543.005c-.103-.004-.373-.075.008.005-.068-.014-.646-.195-.433-.106.268.111-.22-.13-.226-.134-.424-.341.216.306-.13-.122-.047-.059-.227-.3-.01-.007-.31-.418.08.319-.104-.196-.108-.301-.068-.193-.047-.064a2.803 2.803 0 0 1-.01-.687 8.849 8.849 0 0 1 .396-1.36 85.304 85.304 0 0 0 2.992-11.74 8.007 8.007 0 0 0 .1-3.446 6.713 6.713 0 0 0-2.642-3.932c-2.265-1.675-5.331-2.043-8.07-2.056a30.38 30.38 0 0 0-5.982.56c-2.575.508-1.485 4.444 1.086 3.937z" fill="#000000" class="fill-000000"></path><path d="M584.321 106.935s8.539-5.05 16.963.345" fill="#ffffff" class="fill-ffffff"></path><path d="M585.351 108.698a12.952 12.952 0 0 1 .76-.392l.3-.138c.066-.03.404-.173.103-.047-.312.132.074-.029.14-.054.143-.055.285-.11.429-.163q.396-.146.798-.273a19.055 19.055 0 0 1 2.094-.538 15.074 15.074 0 0 1 4.71-.153 14.225 14.225 0 0 1 5.57 2.102c2.232 1.4 4.284-2.132 2.06-3.525a18.818 18.818 0 0 0-19.024-.344c-2.265 1.328-.212 4.859 2.06 3.525zM577.82 166.627l20.41.886 2.938.127a4.112 4.112 0 0 0 4.083-4.082 4.17 4.17 0 0 0-4.083-4.083l-20.41-.885-2.938-.128a4.112 4.112 0 0 0-4.082 4.083 4.17 4.17 0 0 0 4.082 4.082z" fill="#000000" class="fill-000000"></path><path d="M537.916 70.308a15.049 15.049 0 0 1-3.846-15.18 15.125 15.125 0 0 1 15.711-10.654l62.289 5.152 6.19-.942a26.47 26.47 0 0 1 27.95 14.934L634.047 154a12.868 12.868 0 0 1-12.47-13.819 97.58 97.58 0 0 1 .38-3.546c7.503-7.729 11.8-22.052-.085-24.167-7.994-1.422-11.289 16.717-11.289 16.717l1.205-27.771c-4.143-.18-13.807-3.528-27.702-22.436 0 0-23.323 13.563-46.169-8.67z" fill="#000000" class="fill-000000"></path><path d="M540.803 67.421a24.49 24.49 0 0 1-.932-.996c-.437-.488.305.443-.079-.083q-.17-.232-.33-.471c-.249-.37-.478-.753-.692-1.144-.122-.223-.233-.45-.348-.677-.304-.604.293.864-.112-.245a18.154 18.154 0 0 1-.711-2.551c-.16-.77-.006.368-.057-.418a18.371 18.371 0 0 1-.045-1.714 13.181 13.181 0 0 1 .097-1.338c-.098.744.108-.411.159-.628.075-.317.159-.631.254-.943.073-.239.535-1.454.21-.702a14.443 14.443 0 0 1 1.168-2.158c.126-.194.259-.383.392-.573.038-.055.4-.489.1-.136-.304.357.078-.077.118-.12.194-.211.382-.426.582-.632q.418-.43.869-.826c.171-.15.347-.296.524-.44-.05.042-.53.36-.143.125.735-.448 1.436-.91 2.204-1.305.679-.348.116-.063-.034-.003q.32-.128.644-.242.489-.17.988-.307a18.72 18.72 0 0 1 1.354-.304c.075-.015.65-.085.15-.03-.579.065.396-.022.506-.03a19.992 19.992 0 0 1 2.813.082l18.805 1.556 28.152 2.328 10.409.86c1.402.117 2.84.339 4.248.352a17.474 17.474 0 0 0 2.551-.368l3.37-.513c.372-.056.746-.107 1.117-.17.076-.012.153-.022.23-.035-.67.107.088-.008.39-.037a27.983 27.983 0 0 1 5.419.037c.068.007.657.09.166.018-.532-.08.214.04.338.061q.613.106 1.22.24 1.296.287 2.559.702.586.193 1.164.413.329.126.655.26c-.06-.024-.581-.274-.167-.062.785.402 1.582.762 2.348 1.205q1.067.616 2.075 1.33c.192.137.38.276.57.416-.129-.095-.588-.481.008.014.363.302.723.606 1.073.923q.92.836 1.76 1.756.422.462.82.943.172.207.34.417c-.363-.452-.062-.075.12.178a26.53 26.53 0 0 1 2.493 4.242l-.411-3.146-1.21 8.992-2.907 21.593-3.515 26.12-3.038 22.574c-.487 3.618-1.227 7.297-1.473 10.942-.004.054-.015.108-.022.162l3.937-2.997a13.256 13.256 0 0 1-1.051-.087c.87.108-.317-.096-.606-.169-.492-.125-.962-.306-1.445-.457-.538-.169.535.315.057.022-.185-.113-.399-.193-.59-.295-.388-.206-.756-.438-1.126-.673-.076-.047-.663-.453-.248-.156.41.294-.147-.125-.219-.19a15.814 15.814 0 0 1-.934-.892c-.148-.156-.288-.32-.432-.479-.162-.18-.483-.772-.058-.06a24.802 24.802 0 0 1-1.277-2.23c.368.79-.058-.241-.148-.544-.124-.419-.212-.843-.304-1.27-.102-.477-.004-.225.007.104-.008-.221-.04-.443-.05-.665a12.84 12.84 0 0 1 .023-1.525c.088-1.242.24-2.482.393-3.717l-1.196 2.886a31.514 31.514 0 0 0 7.774-13.359c1.29-4.807 1.016-10.32-2.629-14.064-3.395-3.487-9.516-5.105-13.815-2.394-3.786 2.388-5.835 6.67-7.36 10.713a44.69 44.69 0 0 0-2.167 7.683l8.02 1.085 1.053-24.286.151-3.485a4.15 4.15 0 0 0-4.082-4.083c-.203-.01-.406-.04-.608-.046-.594-.019.942.154.676.094-.143-.032-.291-.043-.435-.072a17.424 17.424 0 0 1-1.592-.389q-.453-.137-.898-.298c-.171-.061-.34-.128-.51-.192-.64-.24-.07-.075.29.129-.721-.408-1.514-.706-2.242-1.11a33.197 33.197 0 0 1-2.42-1.485q-.661-.444-1.304-.914c-.209-.153-.415-.31-.623-.464-.573-.43.125.124.191.147a2.028 2.028 0 0 1-.431-.343 63.904 63.904 0 0 1-6.245-5.817 93.442 93.442 0 0 1-3.962-4.462 100.314 100.314 0 0 1-4.064-5.192c-1.313-1.78-3.507-2.667-5.585-1.464-.202.116-.41.222-.616.327-.24.121-.48.237-.723.35-.409.19-1.757.63-.192.101a59.592 59.592 0 0 1-6.577 2.04q-.986.212-1.982.372c-.441.071-1.426-.01-.278.05a9.528 9.528 0 0 0-1.292.14 37.87 37.87 0 0 1-5.169.12c-.906-.042-1.806-.176-2.71-.224-.59-.03.744.135.158.024-.259-.05-.523-.079-.783-.122q-.796-.133-1.587-.3a37.938 37.938 0 0 1-5.933-1.78c.037.013-1.065-.44-.529-.21.405.172-.59-.268-.706-.322q-.87-.403-1.72-.845-1.878-.978-3.654-2.137a43.56 43.56 0 0 1-6.93-5.616 4.083 4.083 0 0 0-5.774 5.773c7.793 7.52 17.363 12.716 28.222 13.784a41.127 41.127 0 0 0 18.741-2.602 30.325 30.325 0 0 0 4.154-1.873l-5.585-1.464c4.432 6.01 9.225 11.897 15 16.677a36.744 36.744 0 0 0 11.621 6.925 17.295 17.295 0 0 0 4.605.856l-4.082-4.083-1.053 24.286-.151 3.486a4.089 4.089 0 0 0 8.019 1.085 48.046 48.046 0 0 1 2.51-8.562c.249-.645-.377.825.009-.012.116-.253.23-.507.35-.758.255-.533.528-1.057.822-1.57.266-.463.55-.917.856-1.354.52-.743.253-.044-.042.032.142-.036.447-.52.562-.642q.248-.262.516-.506c.715-.647.044.128-.13.073a4.03 4.03 0 0 0 .568-.365c.104-.068.238-.101.335-.177.25-.195-.971.28-.371.16a3.372 3.372 0 0 0 .537-.151c.483-.192-1.012-.01-.247.037a2.762 2.762 0 0 0 .679.02c-.321.218-1.039-.204-.372-.031.2.052.405.086.606.136.381.096.747.223 1.122.34.726.224-.61-.342.028.011.3.166.598.322.89.503.102.063.198.153.304.209.369.193-.679-.665-.173-.115.156.17.332.326.494.49-.023-.023.29.35.297.348-.092.028-.549-.875-.24-.277.102.198.231.39.343.582a3.624 3.624 0 0 0 .198.405c-.149-.032-.338-1.008-.123-.236a8.303 8.303 0 0 0 .356 1.463c-.233-.106-.07-.966-.06-.374.003.16.025.324.032.484.014.33.014.662.002.993-.01.297-.055.595-.062.891-.01.436.063-.43.067-.439a2.497 2.497 0 0 0-.083.523 18.875 18.875 0 0 1-.468 1.992c-.185.637-.407 1.26-.64 1.88-.338.902.216-.427-.094.232-.168.356-.33.714-.508 1.065a29.003 29.003 0 0 1-2.233 3.71c-.202.285-.41.565-.62.843.479-.637.06-.089-.195.215a17.923 17.923 0 0 0-1.91 2.236c-.709 1.21-.672 2.918-.813 4.3a20.967 20.967 0 0 0-.166 2.834 17.212 17.212 0 0 0 16.594 16.374c1.583.068 3.71-1.305 3.937-2.998l1.382-10.27 3.248-24.128 3.763-27.964 2.922-21.709.737-5.476.112-.831a5.501 5.501 0 0 0-.49-3.316 24.492 24.492 0 0 0-1.31-2.418 32.227 32.227 0 0 0-3.54-4.716 30.868 30.868 0 0 0-19.664-9.8 33.496 33.496 0 0 0-8.76.41l-3.265.497-1.425.217c-.28.042-1.314.189-.16.034 1.197-.161-.178-.132-.517-.16l-2.935-.242-9.926-.821-27.492-2.274-19.681-1.627a20.663 20.663 0 0 0-11.53 2.136 19.4 19.4 0 0 0-9.847 20.049 18.92 18.92 0 0 0 5.424 10.52 4.083 4.083 0 1 0 5.774-5.775z" fill="#000000" class="fill-000000"></path><ellipse cx="592.456" cy="116.501" rx="2.743" ry="2.827" stroke="#000000" stroke-miterlimit="10" stroke-width="1.361" transform="rotate(-87.516 592.456 116.501)" fill="#000000" class="fill-000000 stroke-000000"></ellipse><ellipse cx="563.081" cy="115.616" rx="2.743" ry="2.827" stroke="#000000" stroke-miterlimit="10" stroke-width="1.361" transform="rotate(-87.516 563.08 115.616)" fill="#000000" class="fill-000000 stroke-000000"></ellipse><path d="M577.17 138.587a5.219 5.219 0 0 0 10.144-2.44z" fill="#000000" class="fill-000000"></path><path d="M575.202 139.13a7.224 7.224 0 0 0 6.365 5.316 7.209 7.209 0 0 0 7.715-8.841 2.074 2.074 0 0 0-2.51-1.426l-8.894 2.14-1.25.3a2.06 2.06 0 0 0-1.426 2.511 2.084 2.084 0 0 0 2.511 1.426l8.894-2.14 1.25-.3-2.511-1.426q.033.137.058.276.044.274.004.005-.035-.269-.009.004.01.137.011.274c.001.137-.007.272-.013.408-.017.441.097-.405.005-.008a4.502 4.502 0 0 1-.255.9q.172-.39.075-.18-.041.09-.087.18-.091.178-.197.349-.07.114-.146.224-.192.266.079-.09c.008.057-.233.268-.266.303-.093.098-.19.193-.29.284q-.101.091-.207.177l.197-.152c-.049.176-.667.412-.831.499-.41.218.414-.124-.036.013-.161.049-.32.105-.484.146a1.399 1.399 0 0 1-.505.105l.254-.036q-.143.014-.287.021-.214.01-.428.003-.14-.005-.281-.017-.276-.03-.007.003.268.037-.004-.008-.136-.027-.27-.06-.201-.05-.398-.117-.097-.032-.193-.07-.216-.083.171.074c-.054.028-.365-.185-.424-.218-.138-.08-.267-.17-.401-.256-.333-.214.29.285-.014-.016-.096-.096-.2-.183-.295-.28-.04-.042-.42-.459-.196-.206.217.244-.118-.184-.154-.243-.072-.118-.132-.243-.201-.363-.219-.373.104.359-.017-.026-.057-.183-.118-.361-.165-.547a2.042 2.042 0 1 0-3.937 1.085z" fill="#000000" class="fill-000000"></path><circle cx="380.083" cy="85.725" fill="#ffffff" r="37.778" class="fill-ffffff"></circle><path d="M413.779 85.725c-.005.93-.034 1.86-.102 2.788q-.05.688-.125 1.374c-.025.228-.053.455-.081.682.125-1.013-.03.13-.052.266a37.55 37.55 0 0 1-1.358 5.556c-.275.843-.59 1.67-.915 2.495.33-.834-.138.307-.246.542q-.31.673-.646 1.334a37.788 37.788 0 0 1-2.788 4.63c-.25.357-.513.704-.77 1.055.558-.764-.324.393-.479.579q-.888 1.063-1.85 2.061-.907.937-1.875 1.811-.485.437-.984.857-.25.21-.502.416c-.105.085-.983.738-.201.167a43.026 43.026 0 0 1-4.524 2.942q-1.224.677-2.496 1.263c-.24.11-1.407.572-.541.245-.466.176-.926.367-1.394.536a37.43 37.43 0 0 1-5.322 1.492q-.665.135-1.336.245c-.224.037-.45.067-.673.105.858-.147.256-.031.067-.01a42.529 42.529 0 0 1-3.103.24 40.273 40.273 0 0 1-5.903-.24c-.19-.021-.791-.137.067.01-.224-.038-.45-.068-.674-.105q-.67-.11-1.336-.245-1.403-.283-2.781-.674-1.284-.364-2.54-.818c-.416-.15-.823-.331-1.24-.474-.57-.194.605.28.058.03-.25-.116-.504-.222-.754-.337a37.73 37.73 0 0 1-4.882-2.7c-.73-.477-1.433-.99-2.138-1.505.74.54-.253-.21-.452-.374q-.629-.52-1.234-1.066a38.086 38.086 0 0 1-3.726-3.872c-.154-.186-1.036-1.343-.478-.579-.257-.351-.52-.698-.77-1.055q-.802-1.137-1.517-2.33-.676-1.128-1.272-2.3-.298-.587-.576-1.185c-.106-.227-.655-1.551-.316-.69a40.361 40.361 0 0 1-1.736-5.398q-.316-1.316-.536-2.654c-.037-.224-.067-.45-.105-.674.146.858.031.256.01.067a47.134 47.134 0 0 1-.164-1.715 38.248 38.248 0 0 1 .014-5.748q.053-.688.131-1.372c.015-.133.117-.858.035-.307s.03-.171.052-.302q.24-1.505.603-2.987a45.655 45.655 0 0 1 1.696-5.233c-.326.866.136-.301.246-.541q.276-.6.572-1.188.664-1.32 1.43-2.586.678-1.12 1.432-2.19c.25-.357.51-.707.77-1.056-.085.114-.513.639-.037.053.206-.253.41-.507.62-.756a38.036 38.036 0 0 1 3.743-3.857q.486-.434.987-.852c.126-.106 1.095-.875.732-.599s.634-.46.768-.556q.6-.426 1.215-.829a37.73 37.73 0 0 1 4.883-2.7c.234-.107 1.375-.574.541-.245.412-.162.822-.327 1.238-.479q1.41-.517 2.858-.92 1.298-.362 2.62-.629.665-.135 1.335-.245c.225-.037.45-.069.674-.105-.574.093-.324.04.104-.008a38.28 38.28 0 0 1 5.907-.214q1.382.057 2.758.214c.132.015.857.117.307.035s.17.03.302.051q.754.121 1.504.272a37.61 37.61 0 0 1 5.478 1.55c.415.152.826.316 1.237.478-.834-.329.307.138.542.246q1.345.618 2.64 1.342 1.144.64 2.242 1.357.548.358 1.082.735.268.188.531.38c.088.065.82.614.37.27-.362-.276.607.494.733.6q.5.417.987.852 1.032.923 1.996 1.92.906.937 1.747 1.936c.175.208.346.42.518.63.08.098.506.65.185.228s.099.136.173.238c.16.22.32.44.477.663a37.776 37.776 0 0 1 2.863 4.776q.296.59.571 1.188c.11.24.572 1.408.246.542.332.882.677 1.755.966 2.654a37.552 37.552 0 0 1 1.334 5.565c.02.131.133.852.051.302s.02.175.036.307q.078.685.13 1.372c.077.986.11 1.973.116 2.96a4.083 4.083 0 0 0 8.165 0 41.856 41.856 0 0 0-83.594-3.133 41.773 41.773 0 0 0 24.21 41.138 42.783 42.783 0 0 0 26.14 2.96c16.52-3.342 30.05-17.337 32.647-34.02a46.44 46.44 0 0 0 .597-6.944 4.083 4.083 0 1 0-8.165 0zM605.439 460.43l.697 12.154 1.896 33.069 2.782 48.523 3.416 59.585 3.742 65.276 3.765 65.663 3.51 61.23 2.976 51.917 2.133 37.202c.337 5.882.611 11.772 1.012 17.65.018.255.03.51.044.767.15 2.612 4.233 2.629 4.083 0l-.697-12.153-1.896-33.069-2.782-48.523-3.416-59.585-3.743-65.277-3.764-65.663-3.51-61.23-2.977-51.917-2.133-37.202c-.337-5.882-.61-11.771-1.012-17.65-.017-.255-.029-.51-.044-.766-.15-2.612-4.233-2.63-4.082 0zM644.223 460.43l.697 12.154 1.896 33.069 2.782 48.523 3.416 59.585 3.742 65.276 3.765 65.663 3.51 61.23 2.977 51.917 2.133 37.202c.337 5.882.61 11.772 1.012 17.65.017.255.03.51.044.767.15 2.612 4.233 2.629 4.082 0l-.696-12.153-1.896-33.069-2.782-48.523-3.417-59.585-3.742-65.277-3.765-65.663-3.51-61.23-2.976-51.917-2.133-37.202c-.337-5.882-.61-11.771-1.012-17.65-.017-.255-.03-.51-.044-.766-.15-2.612-4.233-2.63-4.083 0zM554.046 385.106l-15.31 21.434-10.64 14.895c-1.469 2.058-3.586 4.24-4.67 6.538-.648 1.377-.496 3.46-.629 4.932l-1.036 11.534-3.8 42.274-5.548 61.715-6.63 73.754-7.047 78.392-6.8 75.63-5.884 65.465-4.295 47.776c-.69 7.667-1.571 15.345-2.07 23.028-.021.331-.06.662-.09.993-.234 2.616 3.85 2.6 4.083 0l1.424-15.839 3.812-42.404 5.541-61.641 6.635-73.81 7.025-78.138 6.775-75.368 5.885-65.465 4.284-47.654c.692-7.701 1.552-15.409 2.078-23.123.13-1.89-.074.067-.183.004.11.064 4.847-6.785 5.13-7.18l20.928-29.3 4.557-6.38c1.53-2.143-2.009-4.184-3.525-2.061zM559.891 476.633l-.851 11.704-2.317 31.847-3.426 47.096-4.165 57.244-4.56 62.684-4.62 63.492-4.307 59.196-3.638 50.006-2.606 35.829c-.412 5.656-.991 11.33-1.237 16.996-.01.246-.036.493-.054.739-.19 2.621 3.893 2.61 4.083 0l.851-11.703 2.317-31.848 3.427-47.096 4.164-57.245 4.561-62.684 4.62-63.49 4.306-59.197 3.638-50.006 2.607-35.829c.411-5.656.99-11.33 1.236-16.996.01-.247.036-.493.054-.739.19-2.621-3.893-2.61-4.083 0z" fill="#000000" class="fill-000000"></path></svg>